<?xml version="1.0" encoding="UTF-8"?>
<svg id="Capa_1" data-name="Capa 1" xmlns="http://www.w3.org/2000/svg" viewBox="0 0 2291.33 1451.52">
  <defs>
    <style>
      .cls-1 {
        fill: #fff;
      }

      .cls-2 {
        fill: #1e6e8c;
      }
    </style>
  </defs>
  <rect class="cls-2" x="256.36" y="142.53" width="1920" height="1080"/>
  <path class="cls-1" d="m1896.88,340.81c8.55-3.16,14.95-6.06,21.64-7.92,66.53-18.5,133.22-36.41,199.57-55.5,16.1-4.63,23.57-1.33,26.85,15.4,3.27,16.72,9.89,32.8,12.84,49.56,1.31,7.47-1.35,16.56-4.73,23.73-5.5,11.7,2.25,30.67,15.54,32.34,27.43,3.46,43.36,18.83,50.51,44.95,23.12,84.44,46.73,168.76,69.62,253.26,8.81,32.52-5.01,58.92-37.46,68.43-65.57,19.21-131.45,37.45-197.53,54.81-33.5,8.8-58.79-6.88-68.29-40.77-23.64-84.31-46.56-168.82-70.05-253.17-7.06-25.35-1.5-45.99,19.4-62.71,12.87-10.3,8.98-28.68-6.54-36.37-3.87-1.92-8.65-5.3-9.76-8.98-7.55-25.05-14.24-50.37-21.6-77.05Zm138.28,93.52c.93,2.96,1.86,5.92,2.79,8.87-6.35,3.07-12.44,7.03-19.11,9.05-19.74,5.97-39.85,10.73-59.56,16.8-27.16,8.37-37.53,26.77-30.07,54.11,22.83,83.73,45.9,167.4,69.28,250.98,7.58,27.09,26.55,38.18,53.74,30.93,63.23-16.86,126.37-34.12,189.32-52,32.87-9.34,42.44-32.18,27.63-65.77-7.05,1.58-14.58,2.95-21.93,4.97-32.93,9.02-66.16,17.18-98.58,27.78-18.55,6.06-24.87.42-29.28-17.27-11-44.17-23.85-87.87-35.98-131.75q-13.74-49.73,35.8-63.41c31.24-8.62,62.48-17.24,93.04-25.67-6.08-59.73-31.85-81.84-79.26-61.38-4.93,2.13-11.84-.3-17.83-.62-.37-2.16-.74-4.32-1.11-6.48,8.92-4.28,17.83-8.56,26.36-12.65-3.46-30.43-4.05-30.91-30.45-23.67-33.62,9.22-67.21,18.53-100.81,27.8-18.99,5.24-37.97,10.48-57,15.73l9.38,33.99c25.74-7.1,49.68-13.71,73.63-20.32Zm52.74,98.25c15.58,56.44,30.32,110.57,45.81,164.49,1.07,3.74,8.47,9.08,11.55,8.29,40.41-10.37,80.57-21.72,120.73-32.8-16.64-60.28-32.45-117.57-48.5-175.75-43.18,11.92-84.83,23.41-129.59,35.76Zm-155.99-122.84c71.83-19.82,141.89-39.16,211.72-58.43-5.7-20.67-10.88-39.44-16.33-59.16-71.21,19.65-140.7,38.83-211.72,58.43,5.55,20.1,10.74,38.93,16.33,59.16Z"/>
  <path class="cls-1" d="m746.59,1364.23c10.04,12.99,16.95,21.92,23.85,30.85-1.49,1.49-2.98,2.97-4.46,4.46-23.77-7.99-34.29-33.4-56.27-46.87-9.25,9.65-18.76,19.57-28.07,29.29.49,1.87.61,3.22,1.18,4.35,3.76,7.48,7.62,14.92,11.45,22.37-7.28-4.07-15.72-6.91-21.64-12.44-17.95-16.76-35.27-34.24-52.04-52.18-4.03-4.31-4.98-11.5-7.34-17.37,5.45,2.34,11.05,4.41,16.3,7.14,2.8,1.46,4.99,4.07,7.98,6.59,10.14-10.31,19.72-20.06,30.5-31.02-15.95-16.74-32.38-33.99-48.81-51.25,1.98-2.38,3.97-4.77,5.95-7.16,9.46,6.86,18.93,13.71,31.45,22.79,35.24-36.02,70.72-72.6,106.56-108.82,44.37-44.84,88.79-89.64,133.92-133.7,5.8-5.66,16.73-10.79,24.04-9.43,53.44,9.92,91.3-13,122.58-53.45,7.75-10.02,18.95-17.38,28.57-25.96,1.97,1.82,3.94,3.64,5.91,5.47-2.75,4.44-4.86,9.49-8.37,13.21-11.39,12.07-22.02,25.38-35.24,35.09-29.88,21.94-40.52,50.39-34.57,86.09,3.83,22.99-5.66,39.24-22.16,55.37-72.18,70.55-143.04,142.46-214.52,213.73-4.68,4.66-10.53,8.14-16.72,12.84Zm182.28-327.79c7.3,7.81,12.37,12.05,15.86,17.34,2.86,4.33,3.83,9.91,5.63,14.94-4.97-1.48-11.53-1.47-14.6-4.74-8.05-8.58-14.57-18.59-19.4-24.98-54.86,54.17-105.03,103.72-155.19,153.25,22.52,22.57,45.86,45.94,67.72,67.85,50.1-49.84,100.16-99.66,150.5-149.74-4.41-6.34-9.61-13.84-17.36-25,11.17.86,16.9,1.31,22.3,1.73v-50.65h-55.45Zm-124.85,220.82c-20.49,21.03-39.62,41.18-59.46,60.6-4,3.92-10.7,5.08-16.16,7.52,2.19-5.95,2.81-13.41,6.83-17.59,19.21-19.99,39.34-39.09,60.25-59.59-7.96-8.48-14.04-14.95-21.77-23.18-21.01,21.54-39.68,41.25-59.14,60.16-4.48,4.35-11.66,5.91-17.6,8.75,2.76-6.41,4.03-14.27,8.56-18.99,18.73-19.48,38.44-38.01,57.31-56.41-5.43-7.95-9.06-13.28-11.21-16.43-30.12,29.45-57.86,56.57-82.1,80.27,22.86,24.19,45.88,48.55,66.85,70.74,27.14-27,54.27-54,83.11-82.7-3.45-2.94-7.92-6.73-15.47-13.15Zm-136.61,114.72c12.2-11.46,22.12-20.79,31.63-29.72-6.42-8.12-11.99-15.17-16.26-20.56-12.63,11.78-22.62,21.11-34.22,31.92,6.63,6.46,12.63,12.3,18.85,18.36Z"/>
  <path class="cls-1" d="m920.52,461.7c-60.65-11.11-121.33-22.08-181.95-33.39-38.79-7.24-55.53-31.14-48.53-70.27,14.52-81.15,29.39-162.24,44.56-243.27,7.25-38.75,31.89-56.11,70.26-49.17,122.04,22.05,244.03,44.4,365.96,67.04,38.72,7.19,55.17,31.54,48.14,70.73-14.54,81.15-29.37,162.26-44.54,243.29-7.57,40.42-30.89,55.79-71.94,48.35-60.67-11-121.31-22.19-181.96-33.31Zm65.79-347.68c-59.96-10.98-119.9-22.05-179.88-32.92-35.57-6.44-50.94,3.8-57.39,38.61-14.77,79.68-29.36,159.4-43.8,239.15-6.23,34.43,5,50.49,39.91,56.92,119.21,21.98,238.45,43.83,357.71,65.52,34.65,6.3,51.33-5.12,57.61-39.11,14.72-79.7,29.32-159.42,43.81-239.15,6.13-33.73-4.75-49.82-38.1-56.04-59.92-11.18-119.91-22.02-179.87-32.98Z"/>
  <path class="cls-1" d="m470.77,876.72c41.69,1.47,75.52,22.87,94.26,64.41,18.4,40.8,13.76,81.91-17.22,113.86-88.44,91.24-178.91,180.52-269.32,269.83-5.57,5.5-18.29,7.87-26.34,5.99-28.68-6.7-48.99,2.39-68,24.41-22.83,26.44-48.89,50.12-73.93,74.61-28.31,27.69-65.37,28.88-91.46,3.48-26.21-25.51-24.84-64.46,3.58-93.34,24.57-24.96,48.13-51.15,74.56-73.99,21.39-18.48,29.62-37.84,24.21-65.98-1.99-10.32,3.69-25.92,11.36-33.72,83.94-85.38,169.07-169.58,253.62-254.37,22.39-22.45,48.59-35.08,84.7-35.21Zm-288.26,265.9c-30.11,24.38-55.22,43.96-42.84,84.13,2.62,8.51-4.65,23.3-11.84,31.02-28.87,30.99-59.61,60.24-89.44,90.34-25.02,25.25-27.71,53.05-7.47,72.92,19.94,19.58,47.71,16.47,73.08-8.62,27.24-26.93,55.72-52.83,80.72-81.72,16.26-18.79,33.56-23.9,55.79-17.93,16.87,4.53,28.92-.67,40.92-13.37,28.52-30.21,58.6-58.95,87.98-88.36,54.15-54.2,108.82-107.9,162.15-162.89,32.46-33.47,34.36-82.75,7.2-118.7-25.64-33.94-74.99-48.28-111.41-25.29-30.75,19.41-56.01,47.52-84.34,72.34,11.47,12,19.18,19.29,25.8,27.46,2,2.46.99,7.36,1.36,11.14-4.37.08-10.15,1.99-12.84-.1-8.84-6.84-16.55-15.14-24.12-22.32-13.66,12.56-26.03,23.93-38.24,35.15,9.57,13.33,17.96,25,26.35,36.68-2.64,2.22-5.29,4.44-7.93,6.66-10.85-8.84-21.7-17.69-33.62-27.41-11.82,12.67-23.27,24.95-35.09,37.62,8.34,10.81,17.04,22.07,25.74,33.33-2.32,2.36-4.64,4.73-6.96,7.09-11.39-8.45-22.78-16.89-35.7-26.47-11.74,12.1-23.44,24.14-40.8,42.02,9.18,6.31,18.59,11.61,26.34,18.73,2.67,2.45,1.21,9.4,1.63,14.29-4.31-.75-10.21,0-12.64-2.54-7.26-7.63-13.16-16.55-19.78-25.2Z"/>
  <path class="cls-1" d="m1509.75,368.26c-6.15-3.75-11.05-6.83-16.04-9.77-54.8-32.22-80.63-99.4-60.6-159.36,9.32-27.89,19.36-55.56,30.03-82.96,9.9-25.4,35.77-40.04,61-35.29,5.63,1.06,10.83,4.42,16.22,6.72-.28,1.99-.57,3.97-.85,5.96-4.29.39-8.66,1.48-12.87,1.07-27.69-2.73-43.28,6.32-53.28,32.31-9.15,23.79-18.22,47.63-26.37,71.78-21.95,65.02,10.21,133.47,73.35,157.17,62.81,23.57,130.85-5.55,157.4-68.37,10.93-25.85,20.18-52.47,29.13-79.09,7.82-23.28,1.17-40.01-18.66-54.59-3.83-2.82-5.86-8.09-8.73-12.22,5.32.43,11.41-.66,15.84,1.56,22.54,11.31,34.5,39.73,26.09,65.43-9.95,30.41-20.31,60.88-33.34,90.06-24.73,55.38-85.74,87.91-144.88,76.97-17.38-3.21-22.64,2.3-27.52,17-17.74,53.37,6.69,109.38,57.59,129.6,52.07,20.68,109.33-3.28,132.22-55.1,4.83-10.94,6.34-18.88-5.22-28.42-22.04-18.19-24.87-48.23-9.89-72.93,13.73-22.63,43.36-32.64,68.64-23.19,25.3,9.46,40.68,35.81,36.55,62.61-4.26,27.67-26.68,48.52-55.41,48.56-12.33.02-16.74,4.57-20.9,15.01-24.09,60.43-88.05,89.33-147.67,67.44-60.27-22.13-90.31-87.21-68.74-148.98,2.13-6.08,4.41-12.11,6.91-18.97Zm243.12-12.88c-22.7-7.83-48.03,4.19-55.87,26.51-7.67,21.83,4.78,48.35,26.43,56.29,22.38,8.22,50.11-5.11,57.32-27.55,7.33-22.82-5.06-47.39-27.87-55.25Z"/>
  <path class="cls-1" d="m1988.1,987.55c-3.93-39.06-.96-48.76,15.38-53.07,15.32-4.04,21.33,1.38,38.93,35.27,1.57.05,3.69.78,4.98.05,27.82-15.64,48.84-2.11,70.53,14.54,28.81,22.12,59.17,42.22,88.47,63.71,5.39,3.96,10.92,9.76,12.98,15.86,7.61,22.57,14.48,45.45,20.32,68.54,6.03,23.83-6.64,40.98-27.8,38.91.02-1.65-.57-4.47.14-4.85,23.25-12.27,14.19-30.14,11.02-49.25-6.77-40.8-28.29-68.48-63.78-88.34-20.68-11.58-39.94-26.15-58.32-41.22-14.43-11.84-27.71-14.65-45.47-7.98-22.22,8.34-21.95,6.77-30.01-14.46-2.71-7.15-10.32-12.44-15.69-18.59-4.27,4.17-12.22,8.49-12.05,12.46.38,8.88-1.64,21.54,13.51,22.78,1.76.14,3.31,2.74,7.5,6.45-8.08,3.42-13.97,6.59-20.25,8.45-57.7,17.13-115.49,33.92-173.19,51.05-27.55,8.18-32.94,18.56-24.78,46.54,13.35,45.76,26.8,91.5,40.25,137.23,7.85,26.69,9.21,27.73,38.06,30.58,2.33.23,4.64.74,6.96,1.12-.08,2.1-.17,4.2-.25,6.3-5.9,1.73-11.8,4.92-17.7,4.92-17.13.01-30.71-11.55-36.65-31.33-15.08-50.23-29.92-100.53-44.31-150.96-7.99-27.98,2.42-46.2,30.49-54.55,50.83-15.12,101.76-29.93,152.65-44.87,6.15-1.81,12.3-3.61,18.08-5.31Z"/>
  <path class="cls-1" d="m1395.68,1102.7c-2.1-5.82-4.91-11.49-6.16-17.49-4.02-19.23-6.88-38.72-11.25-57.87-10.95-48-55.75-77.91-103.74-69.85-48.16,8.08-81.25,51.15-74.11,100.2,6.33,43.46,15.8,86.47,24.66,133.79,42.2-7.9,83.27-15.58,124.33-23.27.62,2.84,1.25,5.68,1.87,8.52-17.51,11.3-39.29,10.08-58.94,14.68-20.91,4.9-42.21,8.12-63.56,12.12,9.34,49.93,13.94,98.36,28.03,143.86,18.2,58.78,94.27,75.01,142.63,34.49,5.56-4.66,11.87-8.45,17.83-12.64,1.78,1.74,3.56,3.49,5.34,5.23-4.74,6.23-8.62,13.43-14.36,18.53-56.48,50.08-151.5,24.05-168.32-49.69-21.68-95.06-38.34-191.37-54.18-287.63-8.25-50.12,28.73-98.09,78.87-110.68,48.96-12.29,102.51,12.37,120.26,59.54,10.37,27.57,13.99,57.71,20.14,86.81.66,3.12-2.1,6.96-3.27,10.47-2.02.3-4.04.6-6.07.9Z"/>
  <path class="cls-1" d="m357.28,508.92c4.83-2.87,9.37-6.44,14.52-8.5,103.2-41.27,157.67-149.58,127.18-253.24-30.93-105.15-133.61-167.67-242.11-147.39-90.26,16.86-158.73,94.79-167.22,190.35-.33,3.73.54,7.86-.8,11.11-1.13,2.74-4.69,4.48-7.17,6.66-1.76-2.28-4.86-4.47-5.01-6.86-.44-6.82-.02-13.75.66-20.58,10.95-109.4,101.2-192.09,215.39-197.45,105.16-4.94,202.28,72.85,223.64,179.13,21.03,104.62-39.65,213.76-139.49,250.44-5.51,2.02-11.79,1.95-17.71,2.85-.63-2.17-1.25-4.35-1.88-6.52Z"/>
  <path class="cls-1" d="m1670.04,1198.23c15.83,85.04-40.18,167.71-124.17,183.3-87.68,16.27-170.32-39.5-186.21-125.67-15.68-85,41.53-168.26,126.55-184.17,85.16-15.94,167.92,41.04,183.83,126.55Zm-14.41,2.33c-14.91-78.8-88.48-129.09-167.15-114.26-78.2,14.74-128.98,89.13-114.23,167.36,14.74,78.17,89.5,129.25,167.37,114.35,78.49-15.02,128.85-88.99,114.01-167.44Z"/>
  <path class="cls-1" d="m640,674.22c7.68-34.84,14.63-66.36,21.59-97.89,2.39,0,4.79,0,7.18,0,13.41,41.96,26.81,83.91,40.22,125.87,1.02.04,2.05.07,3.07.11,2.71-10.82,4.76-21.88,8.44-32.36,1.6-4.56,6.14-10.82,10.07-11.39,27-3.93,54.18-6.66,81.34-9.42,2.34-.24,4.95,2.12,7.58,6.86-4.52,1.23-8.97,3.01-13.57,3.58-19.8,2.48-39.59,5.17-59.48,6.61-10.57.77-15.9,4.33-17.72,15.31-2.31,13.92-6.39,27.58-10.1,41.24-1.22,4.49-3.66,8.65-5.54,12.95-1.76.01-3.52.03-5.28.04-13.06-41.54-26.12-83.09-39.18-124.63l-3.52-.17c-6.11,28.39-12.22,56.79-18.33,85.18-1.59.23-3.18.46-4.76.7-6.18-7.79-12.35-15.58-19.92-25.13-8.58,22.99-16.5,44.19-24.41,65.39-2,.19-4,.38-6.01.57-11.56-27.31-23.13-54.62-35.37-83.53-1.77,3.24-3.07,4.84-3.58,6.67q-7.95,28.47-36.9,31.77c-17.21,1.96-34.41,4.09-51.66,5.76-4.51.44-9.17-.6-13.76-.95-.16-1.68-.32-3.36-.47-5.04,4.47-1.36,8.87-3.37,13.44-3.95,19.79-2.5,39.59-5.18,59.48-6.58,10.73-.75,15.69-4.67,17.45-15.54,2.27-14,6.49-27.68,9.87-41.49,2.06-.17,4.12-.34,6.18-.51,12.03,29.06,24.06,58.11,37.48,90.52,8.99-23.21,16.62-42.93,25.51-65.88,7.63,9.35,13.01,15.95,20.66,25.33Z"/>
  <path class="cls-1" d="m266.52,281.46c-3.63-23.84-6.32-44.85-10.2-65.64-2.26-12.06,1.71-16.95,13.65-18.74,47.94-7.16,37.36-7.84,44.13,30.34,2.5,14.1,4.37,28.31,7.03,45.75,21.04-3.21,41.29-5.38,61.11-9.6,15.64-3.33,22.59.14,24.52,17.21,4.54,40.1,9.16,33.19-29.68,39.61-14.73,2.44-29.52,4.53-47.67,7.3,3.22,21.16,5.37,41.41,9.63,61.21,3.4,15.8-.42,22.48-17.34,24.41-39.95,4.54-33.13,9.29-39.58-29.71-2.44-14.75-4.54-29.56-7.28-47.56-21.62,3.29-42.47,5.64-62.93,9.88-14.61,3.03-20-1.29-21.85-16.07-5.2-41.58-9.91-34.33,29.82-41.22,14.65-2.54,29.4-4.53,46.64-7.16Zm124.78-5.26c-21.63,3.3-42.09,5.56-62.15,9.76-14.79,3.1-20.38-1.66-21.9-16.27-2.18-20.86-6.08-41.55-9.26-62.43-10.91,1.66-18.58,2.83-28.33,4.32,3.1,20.35,5,39.6,9.2,58.33,3.87,17.25-.23,25.31-18.98,26.68-19.67,1.43-39.14,5.61-58.89,8.63l4.37,28.69c15.82-2.41,29.95-4.68,44.12-6.7,42.73-6.1,35.69-10.16,42.4,30.4,2.42,14.64,4.5,29.33,6.87,44.88l28.34-4.32c-2.48-16.24-4.84-30.99-6.96-45.78-5.65-39.54-9.86-34.1,28.77-40.31,15.26-2.45,30.56-4.68,46.78-7.15-1.6-10.5-2.86-18.74-4.38-28.71Z"/>
  <path class="cls-1" d="m158.83,415.57c25.01,18.5,49.63,36.7,72.37,53.52,5.74-2.82,7.12-3.1,7.9-3.94,23.88-25.89,23.97-26.13,60.07-11.8,10.18,4.04,24.75,7.58,28.32,15.44,6.47,14.23,7,31.48,7.96,47.59.17,2.89-9.36,8.79-14.74,9.22-76.71,6.23-141.08-19.27-191.9-77.28-24.77-28.28-39.69-61.62-47.98-98.25-3.02-13.37.67-17.64,14.19-21.52,29.13-8.35,50.64-2.2,65.61,24.67,2.1,3.76,4.99,7.29,8.18,10.2,12,10.99,11.87,21.99,1.39,33.98-3.6,4.12-5.93,9.34-11.37,18.16Zm-64.43-71.65c16.01,114.25,139.2,186.36,226.23,166.04,1.3-34.01-2.67-39.24-46.1-51.66-6.17-1.77-14.69,4.66-23.05,7.63,5.37,8.26,8.07,12.41,13.87,21.34-11.55-1.92-18.08-2.2-24.07-4.14-43.95-14.21-78.43-40.86-102.34-80.43-3.15-5.21-2.42-12.77-3.49-19.25,4.78,3.88,9.53,7.81,14.37,11.61.88.69,2.17.85,8.09,3.02.51-9.38,4.45-19.99.81-24.62-33.39-42.38-20.81-39.38-64.32-29.52Z"/>
  <path class="cls-1" d="m623.49,574.74c18.15-45.69,50.36-69.68,98.83-66.76,36.55,2.2,61.7,22.49,74.53,56.53,9,23.87,11.37,48.46,3.58,72.66-2.38.03-4.76.07-7.14.1.04-6.64-.12-13.29.14-19.93,1.34-34.2-5.46-65.6-35.69-85.99-47.05-31.74-108.73-5.69-123.84,51.31-1.63,6.15-3.72,12.18-9.65,18.59-3.43-6.1-6.91-12.18-10.29-18.31-28.07-50.92-93.33-61.3-131.5-20.02-24.77,26.79-23.87,58.99-15.1,91.95,1.61,6.05,2.62,12.25,4.35,20.48-15.4-8.54-23.53-38.62-20.03-68.86,4.17-36.06,22.76-62.38,57.67-73.71,47.56-15.44,85.31.55,114.14,41.97Z"/>
  <path class="cls-1" d="m493.05,705.98c4.93,4.16,7.91,6.19,10.31,8.76,38.3,41.02,85.38,69.13,135.5,92.97,8.14,3.87,13.91,3.7,21.23-2.09,43.54-34.43,83.11-72.35,111.55-120.72,1.98-3.36,6.56-5.2,9.93-7.74-.2,4.54,1.19,10-.83,13.48-30.62,52.72-73.99,93.6-122.43,129.48-3.62,2.68-11.41,2.78-15.83.83-53.68-23.7-103.59-53.28-144.78-95.9-2.54-2.63-5.51-5.35-6.7-8.6-.84-2.32.98-5.6,2.05-10.47Z"/>
  <path class="cls-1" d="m2171.83,1074.1c-8.18,4.27-12.29,7.27-16.89,8.67-23.89,7.3-48.02,13.83-71.82,21.41-10.97,3.5-16.52.77-19.57-10.42-6.41-23.53-13.9-46.76-20.27-70.29-1.41-5.19-1.89-14.93.38-16.03,7.55-3.67,19.42-8.79,24.53-5.48,34.19,22.13,67.05,46.3,103.64,72.14Zm-95.13,16.75c23.16-6.8,44.4-13.04,66.4-19.5-30.9-29.35-75.23-56.94-88.1-54.4,7.15,24.36,14.28,48.64,21.7,73.9Z"/>
  <path class="cls-1" d="m2160.55,1239.32c-28.37,8.01-56.27-7.51-64.34-35.8-8.02-28.1,7.5-56.47,35.4-64.74,28.16-8.34,58.18,8.3,65.88,36.52,7.59,27.82-8.7,56.05-36.95,64.03Zm24.13-61.51c-6.24-21.32-27.76-33.3-49.15-27.36-20.68,5.74-33.43,28.3-27.8,49.16,5.69,21.05,30.11,34.64,50.65,28.19,20.39-6.41,32.39-29.2,26.3-49.99Z"/>
  <path class="cls-1" d="m1999.29,1232.63c8.27,28.62-6.65,55.87-35.21,64.33-28.35,8.4-56.21-6.56-64.76-34.78-8.64-28.52,7.31-57.68,35.98-65.78,27.97-7.9,55.8,7.85,63.99,36.22Zm-11.48,2.52c-6.37-20.69-29-32.8-49.81-26.67-21.54,6.34-33.86,29.87-26.81,51.15,6.62,19.98,30.8,32.4,50.49,25.94,20.03-6.58,32.33-30.3,26.13-50.42Z"/>
  <path class="cls-1" d="m1061.75,95.04c1.22-10.3,2.29-20.61,3.68-30.89,2.86-21.1-2.59-29.46-23.62-33.65-25.83-5.15-51.76-9.81-77.71-14.27-23.69-4.07-30.51,1.58-36.31,25.04-2.32,9.4-8.43,17.86-12.82,26.75-.47-10.2-2.71-20.69-1.07-30.53,5.02-30.01,21.84-41.45,51.47-36.31,26.63,4.62,53.14,9.94,79.79,14.47,16.46,2.8,29.35,10.66,33.59,26.95,4.94,18.94.57,37.08-7.77,53.87-3.08-.48-6.15-.96-9.23-1.43Z"/>
  <path class="cls-1" d="m1692.05,121c-3.05-7.39-6.09-14.78-9.14-22.18-4.92,7.79-10.9,15.12-14.52,23.48-5.93,13.7-10.88,27.91-15.07,42.24-1.32,4.52,1.13,10.13,1.85,15.24,3.85-2.51,7.78-4.92,11.54-7.57,2.87-2.03,5.52-4.38,8.27-6.58,1.84,1.01,3.68,2.02,5.52,3.03-3.19,7.08-4.6,16.77-10.07,20.53-5.69,3.91-17.08,5.18-22.73,1.94-5.69-3.27-11.72-14.76-10.07-20.47,7.4-25.54,16.58-50.7,27.28-75.04,2.44-5.54,13.97-10.73,20.44-9.83,6.47.9,14.91,8.73,16.85,15.21,1.97,6.59-2.96,15.23-4.87,22.97-1.77-.99-3.53-1.98-5.3-2.97Z"/>
  <path class="cls-1" d="m1521.67,106.01c5.22,7.12,6.8,8.48,7.36,10.18,2.11,6.42,3.9,12.95,5.8,19.44,4.13-6.04,9.35-11.61,12.16-18.21,6.12-14.42,11.51-29.2,16.13-44.16,1.72-5.56.44-12.04.53-18.1-4.76,3.05-9.47,6.17-14.29,9.14-2.45,1.51-5.08,2.73-7.63,4.09-1.68-1.1-3.37-2.19-5.05-3.29,4.13-7.45,6.66-17.09,12.9-21.64,4.79-3.49,17.07-3.52,20.97.2,5.47,5.22,10.24,16.49,8.34,23.18-6.77,23.8-15.44,47.25-25.79,69.73-2.92,6.34-13.87,11.85-21.4,12.22-5.35.26-14.63-8-15.89-13.81-1.63-7.54,2.97-16.43,5.86-28.95Z"/>
  <path class="cls-1" d="m1267.52,1282.16c8.39,23.08,14.01,47.72,25.92,68.82,13.28,23.52,40.74,23.87,68.39,24.44-16.11,15.98-38.51,15.51-60.21,2.55-28.37-16.95-47.45-64.12-34.11-95.81Z"/>
  <path class="cls-1" d="m1898.07,1078.23c3.71,9,7.42,18,11.06,26.82,11.17-1.4,21.39-2.68,31.61-3.97l1.57,6.5c-9.15,4.03-18.3,8.07-28.44,12.53,1.6,10.32,3.22,20.8,4.84,31.28-2.24.84-4.47,1.68-6.71,2.52-4.65-9.49-9.29-18.98-14.32-29.25-9.57,1.81-19.23,3.63-28.9,5.45-1.02-1.9-2.04-3.79-3.07-5.69,8.94-4.93,17.89-9.86,27.6-15.21-1.07-9.74-2.21-20.14-3.35-30.53,2.7-.15,5.4-.31,8.1-.46Z"/>
  <path class="cls-1" d="m1361.33,1078.53c-2.55-6.73-5.5-13.33-7.57-20.2-4.26-14.13-6-29.44-12.52-42.38-9.83-19.49-28.05-28.25-49.9-29.22-6.78-.3-13.52-1.26-22.47-2.14,13.63-15.27,32.56-15.83,54.74-4.39,31.85,16.42,50.53,58.26,37.72,98.33Z"/>
  <path class="cls-1" d="m2012.05,1231.76c11.11-15.81,56.88-28.84,72.06-21.16-24.45,7.18-46.53,13.66-72.06,21.16Z"/>
  <path class="cls-1" d="m1841.06,1067.78c-5.08,3.04-10.17,6.08-15.94,9.54-.28,5.8-.59,12.25-.89,18.69-2.43.33-4.85.65-7.28.98-1.5-8.62-6.86-19.53-3.46-25.25,3.83-6.46,15.53-8.25,23.81-12.07,1.26,2.7,2.52,5.41,3.77,8.11Z"/>
  <path class="cls-1" d="m826.1,1203.48c-8.93-9.02-17.98-17.92-26.57-27.25-.76-.83.81-5.36,2.44-6.42,1.77-1.14,5.88-1.3,7.22-.04,8.7,8.17,16.93,16.84,25.31,25.35-2.8,2.78-5.6,5.57-8.4,8.35Z"/>
  <path class="cls-1" d="m846.39,1121.96c10.77,12.11,19.29,21.68,27.81,31.26-3.17,2.03-8.44,6.39-9.2,5.72-8.28-7.4-16.14-15.34-23.3-23.82-1.07-1.27,2.05-6.08,4.69-13.15Z"/>
  <path class="cls-1" d="m909.85,1119.84c-8.91-8.88-17.96-17.63-26.53-26.83-.87-.94.44-5.46,2.01-6.68,1.58-1.23,5.77-1.5,7.06-.3,8.76,8.18,17.06,16.87,25.51,25.39-2.68,2.81-5.36,5.62-8.05,8.43Z"/>
  <path class="cls-1" d="m979.25,316.27c-4.14,22.62-7.93,41.6-11,60.7-1.67,10.38-6.48,13.36-17.02,12.31-46.26-4.6-46.4-4.44-38.23-49.18,1.96-10.71,3.92-21.42,6.37-34.79-21.18-3.88-39.95-7.84-58.9-10.6-12.15-1.77-16.61-6.69-14.09-19.35,10.36-52.07,2.8-43.7,48.79-36.26,10.78,1.75,21.5,3.9,35.15,6.4,3.85-21.04,7.73-39.79,10.59-58.7,1.82-12.06,6.73-16.53,19.46-13.92,53.22,10.95,43.64,1.49,35.92,50.39-1.6,10.1-3.65,20.14-6.05,33.22,20.03,3.67,38.06,7.53,56.28,10.13,13.73,1.96,18.99,7.36,15.95,22.04-10.34,49.99-2.65,41.3-48.42,33.95-10.76-1.73-21.45-3.89-34.8-6.34Zm68.74-34.68c-18.91-3.46-35.72-7.73-52.78-9.35-18.94-1.8-23.08-10.52-18.3-27.65,3.52-12.6,4.49-25.89,7.42-38.68,2.47-10.82-1.92-14.92-12.08-16.73-10.28-1.84-17.42-1.42-19.13,11.33-1.92,14.38-5.73,28.5-7.55,42.89-1.78,14.13-7.88,18.96-22.22,15.59-18.51-4.36-37.41-7.09-55.93-10.48-2.22,12.13-3.78,20.62-5.73,31.29,19.62,3.59,37.75,7.57,56.09,10.07,14.47,1.98,18.42,8.6,15.18,22.55-4.29,18.5-7.07,37.35-10.39,55.47,12.25,2.24,20.74,3.8,30.95,5.67,3.49-19.04,7.45-36.51,9.7-54.21,1.91-15.03,8.21-20.35,23.42-16.77,17.96,4.23,36.3,6.87,55.59,10.4l5.75-31.37Z"/>
  <path class="cls-1" d="m778.35,394.54c-18.04,10.09-46.51,5.1-55.01-6.85-7.7-10.83-2.49-39.63,12.74-55.54.72,8.38,2.04,13.75,1.48,18.9-3.17,28.85-3.3,28.73,25.8,36.46,4.24,1.13,8.09,3.74,15,7.03Z"/>
  <path class="cls-1" d="m1171.9,224.41c.82-8.35.73-16.92,2.65-25,3.28-13.82-1.06-20.81-15.39-22.79-8.8-1.21-17.32-4.51-28.49-7.55,14.08-10.52,44.19-7.41,53.28,2.4,9.83,10.61,5.96,39.55-12.06,52.95Z"/>
  <path class="cls-1" d="m334.8,1124.21c-4.49,6-8.35,12.63-13.58,17.9-51.1,51.46-102.77,102.35-153.34,154.33-7.58,7.8-10.14,20.41-15.31,30.64-3.58,7.09-6.45,15.08-11.73,20.69-17.87,18.98-36.72,37.02-55.1,55.52-12.57,12.65-26.99,17.39-40.8,4.13-13.66-13.12-10.42-28.01,2.19-40.88,15.96-16.3,31.87-32.69,48.55-48.24,3.91-3.64,10.8-4.07,16.33-5.98-1.62,6.14-1.4,13.94-5.18,18.11-14.76,16.28-31.18,31.05-46.04,47.25-3.39,3.69-2.98,10.86-4.32,16.43,5.58-.91,13,.16,16.44-3.05,19.65-18.34,38.39-37.65,57.3-56.77,2.23-2.26,5.78-6.25,5.08-7.9-10.3-24.31,11.3-33.03,23.03-45.05,50.06-51.34,101.1-101.72,152.05-152.19,5.04-5,11.88-8.19,17.88-12.21,2.18,2.43,4.37,4.85,6.55,7.28Z"/>
  <path class="cls-1" d="m1734.11,423.82c-6.6-4.26-15.18-7.14-19.35-13.11-6.34-9.05-8.11-19.98.63-26.51,3.1,13.41,6.03,26.05,8.96,38.69,3.26.31,6.51.61,9.77.92Z"/>
  <path class="cls-1" d="m1754.23,369.59c4.39,8.25,10,15.53,11.95,23.69,1.11,4.62-3.78,10.67-5.96,16.07-2.31-4.32-4.44-8.76-6.99-12.93-2.91-4.75-6.57-9.07-9.17-13.97-1.54-2.91-3.34-7.86-2.02-9.56,1.68-2.15,6.4-1.93,12.2-3.3Z"/>
  <path class="cls-1" d="m1416.52,1307.2c3.7-4.77,6.73-10.31,11.21-14.18,55.33-47.86,110.77-95.59,166.57-142.91,4.16-3.53,11.26-3.61,16.99-5.29-2.65,5.35-3.99,12.22-8.15,15.83-54.77,47.48-109.88,94.57-165.13,141.49-4.99,4.24-11.56,6.62-17.4,9.87-1.36-1.6-2.73-3.2-4.09-4.81Z"/>
  <path class="cls-1" d="m2171.96,1173.91c-1.81,7.51-2.55,10.6-3.29,13.68-2.99-.84-6.16-1.31-8.93-2.6-5.93-2.77-11.78-5.77-17.42-9.08-2.64-1.55-4.72-4.06-7.05-6.14,2.36-2.2,5.36-6.67,6.98-6.21,9.89,2.76,19.47,6.64,29.72,10.35Z"/>
  <path class="cls-1" d="m1971.04,1248.28c-3.91-2.55-6.06-4.18-8.4-5.43-5.79-3.09-11.8-5.81-17.48-9.09-2.65-1.53-5.42-3.67-6.72-6.25-.47-.93,2.81-4.85,5.07-5.86,9.56-4.29,27.62,5.36,29.64,15.9.53,2.77-1.1,5.95-2.12,10.73Z"/>
  <rect class="cls-2" x="27.23" y="676.19" width="120.81" height="74.55"/>
</svg>