<?xml version="1.0" encoding="utf-8"?>
<!-- Generator: Adobe Illustrator 27.2.0, SVG Export Plug-In . SVG Version: 6.00 Build 0)  -->
<svg version="1.1" id="Capa_1" xmlns="http://www.w3.org/2000/svg" xmlns:xlink="http://www.w3.org/1999/xlink" x="0px" y="0px"
	 viewBox="0 0 2291.3 1451.5" style="enable-background:new 0 0 2291.3 1451.5;" xml:space="preserve">
<style type="text/css">
	.st0{display:none;fill:#EF2929;}
	.st1{fill:#FFFFFF;}
	.st2{display:none;fill:#FFFFFF;}
</style>
<rect y="0" class="st0" width="2291.3" height="1451.5"/>
<path class="st1" d="M1968,397.9c6.5-2.4,11.4-4.6,16.4-6c50.5-14,101.2-27.6,151.5-42.1c12.2-3.5,17.9-1,20.4,11.7
	c2.5,12.7,7.5,24.9,9.8,37.6c1,5.7-1,12.6-3.6,18c-4.2,8.9,1.7,23.3,11.8,24.6c20.8,2.6,32.9,14.3,38.4,34.1
	c17.6,64.1,35.5,128.2,52.9,192.3c6.7,24.7-3.8,44.7-28.4,52c-49.8,14.6-99.8,28.4-150,41.6c-25.4,6.7-44.6-5.2-51.9-31
	c-18-64-35.4-128.2-53.2-192.3c-5.4-19.3-1.1-34.9,14.7-47.6c9.8-7.8,6.8-21.8-5-27.6c-2.9-1.5-6.6-4-7.4-6.8
	C1978.6,437.3,1973.6,418.1,1968,397.9L1968,397.9z M2073,468.9c0.7,2.2,1.4,4.5,2.1,6.7c-4.8,2.3-9.4,5.3-14.5,6.9
	c-15,4.5-30.3,8.1-45.2,12.8c-20.6,6.4-28.5,20.3-22.8,41.1c17.3,63.6,34.9,127.1,52.6,190.6c5.8,20.6,20.2,29,40.8,23.5
	c48-12.8,96-25.9,143.8-39.5c25-7.1,32.2-24.4,21-49.9c-5.4,1.2-11.1,2.2-16.7,3.8c-25,6.8-50.2,13-74.9,21.1
	c-14.1,4.6-18.9,0.3-22.2-13.1c-8.4-33.5-18.1-66.7-27.3-100c-7-25.2,2.1-41.2,27.2-48.2c23.7-6.5,47.4-13.1,70.7-19.5
	c-4.6-45.4-24.2-62.1-60.2-46.6c-3.7,1.6-9-0.2-13.5-0.5c-0.3-1.6-0.6-3.3-0.8-4.9c6.8-3.3,13.5-6.5,20-9.6
	c-2.6-23.1-3.1-23.5-23.1-18c-25.5,7-51,14.1-76.6,21.1c-14.4,4-28.8,8-43.3,11.9c2.5,9.2,4.4,16.1,7.1,25.8
	C2036.6,478.9,2054.8,473.9,2073,468.9L2073,468.9z M2113,543.5c11.8,42.9,23,84,34.8,124.9c0.8,2.8,6.4,6.9,8.8,6.3
	c30.7-7.9,61.2-16.5,91.7-24.9c-12.6-45.8-24.6-89.3-36.8-133.5C2178.6,525.4,2147,534.1,2113,543.5L2113,543.5z M1994.6,450.2
	c54.5-15.1,107.7-29.7,160.8-44.4c-4.3-15.7-8.3-29.9-12.4-44.9c-54.1,14.9-106.8,29.5-160.8,44.4
	C1986.4,420.5,1990.3,434.8,1994.6,450.2L1994.6,450.2z"/>
<path class="st2" d="M746.6,1364.2c10,13,17,21.9,23.8,30.8c-1.5,1.5-3,3-4.5,4.5c-23.8-8-34.3-33.4-56.3-46.9
	c-9.2,9.7-18.8,19.6-28.1,29.3c0.5,1.9,0.6,3.2,1.2,4.3c3.8,7.5,7.6,14.9,11.5,22.4c-7.3-4.1-15.7-6.9-21.6-12.4
	c-18-16.8-35.3-34.2-52-52.2c-4-4.3-5-11.5-7.3-17.4c5.5,2.3,11,4.4,16.3,7.1c2.8,1.5,5,4.1,8,6.6c10.1-10.3,19.7-20.1,30.5-31
	c-16-16.7-32.4-34-48.8-51.2c2-2.4,4-4.8,6-7.2c9.5,6.9,18.9,13.7,31.5,22.8c35.2-36,70.7-72.6,106.6-108.8
	c44.4-44.8,88.8-89.6,133.9-133.7c5.8-5.7,16.7-10.8,24-9.4c53.4,9.9,91.3-13,122.6-53.5c7.8-10,18.9-17.4,28.6-26
	c2,1.8,3.9,3.6,5.9,5.5c-2.8,4.4-4.9,9.5-8.4,13.2c-11.4,12.1-22,25.4-35.2,35.1c-29.9,21.9-40.5,50.4-34.6,86.1
	c3.8,23-5.7,39.2-22.2,55.4c-72.2,70.6-143,142.5-214.5,213.7C758.7,1356,752.8,1359.5,746.6,1364.2L746.6,1364.2z M928.9,1036.4
	c7.3,7.8,12.4,12.1,15.9,17.3c2.9,4.3,3.8,9.9,5.6,14.9c-5-1.5-11.5-1.5-14.6-4.7c-8-8.6-14.6-18.6-19.4-25
	c-54.9,54.2-105,103.7-155.2,153.2c22.5,22.6,45.9,45.9,67.7,67.8c50.1-49.8,100.2-99.7,150.5-149.7c-4.4-6.3-9.6-13.8-17.4-25
	c11.2,0.9,16.9,1.3,22.3,1.7v-50.7L928.9,1036.4L928.9,1036.4z M804,1257.3c-20.5,21-39.6,41.2-59.5,60.6c-4,3.9-10.7,5.1-16.2,7.5
	c2.2-5.9,2.8-13.4,6.8-17.6c19.2-20,39.3-39.1,60.2-59.6c-8-8.5-14-14.9-21.8-23.2c-21,21.5-39.7,41.2-59.1,60.2
	c-4.5,4.3-11.7,5.9-17.6,8.8c2.8-6.4,4-14.3,8.6-19c18.7-19.5,38.4-38,57.3-56.4c-5.4-7.9-9.1-13.3-11.2-16.4
	c-30.1,29.4-57.9,56.6-82.1,80.3c22.9,24.2,45.9,48.6,66.8,70.7c27.1-27,54.3-54,83.1-82.7C816,1267.5,811.6,1263.7,804,1257.3z
	 M667.4,1372c12.2-11.5,22.1-20.8,31.6-29.7c-6.4-8.1-12-15.2-16.3-20.6c-12.6,11.8-22.6,21.1-34.2,31.9
	C655.2,1360.1,661.2,1365.9,667.4,1372z"/>
<path class="st1" d="M1225.5,924.5c-50.1-9.2-100.2-18.2-150.2-27.6c-32-6-45.9-25.7-40.1-58c12-67,24.3-134,36.8-200.9
	c6-32,26.3-46.3,58-40.6c100.8,18.2,201.5,36.7,302.2,55.4c32,5.9,45.6,26,39.8,58.4c-12,67-24.3,134-36.8,200.9
	c-6.3,33.4-25.5,46.1-59.4,39.9C1325.7,942.9,1275.6,933.7,1225.5,924.5L1225.5,924.5z M1279.9,637.4c-49.5-9.1-99-18.2-148.5-27.2
	c-29.4-5.3-42.1,3.1-47.4,31.9c-12.2,65.8-24.2,131.6-36.2,197.5c-5.1,28.4,4.1,41.7,33,47c98.4,18.1,196.9,36.2,295.4,54.1
	c28.6,5.2,42.4-4.2,47.6-32.3c12.2-65.8,24.2-131.6,36.2-197.5c5.1-27.9-3.9-41.1-31.5-46.3C1378.9,655.4,1329.4,646.4,1279.9,637.4
	L1279.9,637.4z"/>
<path class="st1" d="M517.7,874.2c28.5,1,51.5,15.6,64.3,44c12.6,27.8,9.4,55.9-11.8,77.7c-60.4,62.3-122.1,123.2-183.8,184.1
	c-3.8,3.8-12.5,5.4-18,4.1c-19.6-4.6-33.4,1.6-46.4,16.7c-15.6,18-33.4,34.2-50.5,50.9c-19.3,18.9-44.6,19.7-62.4,2.4
	c-17.9-17.4-17-44,2.4-63.7c16.8-17,32.8-34.9,50.9-50.5c14.6-12.6,20.2-25.8,16.5-45c-1.4-7,2.5-17.7,7.8-23
	c57.3-58.3,115.4-115.7,173.1-173.6C475.2,882.9,493.1,874.3,517.7,874.2L517.7,874.2z M321,1055.7c-20.5,16.6-37.7,30-29.2,57.4
	c1.8,5.8-3.2,15.9-8.1,21.2c-19.7,21.1-40.7,41.1-61,61.6c-17.1,17.2-18.9,36.2-5.1,49.8c13.6,13.4,32.6,11.2,49.9-5.9
	c18.6-18.4,38-36.1,55.1-55.8c11.1-12.8,22.9-16.3,38.1-12.2c11.5,3.1,19.7-0.5,27.9-9.1c19.5-20.6,40-40.2,60-60.3
	c37-37,74.3-73.6,110.7-111.2c22.2-22.8,23.4-56.5,4.9-81c-17.5-23.2-51.2-32.9-76-17.3c-21,13.2-38.2,32.4-57.6,49.4
	c7.8,8.2,13.1,13.2,17.6,18.7c1.4,1.7,0.7,5,0.9,7.6c-3,0.1-6.9,1.4-8.8-0.1c-6-4.7-11.3-10.3-16.5-15.2c-9.3,8.6-17.8,16.3-26.1,24
	c6.5,9.1,12.3,17.1,18,25c-1.8,1.5-3.6,3-5.4,4.5c-7.4-6-14.8-12.1-22.9-18.7c-8.1,8.6-15.9,17-23.9,25.7
	c5.7,7.4,11.6,15.1,17.6,22.7c-1.6,1.6-3.2,3.2-4.7,4.8c-7.8-5.8-15.5-11.5-24.4-18.1c-8,8.3-16,16.5-27.8,28.7
	c6.3,4.3,12.7,7.9,18,12.8c1.8,1.7,0.8,6.4,1.1,9.8c-2.9-0.5-7,0-8.6-1.7C329.6,1067.7,325.6,1061.6,321,1055.7L321,1055.7z"/>
<path class="st1" d="M610,616.6c-4.9-3-8.8-5.4-12.7-7.7c-43.4-25.5-63.8-78.7-48-126.2c7.4-22.1,15.3-44,23.8-65.7
	c7.8-20.1,28.3-31.7,48.3-27.9c4.5,0.8,8.6,3.5,12.8,5.3c-0.2,1.6-0.5,3.1-0.7,4.7c-3.4,0.3-6.9,1.2-10.2,0.8
	c-21.9-2.2-34.3,5-42.2,25.6c-7.2,18.8-14.4,37.7-20.9,56.8c-17.4,51.5,8.1,105.7,58.1,124.5c49.7,18.7,103.6-4.4,124.6-54.1
	c8.7-20.5,16-41.5,23.1-62.6c6.2-18.4,0.9-31.7-14.8-43.2c-3-2.2-4.6-6.4-6.9-9.7c4.2,0.3,9-0.5,12.5,1.2
	c17.8,9,27.3,31.5,20.7,51.8c-7.9,24.1-16.1,48.2-26.4,71.3c-19.6,43.9-67.9,69.6-114.7,61c-13.8-2.5-17.9,1.8-21.8,13.5
	c-14,42.3,5.3,86.6,45.6,102.6c41.2,16.4,86.6-2.6,104.7-43.6c3.8-8.7,5-15-4.1-22.5c-17.5-14.4-19.7-38.2-7.8-57.8
	c10.9-17.9,34.3-25.8,54.4-18.4c20,7.5,32.2,28.4,28.9,49.6c-3.4,21.9-21.1,38.4-43.9,38.5c-9.8,0-13.3,3.6-16.6,11.9
	c-19.1,47.9-69.7,70.7-116.9,53.4c-47.7-17.5-71.5-69.1-54.4-118C606.3,626.9,608.1,622.1,610,616.6L610,616.6z M802.6,606.4
	c-18-6.2-38,3.3-44.2,21c-6.1,17.3,3.8,38.3,20.9,44.6c17.7,6.5,39.7-4,45.4-21.8C830.4,632.1,820.6,612.7,802.6,606.4L802.6,606.4z
	"/>
<path class="st1" d="M1836.8,933.4c-5.2-51.9-1.3-64.8,20.5-70.6c20.4-5.4,28.4,1.8,51.8,46.9c2.1,0.1,4.9,1,6.6,0.1
	c37-20.8,64.9-2.8,93.8,19.3c38.3,29.4,78.7,56.1,117.6,84.7c7.2,5.3,14.5,13,17.3,21.1c10.1,30,19.3,60.4,27,91.1
	c8,31.7-8.8,54.5-37,51.7c0-2.2-0.8-5.9,0.2-6.4c30.9-16.3,18.9-40.1,14.7-65.5c-9-54.3-37.6-91.1-84.8-117.5
	c-27.5-15.4-53.1-34.8-77.6-54.8c-19.2-15.7-36.8-19.5-60.5-10.6c-29.5,11.1-29.2,9-39.9-19.2c-3.6-9.5-13.7-16.5-20.9-24.7
	c-5.7,5.5-16.2,11.3-16,16.6c0.5,11.8-2.2,28.6,18,30.3c2.3,0.2,4.4,3.6,10,8.6c-10.7,4.5-18.6,8.8-26.9,11.2
	c-76.7,22.8-153.6,45.1-230.3,67.9c-36.6,10.9-43.8,24.7-33,61.9c17.8,60.8,35.6,121.7,53.5,182.5c10.4,35.5,12.2,36.9,50.6,40.7
	c3.1,0.3,6.2,1,9.3,1.5c-0.1,2.8-0.2,5.6-0.3,8.4c-7.8,2.3-15.7,6.5-23.5,6.5c-22.8,0-40.8-15.4-48.7-41.7
	c-20.1-66.8-39.8-133.7-58.9-200.7c-10.6-37.2,3.2-61.4,40.5-72.5c67.6-20.1,135.3-39.8,203-59.7
	C1821,938,1829.1,935.6,1836.8,933.4L1836.8,933.4z"/>
<path class="st2" d="M1395.7,1102.7c-2.1-5.8-4.9-11.5-6.2-17.5c-4-19.2-6.9-38.7-11.2-57.9c-10.9-48-55.8-77.9-103.7-69.8
	c-48.2,8.1-81.2,51.2-74.1,100.2c6.3,43.5,15.8,86.5,24.7,133.8c42.2-7.9,83.3-15.6,124.3-23.3c0.6,2.8,1.2,5.7,1.9,8.5
	c-17.5,11.3-39.3,10.1-58.9,14.7c-20.9,4.9-42.2,8.1-63.6,12.1c9.3,49.9,13.9,98.4,28,143.9c18.2,58.8,94.3,75,142.6,34.5
	c5.6-4.7,11.9-8.4,17.8-12.6c1.8,1.7,3.6,3.5,5.3,5.2c-4.7,6.2-8.6,13.4-14.4,18.5c-56.5,50.1-151.5,24.1-168.3-49.7
	c-21.7-95.1-38.3-191.4-54.2-287.6c-8.2-50.1,28.7-98.1,78.9-110.7c49-12.3,102.5,12.4,120.3,59.5c10.4,27.6,14,57.7,20.1,86.8
	c0.7,3.1-2.1,7-3.3,10.5C1399.7,1102.1,1397.7,1102.4,1395.7,1102.7L1395.7,1102.7z"/>
<path class="st1" d="M382.2,409c3.9-2.3,7.6-5.2,11.7-6.9c83.2-33.3,127.2-120.6,102.6-204.2C471.5,113.1,388.7,62.7,301.2,79
	c-72.8,13.6-128,76.5-134.9,153.5c-0.3,3,0.4,6.3-0.6,9c-0.9,2.2-3.8,3.6-5.8,5.4c-1.4-1.8-3.9-3.6-4-5.5c-0.4-5.5,0-11.1,0.5-16.6
	c8.8-88.2,81.6-154.9,173.7-159.2c84.8-4,163.1,58.8,180.4,144.5c17,84.4-32,172.4-112.5,202c-4.4,1.6-9.5,1.6-14.3,2.3
	C383.2,412.5,382.7,410.8,382.2,409z"/>
<path class="st2" d="M1670,1198.2c15.8,85-40.2,167.7-124.2,183.3c-87.7,16.3-170.3-39.5-186.2-125.7
	c-15.7-85,41.5-168.3,126.6-184.2C1571.4,1055.8,1654.1,1112.7,1670,1198.2L1670,1198.2z M1655.6,1200.6
	c-14.9-78.8-88.5-129.1-167.2-114.3c-78.2,14.7-129,89.1-114.2,167.4c14.7,78.2,89.5,129.2,167.4,114.3
	C1620.1,1353,1670.5,1279,1655.6,1200.6L1655.6,1200.6z"/>
<path class="st1" d="M1629.1,357.5c7.7-34.8,14.6-66.4,21.6-97.9c2.4,0,4.8,0,7.2,0c13.4,42,26.8,83.9,40.2,125.9
	c1,0,2.1,0.1,3.1,0.1c2.7-10.8,4.8-21.9,8.4-32.4c1.6-4.6,6.1-10.8,10.1-11.4c27-3.9,54.2-6.7,81.3-9.4c2.3-0.2,5,2.1,7.6,6.9
	c-4.5,1.2-9,3-13.6,3.6c-19.8,2.5-39.6,5.2-59.5,6.6c-10.6,0.8-15.9,4.3-17.7,15.3c-2.3,13.9-6.4,27.6-10.1,41.2
	c-1.2,4.5-3.7,8.7-5.5,13c-1.8,0-3.5,0-5.3,0c-13.1-41.5-26.1-83.1-39.2-124.6l-3.5-0.2c-6.1,28.4-12.2,56.8-18.3,85.2
	c-1.6,0.2-3.2,0.5-4.8,0.7c-6.2-7.8-12.3-15.6-19.9-25.1c-8.6,23-16.5,44.2-24.4,65.4c-2,0.2-4,0.4-6,0.6
	c-11.6-27.3-23.1-54.6-35.4-83.5c-1.8,3.2-3.1,4.8-3.6,6.7c-5.3,19-17.6,29.6-36.9,31.8c-17.2,2-34.4,4.1-51.7,5.8
	c-4.5,0.4-9.2-0.6-13.8-1c-0.2-1.7-0.3-3.4-0.5-5c4.5-1.4,8.9-3.4,13.4-4c19.8-2.5,39.6-5.2,59.5-6.6c10.7-0.8,15.7-4.7,17.4-15.5
	c2.3-14,6.5-27.7,9.9-41.5c2.1-0.2,4.1-0.3,6.2-0.5c12,29.1,24.1,58.1,37.5,90.5c9-23.2,16.6-42.9,25.5-65.9
	C1616.1,341.5,1621.5,348.1,1629.1,357.5L1629.1,357.5z"/>
<path class="st1" d="M309,225.6c-2.9-19.2-5.1-36.2-8.2-52.9c-1.8-9.7,1.4-13.7,11-15.1c38.7-5.8,30.1-6.3,35.6,24.5
	c2,11.4,3.5,22.8,5.7,36.9c17-2.6,33.3-4.3,49.3-7.7c12.6-2.7,18.2,0.1,19.8,13.9c3.7,32.3,7.4,26.8-23.9,31.9
	c-11.9,2-23.8,3.7-38.4,5.9c2.6,17.1,4.3,33.4,7.8,49.4c2.7,12.7-0.3,18.1-14,19.7c-32.2,3.7-26.7,7.5-31.9-24
	c-2-11.9-3.7-23.8-5.9-38.4c-17.4,2.7-34.3,4.5-50.8,8c-11.8,2.4-16.1-1-17.6-13c-4.2-33.5-8-27.7,24.1-33.2
	C283.2,229.3,295.1,227.7,309,225.6L309,225.6z M409.6,221.3c-17.4,2.7-33.9,4.5-50.1,7.9c-11.9,2.5-16.4-1.3-17.7-13.1
	c-1.8-16.8-4.9-33.5-7.5-50.4c-8.8,1.3-15,2.3-22.8,3.5c2.5,16.4,4,31.9,7.4,47c3.1,13.9-0.2,20.4-15.3,21.5
	c-15.9,1.2-31.6,4.5-47.5,7l3.5,23.1c12.8-1.9,24.2-3.8,35.6-5.4c34.5-4.9,28.8-8.2,34.2,24.5c2,11.8,3.6,23.7,5.5,36.2l22.9-3.5
	c-2-13.1-3.9-25-5.6-36.9c-4.6-31.9-8-27.5,23.2-32.5c12.3-2,24.6-3.8,37.7-5.8C411.9,236,410.9,229.4,409.6,221.3L409.6,221.3z"/>
<path class="st1" d="M222.2,333.7c20.2,14.9,40,29.6,58.4,43.2c4.6-2.3,5.7-2.5,6.4-3.2c19.3-20.9,19.3-21.1,48.4-9.5
	c8.2,3.3,20,6.1,22.8,12.5c5.2,11.5,5.6,25.4,6.4,38.4c0.1,2.3-7.5,7.1-11.9,7.4c-61.9,5-113.8-15.5-154.8-62.3
	c-20-22.8-32-49.7-38.7-79.2c-2.4-10.8,0.5-14.2,11.4-17.4c23.5-6.7,40.8-1.8,52.9,19.9c1.7,3,4,5.9,6.6,8.2
	c9.7,8.9,9.6,17.7,1.1,27.4C228.4,322.4,226.5,326.6,222.2,333.7L222.2,333.7z M170.2,275.9c12.9,92.1,112.3,150.3,182.5,133.9
	c1-27.4-2.2-31.6-37.2-41.7c-5-1.4-11.8,3.8-18.6,6.2c4.3,6.7,6.5,10,11.2,17.2c-9.3-1.5-14.6-1.8-19.4-3.3
	c-35.4-11.5-63.3-33-82.5-64.9c-2.5-4.2-2-10.3-2.8-15.5c3.9,3.1,7.7,6.3,11.6,9.4c0.7,0.6,1.8,0.7,6.5,2.4
	c0.4-7.6,3.6-16.1,0.7-19.9C195.1,265.6,205.3,268,170.2,275.9L170.2,275.9z"/>
<path class="st1" d="M1612.6,258c18.2-45.7,50.4-69.7,98.8-66.8c36.5,2.2,61.7,22.5,74.5,56.5c9,23.9,11.4,48.5,3.6,72.7
	c-2.4,0-4.8,0.1-7.1,0.1c0-6.6-0.1-13.3,0.1-19.9c1.3-34.2-5.5-65.6-35.7-86c-47-31.7-108.7-5.7-123.8,51.3
	c-1.6,6.2-3.7,12.2-9.7,18.6c-3.4-6.1-6.9-12.2-10.3-18.3c-28.1-50.9-93.3-61.3-131.5-20c-24.8,26.8-23.9,59-15.1,92
	c1.6,6,2.6,12.2,4.4,20.5c-15.4-8.5-23.5-38.6-20-68.9c4.2-36.1,22.8-62.4,57.7-73.7C1546,200.6,1583.8,216.6,1612.6,258L1612.6,258
	z"/>
<path class="st1" d="M1482.2,389.2c4.9,4.2,7.9,6.2,10.3,8.8c38.3,41,85.4,69.1,135.5,93c8.1,3.9,13.9,3.7,21.2-2.1
	c43.5-34.4,83.1-72.3,111.6-120.7c2-3.4,6.6-5.2,9.9-7.7c-0.2,4.5,1.2,10-0.8,13.5c-30.6,52.7-74,93.6-122.4,129.5
	c-3.6,2.7-11.4,2.8-15.8,0.8c-53.7-23.7-103.6-53.3-144.8-95.9c-2.5-2.6-5.5-5.3-6.7-8.6C1479.3,397.4,1481.1,394.1,1482.2,389.2
	L1482.2,389.2z"/>
<path class="st1" d="M2081.1,1048.5c-10.9,5.7-16.3,9.7-22.5,11.5c-31.8,9.7-63.9,18.4-95.5,28.5c-14.6,4.7-22,1-26-13.9
	c-8.5-31.3-18.5-62.2-27-93.5c-1.9-6.9-2.5-19.9,0.5-21.3c10-4.9,25.8-11.7,32.6-7.3C1988.8,982,2032.5,1014.1,2081.1,1048.5
	L2081.1,1048.5z M1954.6,1070.7c30.8-9,59-17.3,88.3-25.9c-41.1-39-100-75.7-117.1-72.3C1935.3,1004.9,1944.8,1037.1,1954.6,1070.7
	L1954.6,1070.7z"/>
<path class="st1" d="M2066.1,1268.2c-37.7,10.7-74.8-10-85.6-47.6c-10.7-37.4,10-75.1,47.1-86.1c37.4-11.1,77.4,11,87.6,48.6
	C2125.3,1220,2103.7,1257.6,2066.1,1268.2L2066.1,1268.2z M2098.2,1186.4c-8.3-28.3-36.9-44.3-65.4-36.4
	c-27.5,7.6-44.5,37.6-37,65.4c7.6,28,40,46.1,67.4,37.5C2090.4,1244.3,2106.3,1214,2098.2,1186.4z"/>
<path class="st1" d="M1851.7,1259.3c11,38.1-8.8,74.3-46.8,85.5c-37.7,11.2-74.7-8.7-86.1-46.2c-11.5-37.9,9.7-76.7,47.8-87.5
	C1803.8,1200.6,1840.8,1221.5,1851.7,1259.3L1851.7,1259.3z M1836.4,1262.6c-8.5-27.5-38.6-43.6-66.2-35.5
	c-28.6,8.4-45,39.7-35.7,68c8.8,26.6,41,43.1,67.1,34.5C1828.3,1320.9,1844.7,1289.4,1836.4,1262.6L1836.4,1262.6z"/>
<path class="st1" d="M1342.2,621.7c1-8.5,1.9-17,3-25.5c2.4-17.4-2.1-24.3-19.5-27.8c-21.3-4.3-42.7-8.1-64.2-11.8
	c-19.6-3.4-25.2,1.3-30,20.7c-1.9,7.8-7,14.7-10.6,22.1c-0.4-8.4-2.2-17.1-0.9-25.2c4.1-24.8,18-34.2,42.5-30
	c22,3.8,43.9,8.2,65.9,11.9c13.6,2.3,24.2,8.8,27.7,22.3c4.1,15.6,0.5,30.6-6.4,44.5C1347.2,622.5,1344.7,622.1,1342.2,621.7z"/>
<path class="st1" d="M754.4,420.8c-2.4-5.9-4.8-11.7-7.2-17.6c-3.9,6.2-8.6,12-11.5,18.6c-4.7,10.8-8.6,22.1-11.9,33.4
	c-1,3.6,0.9,8,1.5,12.1c3-2,6.2-3.9,9.1-6c2.3-1.6,4.4-3.5,6.5-5.2c1.5,0.8,2.9,1.6,4.4,2.4c-2.5,5.6-3.6,13.3-8,16.3
	c-4.5,3.1-13.5,4.1-18,1.5c-4.5-2.6-9.3-11.7-8-16.2c5.9-20.2,13.1-40.1,21.6-59.4c1.9-4.4,11.1-8.5,16.2-7.8
	c5.1,0.7,11.8,6.9,13.3,12c1.6,5.2-2.3,12.1-3.9,18.2C757.2,422.4,755.8,421.6,754.4,420.8L754.4,420.8z"/>
<path class="st1" d="M619.5,409c4.1,5.6,5.4,6.7,5.8,8.1c1.7,5.1,3.1,10.3,4.6,15.4c3.3-4.8,7.4-9.2,9.6-14.4
	c4.8-11.4,9.1-23.1,12.8-35c1.4-4.4,0.3-9.5,0.4-14.3c-3.8,2.4-7.5,4.9-11.3,7.2c-1.9,1.2-4,2.2-6,3.2c-1.3-0.9-2.7-1.7-4-2.6
	c3.3-5.9,5.3-13.5,10.2-17.1c3.8-2.8,13.5-2.8,16.6,0.2c4.3,4.1,8.1,13.1,6.6,18.4c-5.4,18.8-12.2,37.4-20.4,55.2
	c-2.3,5-11,9.4-16.9,9.7c-4.2,0.2-11.6-6.3-12.6-10.9C613.5,425.9,617.2,418.9,619.5,409L619.5,409z"/>
<path class="st2" d="M1267.5,1282.2c8.4,23.1,14,47.7,25.9,68.8c13.3,23.5,40.7,23.9,68.4,24.4c-16.1,16-38.5,15.5-60.2,2.6
	C1273.3,1361,1254.2,1313.8,1267.5,1282.2L1267.5,1282.2z"/>
<path class="st1" d="M1717.1,1054c4.9,12,9.9,23.9,14.7,35.7c14.9-1.9,28.4-3.6,42-5.3c0.7,2.9,1.4,5.8,2.1,8.6
	c-12.2,5.4-24.3,10.7-37.8,16.7c2.1,13.7,4.3,27.7,6.4,41.6c-3,1.1-5.9,2.2-8.9,3.4c-6.2-12.6-12.4-25.2-19-38.9
	c-12.7,2.4-25.6,4.8-38.4,7.2c-1.4-2.5-2.7-5-4.1-7.6c11.9-6.6,23.8-13.1,36.7-20.2c-1.4-13-2.9-26.8-4.5-40.6
	C1709.9,1054.4,1713.5,1054.1,1717.1,1054L1717.1,1054z"/>
<path class="st2" d="M1361.3,1078.5c-2.6-6.7-5.5-13.3-7.6-20.2c-4.3-14.1-6-29.4-12.5-42.4c-9.8-19.5-28.1-28.2-49.9-29.2
	c-6.8-0.3-13.5-1.3-22.5-2.1c13.6-15.3,32.6-15.8,54.7-4.4C1355.5,996.6,1374.1,1038.5,1361.3,1078.5z"/>
<path class="st1" d="M1868.7,1258.1c14.8-21,75.6-38.3,95.8-28.1C1932,1239.5,1902.6,1248.1,1868.7,1258.1z"/>
<path class="st1" d="M1641.3,1040.1c-6.8,4-13.5,8.1-21.2,12.7c-0.4,7.7-0.8,16.3-1.2,24.9c-3.2,0.4-6.4,0.9-9.7,1.3
	c-2-11.5-9.1-26-4.6-33.6c5.1-8.6,20.7-11,31.7-16C1638,1032.9,1639.6,1036.5,1641.3,1040.1L1641.3,1040.1z"/>
<path class="st2" d="M826.1,1203.5c-8.9-9-18-17.9-26.6-27.2c-0.8-0.8,0.8-5.4,2.4-6.4c1.8-1.1,5.9-1.3,7.2,0
	c8.7,8.2,16.9,16.8,25.3,25.3C831.7,1197.9,828.9,1200.7,826.1,1203.5L826.1,1203.5z"/>
<path class="st2" d="M846.4,1122c10.8,12.1,19.3,21.7,27.8,31.3c-3.2,2-8.4,6.4-9.2,5.7c-8.3-7.4-16.1-15.3-23.3-23.8
	C840.6,1133.8,843.8,1129,846.4,1122L846.4,1122z"/>
<path class="st2" d="M909.8,1119.8c-8.9-8.9-18-17.6-26.5-26.8c-0.9-0.9,0.4-5.5,2-6.7c1.6-1.2,5.8-1.5,7.1-0.3
	c8.8,8.2,17.1,16.9,25.5,25.4C915.2,1114.2,912.5,1117,909.8,1119.8L909.8,1119.8z"/>
<path class="st1" d="M1274,804.4c-3.4,18.7-6.5,34.4-9.1,50.1c-1.4,8.6-5.4,11-14.1,10.2c-38.2-3.8-38.3-3.7-31.6-40.6
	c1.6-8.8,3.2-17.7,5.3-28.7c-17.5-3.2-33-6.5-48.6-8.8c-10-1.5-13.7-5.5-11.6-16c8.6-43,2.3-36.1,40.3-29.9c8.9,1.4,17.8,3.2,29,5.3
	c3.2-17.4,6.4-32.9,8.7-48.5c1.5-10,5.6-13.6,16.1-11.5c43.9,9,36,1.2,29.7,41.6c-1.3,8.3-3,16.6-5,27.4c16.5,3,31.4,6.2,46.5,8.4
	c11.3,1.6,15.7,6.1,13.2,18.2c-8.5,41.3-2.2,34.1-40,28C1293.9,808.2,1285.1,806.4,1274,804.4L1274,804.4z M1330.8,775.8
	c-15.6-2.9-29.5-6.4-43.6-7.7c-15.6-1.5-19.1-8.7-15.1-22.8c2.9-10.4,3.7-21.4,6.1-31.9c2-8.9-1.6-12.3-10-13.8
	c-8.5-1.5-14.4-1.2-15.8,9.4c-1.6,11.9-4.7,23.5-6.2,35.4c-1.5,11.7-6.5,15.7-18.3,12.9c-15.3-3.6-30.9-5.9-46.2-8.7
	c-1.8,10-3.1,17-4.7,25.8c16.2,3,31.2,6.3,46.3,8.3c11.9,1.6,15.2,7.1,12.5,18.6c-3.5,15.3-5.8,30.8-8.6,45.8
	c10.1,1.8,17.1,3.1,25.6,4.7c2.9-15.7,6.2-30.1,8-44.8c1.6-12.4,6.8-16.8,19.3-13.8c14.8,3.5,30,5.7,45.9,8.6
	C1327.7,792.4,1329,785.4,1330.8,775.8L1330.8,775.8z"/>
<path class="st1" d="M1108.1,869c-14.9,8.3-38.4,4.2-45.4-5.7c-6.4-8.9-2.1-32.7,10.5-45.9c0.6,6.9,1.7,11.4,1.2,15.6
	c-2.6,23.8-2.7,23.7,21.3,30.1C1099.3,864.1,1102.4,866.3,1108.1,869L1108.1,869z"/>
<path class="st1" d="M1433.1,728.5c0.7-6.9,0.6-14,2.2-20.6c2.7-11.4-0.9-17.2-12.7-18.8c-7.3-1-14.3-3.7-23.5-6.2
	c11.6-8.7,36.5-6.1,44,2C1451.2,693.6,1448,717.5,1433.1,728.5L1433.1,728.5z"/>
<path class="st1" d="M425,1043.1c-3.1,4.1-5.7,8.6-9.3,12.2c-34.9,35.1-70.1,69.8-104.6,105.3c-5.2,5.3-6.9,13.9-10.4,20.9
	c-2.4,4.8-4.4,10.3-8,14.1c-12.2,13-25.1,25.3-37.6,37.9c-8.6,8.6-18.4,11.9-27.8,2.8c-9.3-9-7.1-19.1,1.5-27.9
	c10.9-11.1,21.7-22.3,33.1-32.9c2.7-2.5,7.4-2.8,11.1-4.1c-1.1,4.2-1,9.5-3.5,12.4c-10.1,11.1-21.3,21.2-31.4,32.2
	c-2.3,2.5-2,7.4-2.9,11.2c3.8-0.6,8.9,0.1,11.2-2.1c13.4-12.5,26.2-25.7,39.1-38.7c1.5-1.5,3.9-4.3,3.5-5.4
	c-7-16.6,7.7-22.5,15.7-30.7c34.2-35,69-69.4,103.8-103.9c3.4-3.4,8.1-5.6,12.2-8.3C422,1039.8,423.5,1041.5,425,1043.1L425,1043.1z
	"/>
<path class="st1" d="M787.7,660.6c-5.2-3.4-12-5.7-15.3-10.4c-5-7.2-6.4-15.8,0.5-21c2.5,10.6,4.8,20.6,7.1,30.6
	C782.6,660.2,785.1,660.4,787.7,660.6L787.7,660.6z"/>
<path class="st1" d="M803.6,617.7c3.5,6.5,7.9,12.3,9.5,18.8c0.9,3.7-3,8.4-4.7,12.7c-1.8-3.4-3.5-6.9-5.5-10.2
	c-2.3-3.8-5.2-7.2-7.3-11.1c-1.2-2.3-2.6-6.2-1.6-7.6C795.3,618.6,799.1,618.8,803.6,617.7L803.6,617.7z"/>
<path class="st2" d="M1416.5,1307.2c3.7-4.8,6.7-10.3,11.2-14.2c55.3-47.9,110.8-95.6,166.6-142.9c4.2-3.5,11.3-3.6,17-5.3
	c-2.7,5.3-4,12.2-8.2,15.8c-54.8,47.5-109.9,94.6-165.1,141.5c-5,4.2-11.6,6.6-17.4,9.9C1419.2,1310.4,1417.9,1308.8,1416.5,1307.2
	L1416.5,1307.2z"/>
<path class="st1" d="M2081.3,1181.2c-2.4,10-3.4,14.1-4.4,18.2c-4-1.1-8.2-1.7-11.9-3.5c-7.9-3.7-15.7-7.7-23.2-12.1
	c-3.5-2.1-6.3-5.4-9.4-8.2c3.1-2.9,7.1-8.9,9.3-8.3C2054.9,1171.1,2067.7,1176.3,2081.3,1181.2L2081.3,1181.2z"/>
<path class="st1" d="M1814.1,1280.1c-5.2-3.4-8.1-5.6-11.2-7.2c-7.7-4.1-15.7-7.7-23.2-12.1c-3.5-2-7.2-4.9-8.9-8.3
	c-0.6-1.2,3.7-6.4,6.7-7.8c12.7-5.7,36.7,7.1,39.4,21.1C1817.6,1269.5,1815.5,1273.7,1814.1,1280.1L1814.1,1280.1z"/>
</svg>
