<?xml version="1.0" encoding="UTF-8"?>
<svg id="Capa_1" data-name="Capa 1" xmlns="http://www.w3.org/2000/svg" viewBox="0 0 839.17 856.45">
  <defs>
    <style>
      .cls-1 {
        fill: #e5e7eb;
      }

      .cls-2 {
        fill: #f7f7f7;
      }

      .cls-2, .cls-3, .cls-4 {
        stroke: #ebfffd;
        stroke-miterlimit: 10;
      }

      .cls-5, .cls-6 {
        fill: #1c6e8c;
      }

      .cls-3 {
        fill: #f3f8ff;
      }

      .cls-6 {
        font-family: MicrosoftNewTaiLue, 'Microsoft New Tai Lue';
        font-size: 41.27px;
      }

      .cls-7 {
        fill: #00bfb2;
      }

      .cls-4 {
        fill: #2fc1b3;
      }
    </style>
  </defs>
  <path class="cls-2" d="m76.68,280.49v3.58c.28-.35.56-.69.84-1.02.47-.55,1.04-.94,1.65-1.18,0-.05-.01-.09-.02-.14-.88-.16-1.72-.57-2.47-1.24Z"/>
  <path class="cls-3" d="m733.4,136.18h-437.09c-2.41,4.87-5.59,9.44-8.14,13.13-7.11,10.26-17.62,15.23-29.55,17.96-13.75,3.14-28.08,5.13-42.12,6.34-14.36,1.24-28.67.77-42.65-2.93-7.51-1.99-14.74-4.84-22.03-7.46-6.59-1.32-13.02-3.26-19.5-5.61-1.93-.7-3-2.04-3.37-3.5-.49-.23-.96-.49-1.42-.76-1.64-.22-3.28-.52-4.91-.84-1.31-.26-2.23-.88-2.82-1.69-4.5-1.41-8.52-3.46-10.96-8.51-19.02,9.53-32.16,29.21-32.16,51.83v24.57c3.29-.24,7.28.9,11.05,2.54,3.25-10.8,12.74-13.42,22.66-15.56.41-.63,1-1.16,1.84-1.54,8.45-3.75,17.04-7.52,26.2-9.14.37-.43.8-.85,1.33-1.25,3.83-2.86,10.2-3.22,13.79.22.91.87,1.59,1.86,2.1,2.94.11-.03.22-.07.33-.08,3.97-.54,6.52,1.52,8.26,4.54,2.69-.5,5.58.99,5.56,4.71,0,1.7-.04,3.4-.11,5.1.51.77.98,1.56,1.43,2.35.12-.04.24-.08.37-.12-.33-2.66-.61-5.31-.45-8.01.16-2.84,2.05-4.56,4.37-4.82.02,0,.03-.01.05-.02-.01-.77-.01-1.54,0-2.31.11-5.99,7.84-6.35,9.82-1.33.67,1.7,1.19,3.43,1.61,5.19.17.1.35.21.52.33.35.25.67.53,1,.79,0,0,0,0,0-.01.03.03.06.06.09.09.88.7,1.73,1.43,2.52,2.21.68.51,1.39.98,2.15,1.39,0,0,.03.01.04.02.29-.83.6-1.63.95-2.36,1.77-3.68,8.54-3.01,9.14,1.19.33,2.34.27,4.8-.37,6.9.04.03.07.06.11.09,1.7,1.57,2.91,3.56,3.59,5.7.24-.17.49-.34.76-.5,5.21-3.15,8.31.25,10.15,5.4.5.11,1,.22,1.49.34-.23-1.48-.38-2.98-.45-4.5-.98-2.39-2.16-4.69-3.64-6.85-2.43-3.52.38-6.73,3.67-7.14.21-4.56.8-9.09,2.45-12.89,1.27-2.92,5.87-3.19,7.85-1.01,1.58,1.74,2.79,3.61,3.73,5.56.52-1.21,1.08-2.39,1.69-3.53,1.39-2.58,5.88-3.54,7.85-1.01,3.21,4.12,6.37,8.31,9.47,12.55.71-2.74,3.79-4.61,7.22-3.11,9.01,3.92,18.03,7.96,26.37,13.18,4.1,2.56,7.73,5.18,9.85,8.96.76-2.87,3.94-5.27,7.35-3.42,11.03,5.98,18.14,16.24,20.12,28.6,1.05,6.54,2.24,14.24-1.25,20.32-2.72,4.73-7.44,4.92-11.72,7.38-5.08,2.92-9.78-3.72-6.06-7.85,3.9-4.34,4.28-11.22,2.92-16.63-1.14-4.53-2.6-10.92-6.32-14.08-2.7-2.29-1.77-5.45.42-7.14-1-.7-2.05-1.35-3.16-1.95-.23-.12-.43-.26-.62-.4.07.41.13.82.17,1.25.91,9.54-.78,19.51-2.02,28.95-.24,1.82-.48,3.65-.72,5.47,2.01,8.95.75,18.05-2.14,26.66.44,5.88.15,13.8-2.46,19,.58,4.14-.36,8.9-1.98,13.48,2.19.8,3.79,2.89,2.81,5.75-4.28,12.52-.65,24.78-.82,37.55-.08,5.92-1.56,11.67-2.49,17.48-.61,3.79-.64,7.61-.5,11.44.48.38.91.87,1.27,1.51,4.28,7.58,3.2,16.13,1.97,24.39.96,5.3,1.83,10.62,2.04,16.06.48,12.44-.87,24.87-.94,37.31,0,1.28-.4,2.29-1.02,3.06,0,12.82.07,25.57.95,38.37.92,13.44,1.82,26.84.41,40.27-.1,1-.46,1.92-.97,2.69,0,.35-.01.7-.01,1.05,1.73,12.09,3.54,24.13,1.15,36.4-.15.79-.44,1.44-.82,1.96-.5,6.94-.81,14.99-5.59,20.02-6.29,6.62-16.97,4.22-24.97,3.55-7.32-.61-12.52-2.2-15.7-9.31-2.19-4.89-3.49-10.16-4.97-15.3-1.55-5.35-3.28-10.75-4.24-16.25-1.83-10.46-.96-21.04-.85-31.58.13-12.52,0-25.03.3-37.54.59-23.89.93-47.79.72-71.69-.2-23.41-3.19-46.57.87-69.84.06-.32.14-.61.24-.89-.04-.27-.07-.55-.1-.82-1.47-1.43-2.2-3.63-.99-5.95.67-1.29,1.45-2.48,2.29-3.64-3-5-.4-10.92,1.89-15.66.08-.17.16-.34.24-.52-1.96-1.68-2.95-4.14-2.72-6.94.18-2.15,1.43-3.56,2.99-4.26-.95-3.92-1.32-7.91-1.39-11.92-.73-.8-1.21-1.88-1.26-3.22-.11-3.17-.11-6.35-.03-9.52-1.57-.33-2.89-1.41-3.2-3.45-2.01-13.13.62-26.67.61-39.9,0-6.9-.17-13.84.46-20.72-1.42-.22-2.78-.94-3.63-2.18-.64-.94-1.35-1.73-2.1-2.43-1.6.48-3.35.2-4.61-1.33-.56-.69-1.08-1.4-1.55-2.12-.87-.29-1.76-.54-2.66-.77.16,2.39.28,4.78.43,7.17.47.72.76,1.63.74,2.73-.14,12.07-2.62,23.95-.99,36.02,1.6,11.79,3.79,23.39,4.57,35.3.69,10.47.59,21.15,1.18,31.73,1.88.14,3.56,1.24,3.9,3.55,1.07,7.22.32,14.31.57,21.56.05,1.36.11,2.72.16,4.07,1.95,7.21,1.49,13.86-1.8,20.8-1.57,3.31-4,5.87-6.93,7.16-.25,2.76-.39,5.53-.34,8.33.12,6.45-9.88,6.43-10,0-.06-2.97.09-5.91.36-8.85-2.38-1.23-4-2.98-5.07-5.03-.56-.7-.94-1.59-1.06-2.66-.8-2.75-.95-5.82-.81-8.83.43-9.36.47-18.7.55-28.08.02-1.9.04-3.8.06-5.7-1.66-.25-3.16-1.35-3.72-3.52-.59-2.28-1.08-4.56-1.48-6.84-.26.35-.58.64-.94.89,0,5.9-.05,11.8,0,17.69.11,12.49.84,24.99.65,37.48-.11,7.12-1.19,14.8.04,21.96,2.48.02,4.75,1.6,4.39,4.77-.94,8.31-1.28,16.63-1.34,24.95.72.83,1.22,1.85,1.34,2.96.83,7.74.5,15.69-.94,23.41.3,11.69.55,23.38-.1,35.07-1.31,23.9-6.79,47.54-7.86,71.47-.55,12.34,2.78,32.21-9.4,40.27-7.17,4.75-17.73,3.98-25.86,2.95-9.78-1.23-11.5-7.92-13.65-16.24-1.36-5.28-3.34-10.11-4.07-15.58-.77-5.79-.66-11.53-.09-17.33.4-3.99.67-8.61-.03-12.9-1.29,2.27-4.74,3.39-7.15,2.13-4.22-2.2-6.87-6.27-9.27-10.35,1.2,7.28,1.86,14.74,1.14,22.03-.23,2.32-.81,4.59-1.24,6.87-.22,1.17-.21,2.5-.49,3.65,3.96,1.36,4.86,8.17-.24,9.62-9.68,2.74-10.26-7.97-9.17-14.5,1.79-10.72,1.3-21.21-1.07-32.57-.62-2.96,1.19-5.11,3.41-5.91-.1-.37-.17-.77-.18-1.2-.48-11.61-1.92-23.63-1.01-35.22.43-5.42,1.67-10.74,2.1-16.15.44-5.53-.17-11.1-.91-16.57-1.42-10.44-1.86-19.75-.1-30.19,1.71-10.18,4.13-20.47.78-30.58-.55-1.67-.24-3.07.55-4.11-.23-.39-.42-.83-.55-1.34-1.94-7.44-1.79-15.22-2.98-22.76-2.18-2.94-3.19-6.86-1.79-10.2.71-1.69,2.03-2.82,3.48-3.29-2.64-3.94-6.26-7.29-8.17-11.63-1.47-3.33-1.88-8.24-.79-11.83-1.31-2.35-2.44-4.79-3.54-6.84-1.61-3,.33-7.99,4.32-7.52,3.06.36,5.35,1.34,7.63,3.44.85.78,1.59,1.71,2.34,2.64-.25-1.74-.54-3.48-.86-5.21-1.47-.39-2.69-1.47-3.04-3.39-2.51-13.98-3.8-30.53,2.55-43.68.6-1.25,1.62-1.96,2.78-2.25-.07-2.79-.26-5.59-.35-8.35-.5-.51-.93-1.14-1.23-1.89-2.75-6.89-3.47-14.33-4.28-21.68-1.89-.08-3.64-1.17-4.23-3.52-.24-.96-.41-1.93-.52-2.9-.15-.21-.28-.44-.42-.67,1.12,4.3,1.85,8.69,2.36,12.88,1.49,12.31.03,25.98-10.43,34.08-3.33,2.58-7.34,4.19-11.1,4.11-.72,1.28-1.48,2.53-2.28,3.74,2.79.89,4.93,3.93,2.94,7.14-5.85,9.45-10.41,17.4-10.55,28.8-.04,3.17-2.48,4.78-4.95,4.82v56.02c4.08,9.45,4.27,19.72,5.7,29.77,1.78,12.59.33,25.34,1.39,38.03.5,5.9,1.19,11.89.13,17.77-.5,2.79-1.4,5.44-2.57,8.01-1.15,2.54-3.25,4.91-3.94,7.62-.81,3.21,1.23,6.24,2.41,9.1,1.73,4.2,2.08,8.18,1.3,12.65-.27,1.57-1.01,2.56-1.96,3.11.47,2.54,1.05,5.05,1.56,7.58,1.12,5.53,2.86,12.06.23,17.4-.98,1.98-2.63,2.68-4.26,2.53v157.17c0,31.87,26.08,57.95,57.95,57.95h6.2c-1.14-4.73-1.61-9.62-1.95-14.54-.59-8.54-.97-16.91-.12-25.45.69-6.85,1.59-13.7,2.41-20.54.63-5.29,1.6-10.62,4.65-15.11,4.72-6.95,19.05-15.28,25.29-5.6,2.36,3.66,2.39,8.43,2.17,12.62-.36,6.88-1.22,13.72-2.08,20.55-1.08,8.56-1.34,17.16-2.41,25.71-.93,7.46-2.16,14.88-2.83,22.37h69.04c-1.85-12.29-.8-25.4-.69-37.53.1-11.47,0-25.25,3.82-36.25,2.84-8.18,10.51-12.58,18.65-11.39,2.13-.65,4.67.13,5.92,1.88,10.03,5.3,5.8,18.21,3.93,27.18-.21,1.02-.65,1.8-1.21,2.38-.88,8.7-1.65,16.86-3.95,25.36-1.73,6.4-2.5,11.97-2.37,18.5.07,3.04.22,6.62-.4,9.88h474.69c31.87,0,57.95-26.08,57.95-57.95V194.13c0-31.87-26.08-57.95-57.95-57.95ZM151.41,636.51c-3.35,5.22-2.41,12.45-2.18,18.37.3,7.92-.46,15.79-.54,23.7-.07,6.44-10.07,6.44-10,0,.09-8.85.71-17.6.43-26.46-.22-6.95-.24-14.6,3.65-20.66,3.47-5.4,12.12-.38,8.63,5.05Zm111.56,43.22c-1.8,1.84-4.01,1.81-5.73.82-1.83,4.37-9.64,3.71-9.61-1.98.02-5.63,2.48-9.55,5.38-14.16,2.81-4.46,3.66-9.8,6.53-14.24,1.92-2.96,6.85-3.52,8.63,0,4.97,9.78,2.37,21.83-5.21,29.55Zm202.8-373.71c-1.67,5.17-6.64,8.35-10.64,11.59-5,4.05-8.94,9.04-13.01,13.98-8.75,10.61-19.34,17.74-30.37,25.69-4.94,3.56-9.87,6.82-16.24,6.71-5.4-.09-8.7-3.79-13.49-5.35-1.01-.33-1.77-.87-2.33-1.53-2.07.94-4.55.56-5.77-2.13-.15-.32-.27-.64-.4-.96-.45,2.15-1.39,4.09-3.11,5.62-4.85,4.31-11.87.62-16.99-1.11-7.88-2.66-15.83-5.54-21.96-11.39-6.7-6.39-12.26-13.21-19.6-18.96-7-5.49-12.89-12.36-15.39-21.03-.41-1.44-.21-2.68.36-3.67-.18-.72-.21-1.52-.02-2.4,1.9-8.64,9.29-15.3,15.9-20.59,6.47-5.18,13.6-10.49,21.91-5.66,6.6,3.84,12,11.2,15.98,17.54.22.35.45.69.68,1.03.12.03.24.06.36.11,2.69,1.01,4.56,2.62,6.25,4.91,1.16,1.57,2.06,3.3,3.21,4.88.26.36.44.74.56,1.13,2.11,2.01,4.17,4.08,5.99,6.45,2.81,3.66,4.98,7.61,5.2,12.32.19,4.07-.85,8.05-.75,12.11,2.87-10.74,11.69-19.95,21.19-27.22,16.88-12.93,37.59-21.44,52.57-36.78,3.32-3.4,8.01-.49,8.54,3.54.81,6.21,2.64,11.79,6.63,16.7,3.51,4.31,6.63,8.68,4.75,14.49Zm91-37.42c-4.89,3.61-12.32,3.49-18.08,4.84-7.65,1.8-15.1,2.15-22.91,1.63-5.54-.37-13.89,1.51-20.25-.02-.89.32-1.85.56-2.85.7-2.53.36-7.85-.95-9.79.92-3.84,3.7-9.33-.5-8.49-4.59-.74-.3-1.41-.74-1.95-1.29-.27,1.33-.22,2.6.33,3.56,3.23,5.59-5.42,10.62-8.63,5.05-4.86-8.41.96-22.17,9.83-25.54,1.6-.61,3.35-.95,5.05-.94.34-2.14,1.33-4.15,2.86-5.92,1.1-1.28,2.43-2.3,3.77-3.31.58-.44,1.16-.86,1.75-1.29.14-.1,1.69-1.25,1.01-.72.82-.64,1.74-1.09,2.68-1.3.11-.52.31-1.01.62-1.43,1.09-1.47,2.26-2.82,3.53-4.13.58-.6,1.17-1.21,1.72-1.84.13-.15.25-.3.38-.45,0-.02.47-.69.5-.73.65-1,1.54-1.69,2.53-2.08.8-.86,1.96-1.42,3.49-1.42,5.76,0,6.36,7.98,1.83,9.68-.84,1.14-1.77,2.22-2.74,3.25-.57.6-1.15,1.19-1.72,1.79-.2.21-.4.43-.59.65-.09.1-.95,1.21-.29.32-.93,1.26-2.15,2.08-3.49,2.34-.17.94-.6,1.81-1.38,2.42-1.72,1.34-3.8,2.72-5.05,3.82-.4.35-.79.71-1.15,1.11-.71.79.39.02-.42.6.12-.4.13-.43.02-.09-.01.05-.02.07-.03.11,0,.15-.01.15-.03.1.02.08.06.2.11.38.64,2.27-.24,4.07-1.71,5.12.2,2.2-.58,4.32-1.97,6.05.92-.03,2.06.1,3.19.16.55-1.25,1.64-2.3,3.19-2.9,1.92-.75,3.71-1.04,5.75-1.2,2.38-.19,3.99,1.38,4.6,3.34,1.34,0,2.68-.04,4.01-.09,3.94-.15,7.73-.31,11.66,0,6.87.55,13.5-.24,20.17-1.9,4.35-1.08,10.22-.67,13.9-3.39,5.19-3.83,10.17,4.85,5.05,8.63Z"/>
  <path class="cls-4" d="m203.55,253.36c-1.62-7.1-2.04-14.73-4.09-21.78-.07-.02-.15-.04-.22-.06-.22.93-.45,1.85-.68,2.77-.57,2.3-2.53,3.41-4.55,3.51-.5,1.45-1.02,2.89-1.57,4.32-.15.38-.33.73-.53,1.05,1.59,14.73,2.92,29.49,4.11,44.26.1,1.18-.24,2.15-.82,2.91,1.68,6.47,2.78,12.99,3.51,19.55.39,2.67.71,5.36.98,8.06.25-5.82.76-11.64,1.4-17.48.97-8.87.75-17.75.93-26.66.13-6.38,1.37-12.64,2.13-18.95-.25-.43-.46-.92-.59-1.51Z"/>
  <path class="cls-4" d="m158.91,262.51s0,.06,0,.09c.65,3.92,1.34,7.84,1.89,11.77,0-.07.01-.15.02-.22.04-.41.13-.8.23-1.16,0-.06-.02-.11-.02-.17-.63-4.21-1.19-8.44-2.14-12.59,0,.76,0,1.52.02,2.28Z"/>
  <path class="cls-4" d="m127.68,459.59c.01-1.08.03-2.16.05-3.24-.14,1.36-.23,2.72-.27,4.09-.05,1.86.05,3.72.21,5.58-.01-2.14-.02-4.28,0-6.43Z"/>
  <path class="cls-4" d="m260.56,298.33c-.13-2.69,1.54-4.25,3.56-4.69-.42-5.12-1.1-10.22-2.2-15.27-1.52,10.82-3.44,21.58-4.97,32.4,1.8-4.06,3.82-8.15,3.61-12.44Z"/>
  <path class="cls-4" d="m281.82,531.61c-.05-1.12-.12-2.23-.18-3.35-.07,1.15-.13,2.31-.2,3.46.13-.04.25-.09.38-.12Z"/>
  <path class="cls-4" d="m278.32,477.5c-.14.6-.25,1.2-.39,1.8.76.24,1.46.67,2.04,1.27,0-.39,0-.79,0-1.18-.71-.44-1.28-1.08-1.64-1.89Z"/>
  <path class="cls-4" d="m421.65,328.19c-3.25,1.98-6.65,3.95-9.27,6.65-.54.56-1.04,1.15-1.53,1.76,3.61-2.74,7.22-5.54,10.79-8.41Z"/>
  <path class="cls-4" d="m217.24,354.85c-.04-.5-.08-1.01-.11-1.51-.32-4.64-.53-9.28-.72-13.92-.06,5.24-.11,10.48-.16,15.72.32-.13.66-.23,1-.29Z"/>
  <path class="cls-4" d="m238.77,222.41c0-.08.03-.15.04-.22-.28-1.6-.57-3.19-.87-4.78-.06-.09-.11-.17-.17-.26-.27,2.44-.43,4.86-.51,7.22.31.73.6,1.47.88,2.21.24-1.38.46-2.77.63-4.16Z"/>
  <path class="cls-2" d="m261.75,137.57c1.66-.4,3.33-.86,4.98-1.39h-45.37c13.48,1.91,26.86,4.65,40.39,1.39Z"/>
  <path class="cls-5" d="m325.95,267.78c7.94-.18,13.35,3.65,17.8,9.02,11.32,13.64,22.53,27.38,33.79,41.08,10.14-7.95,20.53-16.18,31.01-24.29,10.68-8.25,21.39-16.47,32.22-24.53,6.49-4.84,11.03-4.68,17.87.27.41-1.18.86-2.23,1.13-3.33,2.02-8.2,5.97-14.44,15.18-15.84,1.29-.2,2.4-1.69,3.54-2.64,3.55-2.96,7.11-5.91,10.58-8.96.82-.72,1.31-1.83,1.96-2.75,2.04-2.9,3.68-6.22,6.22-8.59,3.31-3.08,8.61-2.69,11.67.05,3.21,2.87,4.11,7.07,1.28,11.06-3.34,4.7-7.45,8.85-11.29,13.18-2.33,2.63-4.76,5.17-8.04,8.71,10.9,1.4,20.33,3.34,29.79,3.56,5.34.13,10.72-2.66,16.13-3.93,2.6-.61,5.32-.74,7.98-1.12.72-.1,1.42-.32,2.12-.53,2.52-.77,4.99-1.95,7.57-2.23,3.76-.41,6.92,1.17,8.11,4.98,1.1,3.52-.03,5.97-3.03,8.87-13.58,13.16-30.83,14.81-48.15,16.64-.78.08-1.6.04-2.32.29-12.27,4.35-24.89,4.3-38.08,2.84,2.88,9.33-.56,16.55-6.71,23.11-16.53,17.64-32.88,35.45-49.41,53.08-4.35,4.64-9.32,8.42-16.21,8.58-.93.02-2.22,1.11-2.68,2.03-7.18,14.31-30.98,17.19-41.29-.05-2.53-4.23-6.1-6.22-9.82-8.75-16.48-11.21-32.75-22.72-49.1-34.13-.87-.61-1.73-1.22-2.16-1.52,0,18.24-.25,36.52.05,54.8.98,61.7,2.19,123.4,3.24,185.1.19,11.13.38,22.28,0,33.4-.32,9.37-4.92,16.34-13.65,20.36-1.01.47-1.82,1.54-2.52,2.48-3.67,4.97-7.27,9.99-11.24,15.47,7.73,11.28,6.9,23.83-.05,36.54-.63,1.16-.46,2.88-.33,4.32.35,3.87,1.57,7.78,1.21,11.56-3.02,31.88-6.26,63.74-9.56,95.59-.53,5.14-1.41,10.02-6.98,13.03-1.47.79-.99,5.73-.76,8.72.05.72,2.62,1.61,4.11,1.79,10.43,1.27,20.25,4.21,29.02,10.16,1.17.79,2.47,1.52,3.34,2.58,2.62,3.2,5.63,5.63,9.1,8.03,3.33,2.31,4.33,8,6.84,13.23,27.81.78,57.25,1.6,86.69,2.43,0,.67-.02,1.34-.02,2.01-129.7,3.98-259.39,3.67-389.09.09-.01-.68-.02-1.35-.03-2.03,20.52-.56,41.03-1.23,61.55-1.66,20.52-.43,41.04-.63,61.52-.93.67-6.9,1.25-13.23,1.92-19.55.63-5.98,2.68-10.88,9.13-12.93,1.09-.35,1.97-2.49,2.25-3.94.38-1.96.1-4.05.1-6.42-6.34-1.17-8.02-5.89-8.54-11.34-2.22-22.97-4.45-45.93-6.55-68.91-1.14-12.48-2.03-24.97-3.06-37.8-1.7-.11-3.22-.29-4.74-.29-32.98-.04-65.95-.08-98.93-.06-11.71,0-17.6-5.72-17.61-17.57-.03-36.12-.03-72.23,0-108.35,0-9.77,5.15-15.29,14.88-15.64,7.66-.28,15.34-.06,22.45-.06,1.56-14.75,3.07-28.95,4.49-42.42-1.35-3.57-3.34-6.9-3.83-10.43-3.65-26.43-7.08-52.89-10.36-79.36-.57-4.64-.08-9.42-.08-15.87-6.86-5.5-9.79-14.66-8.73-25.36.71-7.14,3.47-13.23,8.38-18.49,1.37-1.47,2.3-3.66,2.69-5.67,3.79-19.4,7.21-38.87,11.26-58.21.96-4.59,3.86-8.78,6.02-13.47-1.17-6.12-3.3-13.23-3.73-20.44-.92-15.66,9.59-36.65,31.42-40.85,4-.77,7.59-3.58,11.44-5.28,24.95-11.05,49.93-22.05,74.89-33.1.91-.4,1.72-1.04,3.13-1.91-6.94-1.98-13.24-3.63-19.45-5.58-19.52-6.13-36.21-16.43-48.42-33.24-.73-1-1.65-1.9-2.61-2.68-20.01-16.24-26.69-45.71-14.27-68.41,10.18-18.6,23.32-34.97,42.04-46.08C140.79,7.95,161.55,1.86,183.65.44c23.61-1.52,46.86.65,68.74,10.28,35.51,15.63,55.1,42.85,57.68,81.82,1.08,16.25-.96,32.03-8.62,46.64-11.29,21.52-29.95,32.73-53.23,37.08-6.76,1.26-13.62,1.96-21.73,3.1,2.57,1.53,4.16,2.62,5.86,3.48,18.8,9.41,37.63,18.74,56.4,28.2,6.02,3.03,12.18,5.93,17.77,9.65,16.72,11.12,23.6,26.64,19.42,47.11Zm-133.68,90.41c-5.66-32.02-17.96-61.38-34.75-90.09.73,7.28,1.21,13.53,2.09,19.73.18,1.25,1.69,3.04,2.87,3.31,9.73,2.21,13.89,15.55,11.83,22.86-2.4,8.54-12.45,13.6-19.61,9.67-11.36-6.23-12.7-21.96-2.67-30.21,1.1-.91,2.23-2.65,2.17-3.95-.45-9.71-1.29-19.41-1.81-29.12-.37-6.87-2.48-14.12,4.77-20.14-6.18-.56-6.42-4.17-6.51-8.12-.26-10.81-.83-21.62-.95-32.43-.04-3.23-.91-4.9-4.19-4.4-6,.93-12.27,1.24-17.89,3.29-11.63,4.24-22.91,9.43-34.32,14.28-1.03.44-1.91,1.21-3.05,1.94,2.72,1.59,5.09,2.78,7.24,4.28,2.31,1.61,4.67,3.27,6.56,5.32,18.99,20.67,25.48,44.83,19.94,72.29-.99,4.91-2.51,9.82-2.66,14.76-.33,10.98.06,21.97.12,32.96,0,.97-.25,1.94-.42,3.22-4.8-3.11-9.18-5.95-13.56-8.79,3.53,13.31,7.94,25.85,12.08,38.47,1.1,3.36,1.96,6.99,1.96,10.5.12,50.24.15,100.49-.06,150.74-.02,5.02,1.46,6.58,6.27,6.31,3.73-.21,7.56.11,11.25.73,2.69.46,5.46,1.42,7.79,2.82,5.76,3.49,7.06,9.28,7.04,15.51-.06,17.43-.1,34.86-.28,52.29-.03,3,.76,4.79,3.66,6.24,13.26,6.63,27.52,2.23,34.71-10.76,4.21-7.61,4.69-15.88,4.78-24.21.74-71.44,1.48-142.88,2.08-214.32.31-36.62-.37-73.17-8.38-109.17-4-17.97-7.86-35.96-18.81-51.33-3.22-4.52-6.98-8.65-10.49-12.96-.52.14-1.05.28-1.57.42-1.36,7.81-2.31,15.72-4.2,23.39-1.55,6.29.53,10,5.78,13.16,3.9,2.35,7.29,5.56,11.11,8.55-4.77,4.33-8.81,7.99-13.12,11.9,20.41,30.71,33.51,63.7,33.19,101.04Zm47.09-165.43c.46,10.5,1.38,21.25,1.33,32.01-.13,29.2-.96,58.4-.99,87.6-.05,44.28.2,88.56.6,132.84.44,48.36,1.08,96.71,1.97,145.06.1,5.46,1.63,11.27,3.93,16.25,4.19,9.04,11.9,13.63,22.04,13.09,10.19-.54,17.2-6.07,20.33-15.54,1.57-4.77,1.83-10.16,1.76-15.26-.76-57.46-1.69-114.92-2.67-172.38-.04-2.32-1.17-4.6-1.67-6.93-.18-.83-.13-1.76.01-2.6.39-2.24,1.27-4.47,1.28-6.7.1-26.83-.73-53.7.33-80.49.83-20.97,4.14-41.83,6-62.77.94-10.59,1.33-21.26,1.42-31.89.02-2.08-1.94-5.13-3.84-6.13-9.82-5.22-19.92-9.94-29.94-14.79-1.27-.61-2.67-.96-4.71-1.67,3.76,6.69,7.08,12.55,10.34,18.44,3.32,6,7.25,12.03-.56,17.78.93.74,1.36,1.36,1.88,1.45,6.69,1.24,7.75,5.99,7.82,11.75.21,16.95.68,33.9.9,50.85.04,2.99.58,5.03,3.31,7.01,6.26,4.53,5.93,15.97-.17,20.11-4.33,2.94-10.88,1.92-14.48-2.25-4.24-4.92-4.62-13.45.97-16.81,6.3-3.78,5.29-8.67,5.33-13.94.03-3.77.07-7.54.08-11.3.01-4.91,0-9.81,0-14.72-4.62,13.9-8.31,27.91-11.97,41.93-3.71,14.21-7.39,28.44-11.09,42.65.4-9.66.83-19.39,2.29-28.95,3.3-21.6,8.94-42.64,16.36-63.2,2.55-7.06,2.44-7.17-3.91-11.76-3.38-2.45-6.51-5.23-9.84-7.93,4.41-4.73,8.44-9.06,12.6-13.51-4.68-11.18-20.21-32.49-27.07-37.28Zm-134.89-56.18c9.71,10.06,20.63,17.16,33.11,21.79,35.25,13.08,71.56,15.7,108.5,10,17.66-2.72,33.62-9.42,44.83-24.24,9.48-12.53,12.35-27.14,12.95-42.52,1.47-37.68-16.71-68.37-50.43-84.27-14.08-6.64-29.09-9.87-44.52-11.07-32.01-2.49-62.28,2.61-89.26,21.26-8.57,5.93-16.21,12.87-22.88,22.12,10.66-3.52,18.53.06,24.9,7.16,3.08,3.43,5.76,7.55,7.48,11.82,5.96,14.83,6,30.09,1.15,45.17-3.94,12.24-10.38,22.37-25.83,22.79Zm71.9,506.62c6.69,12.03,5.68,23.73.6,35.28-1.56,3.55-2.99,6.38-.99,10.41,1.22,2.45.93,5.83.73,8.76-.66,9.55-1.54,19.08-2.43,28.62-2.07,22.35-4.17,44.69-6.28,67.04-.45,4.7-2.13,8.46-6.26,11.53-1.58,1.18-1.2,5.29-1.22,8.06,0,.75,1.68,1.87,2.78,2.2,7.92,2.36,16.41,3.51,23.69,7.12,7.15,3.55,13.31,9.3,19.43,14.62,2,1.74,2.63,5.14,3.63,7.87.45,1.22.28,2.67.39,3.98h7.96c.71-7.03,1.3-13.7,2.07-20.36.63-5.46,2.56-9.93,8.56-11.66,2.84-.82,3.95-9.62,1.28-10.83-5.62-2.56-6.46-7.49-6.82-12.48-2.23-30.52-5.22-61.02-6.03-91.59-.55-20.95.34-42.41,15.09-60-10.79-5.91-16.46-15.3-17.8-27.22-2.37-21.05-4.37-42.15-6.6-63.22-.66-6.26-1.59-12.49-2.4-18.73l-1.18.11c-.39,6.37-.96,12.74-1.13,19.12-.47,17.58-.74,35.16-1.16,52.73-.44,18.26-7.48,32.2-25.93,38.64Zm272.25-372.87c-1.94,1.2-4,2.25-5.81,3.63-17.62,13.36-35.23,26.72-52.75,40.2-3.34,2.57-6.6,5.38-9.32,8.58-7.66,9.03-6.42,24.61,2.32,33.09,8.7,8.44,18.3,8.33,28.71-1.3,16.69-15.44,32.99-31.31,49.41-47.03,1.64-1.57,3.04-3.41,3.98-4.48-4.95-5.72-9.79-10.62-13.77-16.14-3.31-4.6-5.45-9.96-2.79-16.56ZM82.5,490.9c0-3.04.14-5.54-.02-8.02-1.7-25.65-3.45-51.3-5.18-76.95-.49-7.33-1.69-8.73-9.06-9.97-11.62-1.96-21.99,1.43-31.71,7.57-3.03,1.92-3.77,4.46-3.26,8.02,2.61,18.14,4.95,36.33,7.48,54.48,1.2,8.62,2.62,17.21,3.8,24.87h37.95Zm-28.67-244.64c-5.37,8.42-4.46,20.57,1.58,27.1.73.78,2.12,1.45,3.15,1.38,8.18-.56,14.88,3.01,21.45,7.21,4.62,2.95,9.37,5.69,14.1,8.46,3.17,1.86,6.27,1.12,8.58-1.32,2-2.11,4.33-4.65,4.82-7.31,1.37-7.48,2.79-15.15,2.49-22.68-.49-12.44-5.08-23.65-14.59-32.15-12.68-11.34-34.36-5.45-40.31,11.18,4.5-2.06,8.84-3.34,12.96-.04,5.9,4.74,7.88,17.42,3.8,23.9-2.59,4.11-6.79,5.18-10.98,2.63-4.71-2.86-6.48-7.47-7.02-12.67-.17-1.61-.03-3.25-.03-5.7Zm286.44,101.62c4.39-17.33,14.44-25.79,30.92-27.73-4.25-5.87-7.95-11.46-12.15-16.65-6.99-8.64-14.02-17.28-21.58-25.42-4.87-5.24-7.85-5.03-13.57-.87-8.89,6.47-15.49,14.95-21.3,24.18-2.3,3.65-1.56,6.24,1.31,9.02,8.22,7.96,16.4,15.96,24.43,24.11,3.93,3.99,7.49,8.35,11.93,13.35Zm-269.38,12.97c5.06-15.13,9.76-29.58,14.76-43.92,2.17-6.22,1.19-11.63-3.57-15.87-5.48-4.87-11.24-9.51-17.33-13.55-2.99-1.98-6.96-2.67-10.59-3.42-3.54-.74-6.18.87-6.94,4.6-3.88,18.95-7.71,37.92-11.64,57.3,14.28-.21,25.17,5.87,35.3,14.86Zm6.5,31.33c4.2,1.85,5.38,6.17,5.71,11.16,1.98,29.91,4.04,59.82,6.15,89.72.27,3.85-.17,7.19-3.43,8.55,1.49,4.45,2.85,8.53,4.24,12.6.24.72.46,1.78.98,2.01,4.56,1.95,3.87,6.02,3.98,9.69.14,4.71-.2,9.44.16,14.12.16,2.07-2.01,5.37,2,5.94.31.04,1.69-3.79,1.69-5.83.12-66.41.13-132.82.15-199.22,0-1.33-.16-2.66-.31-5.07-.93,1.51-1.37,2.08-1.66,2.72-5.44,11.99-10.87,23.97-16.24,35.99-.43.96-.45,2.11-.65,3.18-.87,4.54-1.74,9.08-2.78,14.45Zm68.7,358.34c.44,9.39.96,23.98,1.91,38.54.4,6.24,4.23,10.67,8.13,10.68,4.37.01,6.25-2.67,6.93-10.42,2.71-30.64,5.37-61.28,8.02-91.93.59-6.78-2.91-9.95-9.63-8.87-8.97,1.45-14.98,8.12-15.27,18.19-.38,12.86-.09,25.74-.09,43.81Zm94.25-4.76h.03c0,12.08-.1,24.16.06,36.24.05,3.57.51,7.22,1.4,10.68.98,3.81,3.22,7.18,7.73,6.96,4.81-.23,5.24-4.32,5.61-7.94,3.18-31.52,6.32-63.05,9.41-94.58.65-6.69-2.61-9.61-9.27-8.61-9.32,1.4-14.64,7.51-14.89,18.19-.31,13.02-.07,26.04-.07,39.07Zm-20.7-342.26c2.33-3.41,4.35-6.2,6.17-9.11.61-.98,1.07-2.3,1-3.43-.76-12.49-1.76-24.97-2.46-37.46-1.97-35.39-3.81-70.78-5.74-106.16-.15-2.66-.19-5.36-4.34-5.09-4.07.26-4.26,2.55-4.14,5.69.7,17.86,1.72,35.73,1.84,53.6.2,29.78-.2,59.56-.29,89.34,0,1.02.32,2.21.89,3.04,2.12,3.07,4.42,6.03,7.07,9.59ZM124.51,93.35c.12-11.62-1.67-19.34-5.51-26.55-3.7-6.96-9.17-11.91-17.37-11.71-8.12.2-13.93,5.24-17.14,12.24-7.91,17.27-7.3,34.48,2.74,50.8,8.19,13.31,21.12,13.16,29.66-.01,5.55-8.57,7.39-18.19,7.61-24.76Zm-78.09,430.67c10.96,0,21.12.06,31.29-.12.86-.02,2.21-1.56,2.44-2.6,1.58-7.01-2.82-14.25-9.94-14.94-5.81-.56-11.85.16-17.67,1.05-3.85.59-6.22,3.45-6.13,7.74.05,2.64.01,5.28.01,8.86Zm126.76-323.64c3.39,14.61,9.85,26.95,19.18,38.19,4.33-7.89,8.42-15.33,12.61-22.96-5.22-2.2-10.6-4.25-15.78-6.72-5.29-2.53-10.37-5.48-16.01-8.5Zm133.56,76.81c3.4-2.9,5.92-4.94,8.31-7.14,1.34-1.24,2.94-2.54,3.59-4.15,5.91-14.75-3.43-35.89-19.4-42.52,7.83,17.27,10.88,34.71,7.5,53.81ZM25.87,378.12c-.15,6.33,2.68,11.49,7.57,13.3,4.59,1.71,8.26.06,13.12-5.77,1.11-1.33,2.45-2.46,3.68-3.69.44.33.88.65,1.31.98-1.59,2.62-3.19,5.23-4.72,7.75,5.87-.73,9.83-4.32,11.08-10.15,1.8-8.42-2.63-19.4-9.49-23.5-5.97-3.56-12.09-3.27-16.97.92,1.42.35,2.78.61,4.1,1.02,10.56,3.28,15.17,17.41,8.57,26.24-4.38,5.86-11.12,5.81-15.16-.31-1.43-2.17-2.19-4.77-3.09-6.8Zm145.08-70.49c.2-6.92-4.36-12.72-10.24-13.03-6.41-.34-11.72,5.08-11.83,12.06-.11,7.36,5.08,13.8,11.18,13.89,5.99.08,10.68-5.48,10.89-12.92Zm47.56-90.55c4.9,6.72,9.87,13.54,15.27,20.94,4.16-15.15-1.01-28.8-2.59-42.19-4.21,7.05-8.46,14.17-12.68,21.26Zm150.4,112.88c-2.2.98-5.23,1.92-7.82,3.55-7.65,4.81-9.76,16.32-4.13,22.97,1.11,1.31,4.3,2.58,5.29,1.94,2.9-1.87,7.01-4.5,7.32-7.21.77-6.76-.3-13.74-.66-21.25Zm-156.45-107.62c-3.57,1.54-7.98,2.17-8.58,4.02-.86,2.66.86,6.29,1.87,9.38.46,1.38,1.72,2.65,2.91,3.6,2.96,2.37,7.33,3.32,9.24.44,2.29-3.45,3.46-8.45,3.01-12.55-.21-1.89-5.4-3.24-8.44-4.89Zm275.39,36.92c-3.9-3.37-7.29-6.06-12.03-5.17-4.77.89-8.3,3.53-9.63,8.48-.32,1.2-.35,2.47-.7,3.66-1.98,6.86-.71,8.31,7,7.66,1.66-7.89,7.24-12.13,15.35-14.63ZM122.71,593.17c.64.04,1.29.07,1.93.11.56-3.82,1.14-7.63,1.67-11.45.17-1.24.28-2.5.32-3.75.22-7.18.85-14.38.48-21.53-.29-5.62-3.74-7.88-10.15-7.56,5.59,5.07,5.84,11.46,5.77,17.99-.08,8.73-.02,17.46-.02,26.19Zm144.49,57.28c-2.71,11.05-9.29,17.69-17.61,23.72,4.12.91,7.41,2.04,10.74,2.2,1.8.09,4.54-.99,5.37-2.4,4.04-6.95,4.31-14.41,1.5-23.51Zm-41.64,192.91c0,.43-.01.85-.02,1.28h71.64c0-.43,0-.85,0-1.28h-71.61Zm-92.39-.01c0,.39,0,.79,0,1.18h70.79c0-.39-.01-.79-.02-1.18h-70.77Zm-80.33-297.69h27.88c-.16-3.37-.3-6.24-.44-8.97-4.91,1.09-9.27,2.64-13.71,2.88-4.53.25-9.12-.79-13.73-1.27v7.36Zm91.52,132.97c1.37-3.05,3.39-5.56,3.51-8.16.54-11.57.6-23.17.63-34.76,0-1.02-1.41-2.04-2.16-3.06-.66.26-1.32.53-1.98.79v45.18Zm354.02-412.95c-.06-.54-.11-1.08-.17-1.63-5.07.79-10.28,1.1-15.15,2.56-3.08.92-4.15,5.87-2.05,6.74,2.93,1.21,6.3,1.71,9.48,1.73,1.08,0,2.19-2.35,3.26-3.65,1.56-1.9,3.09-3.83,4.63-5.74ZM191.56,835.8c.45-.3.9-.6,1.35-.9-.96-1.45-1.61-3.32-2.93-4.26-2.91-2.06-6.05-3.88-9.29-5.39-6.35-2.98-13.1-4.28-21.09-4.34,11.3,5.27,21.63,10.08,31.96,14.89Zm61.35-14.57c11.17,5.13,21.65,9.94,32.36,14.86-.25-7.37-19.13-15.9-32.36-14.86Zm29.37-501.44c.19-5.01-3.58-9.6-8.05-9.8-5.18-.23-8.69,3.47-8.82,9.3-.11,4.71,4.1,9.33,8.59,9.44,4.54.11,8.08-3.71,8.28-8.94Zm219.51-78.47c1.2-1.46,2.96-2.96,3.83-4.86.74-1.61.44-3.69.6-5.57-2.17-.13-4.73-1.03-6.41-.18-1.96.99-3.16,3.5-4.7,5.36,2.67,2.09,4.76,3.74,6.68,5.24Zm11.22,25.44c-6.74-2.22-12.01.4-12.99,6.44,8.6,1.6,8.94,1.43,12.99-6.44Zm-22.47-14.08c1.01-1.42,1.8-2.58,2.64-3.69.81-1.07,1.67-2.11,2.46-3.09-3.81-5.45-7.16-4.84-11.63,2.09,2.06,1.47,4.13,2.96,6.53,4.68Zm-356.37,307.97c4.06-1.24,4.66-2.01,3.94-5.2-1-4.46-4.4-6.37-9.65-5.56,1.82,3.43,3.68,6.93,5.7,10.75Zm398.05-288.75c2.64-.79,4.92-1.71,7.28-2.12,3.97-.68,4.35-2.67,2.73-5.76-8.54-.22-10.27,1.1-10.01,7.88Zm-5.45-6.89c-4.24,2.38-7.94,4.46-12.61,7.09,9.92,3.62,13.09,1.81,12.61-7.09Zm21.66,2.35c2-.3,3.69-.51,5.35-.83.75-.14,1.69-.31,2.15-.82.83-.92,2.02-2.24,1.83-3.13-.21-.98-1.7-2.16-2.81-2.39-4.5-.93-6.97,1.67-6.52,7.17Zm-407.4,283.62c1.7,5.13,3.5,10.58,5.26,15.87,4.25-6.97,1.51-14.2-5.26-15.87Zm-70.19-166.67c.57.04,1.13.07,1.7.11v-9.53c-.41-.01-.81-.02-1.22-.03-.16,3.15-.32,6.3-.48,9.46Z"/>
  <path class="cls-5" d="m231.49,142.8c-15.2-2-30.52-3.34-45.56-6.16-18.58-3.49-29.42-15.58-32.14-34.14-1.58-10.8-2.53-21.84-2.22-32.73.41-14.02,8.34-23.26,22.1-26.09,10.69-2.19,21.69-3.44,32.6-3.86,19.59-.76,39.18-.33,58.58,3.42,13.75,2.66,21.99,11.12,26.72,23.76,6.1,16.3,6.82,33.07,4.24,50.06-1.87,12.32-10.12,19.19-21.62,21.22-11.36,2-23.02,2.34-34.55,3.31-2.65.22-5.33.03-8,.03-.05.39-.11.78-.16,1.17Zm-18.36-52.54c.04-8.64-7.01-16.43-14.86-16.42-7.07,0-13.11,6.39-13.18,13.91-.08,9.33,7.17,17.39,15.61,17.36,7.22-.03,12.39-6.2,12.43-14.84Zm64.3,2.06c-.07-5.21-2.55-10.35-6.51-13.54-7.13-5.74-17.18-2.35-19.11,6.63-1.09,5.05-.37,9.97,2.71,14.36,3.78,5.4,9.17,7.63,14.54,5.93,5.07-1.6,8.47-7.03,8.38-13.38Z"/>
  <path class="cls-5" d="m115.1,94.01c-.35,9.06-1.37,17.88-8.43,24.67-4.68,4.49-9.18,4.97-14.31.99-2.43-1.89-4.89-4.17-6.32-6.83-7.25-13.43-7.59-27.3-1.23-41.13,2.31-5.02,6.17-9.06,12.1-9.24,6.17-.19,10.08,3.89,12.88,8.89,3.93,7,5.47,14.64,5.31,22.66Z"/>
  <path class="cls-5" d="m274.18,325.64c-3.65-.05-6.51-3-6.46-6.69.05-3.84,2.82-7.06,6.2-6.9,3.49.17,6.17,1.76,6.37,5.55.24,4.57-2.63,8.09-6.11,8.04Z"/>
  <path class="cls-5" d="m160.73,316.61c-4.86-.06-8.65-3.99-8.59-8.9.06-5.11,3.75-9.39,8.25-9.17,4.64.22,8.2,2.34,8.47,7.38.32,6.07-3.5,10.75-8.13,10.69Z"/>
  <path class="cls-1" d="m805.16,216.53h-432.3c-9.46,0-17.13-6.29-17.13-14.05v-114.96l-35.31-18.44h484.74c9.46,0,17.13,6.29,17.13,14.05v119.35c0,7.76-7.67,14.05-17.13,14.05Z"/>
  <text class="cls-6" transform="translate(394.06 126.69)"><tspan x="0" y="0">Dime cómo puedo</tspan><tspan x="0" y="49.52">ayudarte...</tspan></text>
  <text/>
  <path class="cls-7" d="m501.11,393.93h301.49c6.6,0,11.94-4.24,11.94-9.46v-77.41l24.63-12.42h-338.06c-6.6,0-11.94,4.24-11.94,9.46v80.37c0,5.23,5.35,9.46,11.94,9.46Z"/>
  <path class="cls-1" d="m603.59,526.33h-256.86c-5.62,0-10.18-3.74-10.18-8.35v-68.31l-20.98-10.96h288.01c5.62,0,10.18,3.74,10.18,8.35v70.92c0,4.61-4.56,8.35-10.18,8.35Z"/>
  <path class="cls-7" d="m609.52,638.57h204.81c4.48,0,8.11-2.88,8.11-6.43v-52.59l16.73-8.43h-229.65c-4.48,0-8.11,2.88-8.11,6.43v54.6c0,3.55,3.63,6.43,8.11,6.43Z"/>
  <path class="cls-1" d="m496.44,719.03h-166.43c-3.64,0-6.59-2.42-6.59-5.41v-44.26l-13.59-7.1h186.61c3.64,0,6.59,2.42,6.59,5.41v45.95c0,2.99-2.95,5.41-6.59,5.41Z"/>
</svg>