<?xml version="1.0" encoding="UTF-8"?>
<svg xmlns="http://www.w3.org/2000/svg" viewBox="0 0 715.45 679.27">
  <defs>
    <style>
      .cls-1 {
        fill: #f6ada9;
      }

      .cls-2 {
        fill: #165e72;
      }

      .cls-3 {
        fill: #6f9398;
      }

      .cls-4 {
        fill: #eaf2ee;
      }

      .cls-5 {
        fill: #58536a;
      }

      .cls-6 {
        fill: #966578;
      }

      .cls-7 {
        fill: #feeee4;
      }

      .cls-8 {
        fill: #ff808b;
      }

      .cls-9 {
        fill: #8eabb2;
      }

      .cls-10 {
        fill: #ff7f89;
      }

      .cls-11 {
        fill: #fdfefd;
      }

      .cls-12 {
        fill: #6896b2;
      }

      .cls-13 {
        fill: #fceade;
      }

      .cls-14 {
        fill: #b3dbe4;
      }

      .cls-15 {
        fill: #ecf0eb;
      }

      .cls-16 {
        fill: #79acb8;
      }

      .cls-17 {
        fill: #6888a2;
      }

      .cls-18 {
        fill: #ff7e88;
      }

      .cls-19 {
        fill: #1c6e8c;
      }

      .cls-20 {
        fill: #003552;
      }

      .cls-21 {
        fill: #839da8;
      }

      .cls-22 {
        fill: #f3f8ff;
        stroke: #ebfffd;
        stroke-miterlimit: 10;
      }

      .cls-23 {
        fill: #fa989a;
      }

      .cls-24 {
        fill: #aec9d6;
      }

      .cls-25 {
        fill: #e0c4c4;
      }

      .cls-26 {
        fill: #89adc2;
      }

      .cls-27 {
        fill: #edcccc;
      }

      .cls-28 {
        fill: #cee6e2;
      }

      .cls-29 {
        fill: #caabad;
      }

      .cls-30 {
        fill: #83b4bf;
      }

      .cls-31 {
        fill: #9dd1d1;
      }

      .cls-32 {
        fill: #6094af;
      }

      .cls-33 {
        fill: #dda6a8;
      }

      .cls-34 {
        fill: #72969f;
      }

      .cls-35 {
        fill: #6faeba;
      }

      .cls-36 {
        fill: #d0707e;
      }

      .cls-37 {
        fill: #492e3d;
      }

      .cls-38 {
        fill: #083352;
      }

      .cls-39 {
        fill: #428e91;
      }

      .cls-40 {
        fill: #89a6b0;
      }

      .cls-41 {
        fill: #4b4c62;
      }

      .cls-42 {
        fill: #abd4d5;
      }

      .cls-43 {
        fill: #a3cadb;
      }

      .cls-44 {
        fill: #947b8e;
      }

      .cls-45 {
        fill: #286384;
      }

      .cls-46 {
        fill: #5d717a;
      }

      .cls-47 {
        fill: #e6f8fc;
      }

      .cls-48 {
        fill: #78918d;
      }

      .cls-49 {
        fill: #4d6873;
      }

      .cls-50 {
        fill: #fdfffe;
      }

      .cls-51 {
        fill: #fe7e88;
      }

      .cls-52 {
        fill: #fe8488;
      }

      .cls-53 {
        fill: #5d869d;
      }

      .cls-54 {
        fill: #6e8593;
      }

      .cls-55 {
        fill: #00bfb2;
      }

      .cls-56 {
        fill: #647986;
      }

      .cls-57 {
        fill: #36515c;
      }

      .cls-58 {
        fill: #966577;
      }

      .cls-59 {
        fill: #a99aa2;
      }

      .cls-60 {
        fill: #d0757f;
      }

      .cls-61 {
        fill: #bcd5dc;
      }

      .cls-62 {
        fill: #6d8c94;
      }

      .cls-63 {
        fill: #7c9a9e;
      }

      .cls-64 {
        fill: #ff7f87;
      }

      .cls-65 {
        fill: #e2efed;
      }

      .cls-66 {
        fill: #f5fafc;
      }

      .cls-67 {
        fill: #a1ced1;
      }

      .cls-68 {
        fill: #8ea5a9;
      }

      .cls-69 {
        fill: #859bad;
      }

      .cls-70 {
        fill: #dcf6f9;
      }

      .cls-71 {
        fill: #6c93bb;
      }

      .cls-72 {
        fill: #8f9399;
      }

      .cls-73 {
        fill: #7197a7;
      }

      .cls-74 {
        fill: #6097a9;
      }

      .cls-75 {
        fill: #7fb8bf;
      }

      .cls-76 {
        fill: #fdeee1;
      }

      .cls-77 {
        fill: #8ec1c7;
      }

      .cls-78 {
        fill: #fbfcfb;
      }

      .cls-79 {
        fill: #edf5f3;
      }

      .cls-80 {
        fill: #758991;
      }

      .cls-81 {
        fill: #87a8b3;
      }

      .cls-82 {
        fill: #003450;
      }

      .cls-83 {
        fill: #c7c8cc;
      }

      .cls-84 {
        fill: #648da2;
      }

      .cls-85 {
        fill: #f3f6f3;
      }

      .cls-86 {
        fill: #fefefe;
      }

      .cls-87 {
        fill: #e8f9fd;
      }

      .cls-88 {
        fill: #fcfcfc;
      }

      .cls-89 {
        fill: #2e617d;
      }
    </style>
  </defs>
  <g id="Capa_3" data-name="Capa 3">
    <rect class="cls-22" x="1.81" y="45.59" width="713.14" height="629.14" rx="59.12" ry="59.12"/>
  </g>
  <g id="Capa_2" data-name="Capa 2">
    <g>
      <path class="cls-82" d="m277.72,144.15c-7.57-11-14.39-22.4-19.29-34.89-3.85-9.81-6.51-19.85-7.18-30.39-.34-4.81-.41-9.61.05-14.41,1.55-16.35,7.78-30.52,24.06-35.97,8.82-2.96,13.97-8.24,18.98-14.85,7.75-6.87,16.72-11.34,26.97-12.75,16.11-2.22,31.75-.25,46.84,5.97,5.77,2.38,11.22,5.37,16.79,8.16,6.57,2.77,11.79,7.41,16.99,12.11,6.19,5.51,12.4,11,19.7,15.04,1.07.59,2.26.95,2.2,2.62-.25,6.45.53,12.96-1.04,19.34-3.03,12.38-11.3,18.82-23.53,20.79-3.39,1.74-7.03.57-10.53.9-15.52-1.58-29.39-7.54-42.26-16.08-6.02-3.99-6.17-4.11-8.07,2.49-4.78,16.59-22.97,30.24-40.5,29.31-3.48-.18-6.95-.17-10.36,1.08-6.29,2.3-10.86,8.3-11.14,14.96-.57,13.67,6.08,23,19.41,27.01,2.33.7,3.52,1.98,4.02,4.33,2.59,12.07,10.46,20.16,20.43,26.54,10.88,6.96,22.68,11.49,35.58,12.99,2.25.26,4.48.23,6.72.37,1.39.09,3.11-.36,3.7,1.63-.06,4.86-.66,9.79-.03,14.56.63,4.73-1.61,7.5-4.6,10.27-1.92,1.07-3.28-.19-4.72-1.14-6.44-4.25-12.12-9.5-18.44-13.91-3.15-2.2-6.33-4.38-9.34-6.77-5.93-4.3-11.24-9.4-17.38-13.43-4.66-3.44-8.04-8.25-12.66-11.73-6.38-6.41-12.53-13.03-18.45-19.86-1.14-1.32-2.19-2.68-2.92-4.27Z"/>
      <path class="cls-31" d="m500.47,604.34c2.97-6.81,5.98-13.61,8.92-20.44,6.73-15.62,13.44-31.26,20.13-46.9.98-2.29,1.99-4.58,2.66-6.96.53-1.89,1.64-2.29,3.3-2.11.48-.24.96-.2,1.42.04,5.36,2.78,10.89,5.24,16.14,8.25,2.58,2.28,6.09,2.77,8.89,4.62,1.94,1.54,4.19,2.53,6.4,3.59,3.49,1.84,7.12,3.43,10.53,5.44,8.62,4.05,17.22,8.16,25.66,12.57.96.5,2.16.67,2.66,1.85-2.4,12.31-4.43,24.7-8.67,36.57-.93,1.39-1.32,2.96-1.55,4.59-.11.35-.26.67-.45.99-1.22,1.8-.55,3.83-.72,5.76-3.05,10.24-5,20.79-9.21,30.71-3.87,9.12-10.31,15.77-17.99,21.8-8.19,6.42-17.67,9.46-27.26,12.54-.95.18-1.91.48-2.86-.04-12.89,2.64-25.93,1.04-38.9,1.38-.59-1.3-.21-2.67-.29-4.02,0-21.3-.01-42.59,0-63.88,0-1.74-.16-3.49.29-5.21.17-.48.47-.86.88-1.16Z"/>
      <path class="cls-10" d="m31.74,357.9c3.37-2.11,6.2-4.96,9.73-6.87,7.7-4.16,15.87-6.31,24.63-6.2,4.98-2.22,9.63-.42,14.29,1.19,1.04.36,2.04.86,3,1.43,1,.72,1.76,1.93,2.9,2.28,4.73,1.43,6.3,4.67,5.76,9.3-.87,11.31-1.62,22.62-2.51,33.92-.64,8.21-.21,16.45-1.19,24.64-.21,1.72,0,3.49-.34,5.22-1.15,5.17-.28,10.42-.56,15.63-.1,1.83.38,3.77-.88,5.41-.63.5-1.18.24-1.72-.16-3.76-8.57-6.64-17.48-10.01-26.21-5.25-13.58-10.26-27.26-14.89-38.9,7.25,20.44,15.85,42.55,23.92,64.85-.67,2.83-2.52,1.41-3.79.84-3.42-1.52-6.78-3.18-10.04-5.04-8.87-5.08-18.03-9.62-27.1-14.34,11.56,5.96,22.91,12.32,34.4,18.39.77.41,1.56.78,2.36,1.15,5.52,2.53,8.73,6.27,7.79,12.88-.49,3.43-.03,6.98-.1,10.48-.09,4.47-.63,4.88-4.84,3.63-15.19-4.52-30.15-9.82-45.46-13.97-.69-.19-1.37-.4-2.1-.46,15.28,4.55,30.41,9.55,45.67,14.17,6.51,1.97,6.74,2.22,6.75,9.13,0,6.37.02,12.74-.01,19.11,0,1.6.23,3.27-.81,4.71-1.76,1.05-2.91.37-4.09-1.13-8.29-10.55-18.13-19.18-30.79-24.12-8.72-3.4-17.46-3.2-26.12.43-1.34.56-2.69,2.13-4.3.44-6.69-21.73-11.19-43.76-10.87-66.69.3-21.14,6.08-39.9,21.32-55.13Z"/>
      <path class="cls-82" d="m535.59,398.23c7.51-14.47,14.99-28.95,22.55-43.39,2.07-3.96,3.78-8.15,6.76-11.59,2.36-2.72,5.14-4.68,8.84-5.06.56-.32,1.19-.32,1.81-.32,17.77,0,35.54,0,53.31,0,.5,0,.99.06,1.46.24,7.43,1.75,10.24,7.23,6.72,14.04-10.94,21.11-22.09,42.13-33.13,63.19-.92,1.76-1.69,3.59-2.54,5.39-1.62,2.02-2.35-.07-3.02-.83-4.79-5.43-9.55-10.88-14.37-16.28-4.91-5.49-9.81-10.99-15.07-16.15-1.47-1.44-2.98-2.52-5.19-2.59-2.79-.09-4.93.89-6.26,3.28-1.29,2.32-.83,4.66.77,6.66,2.1,2.63,4.24,5.26,6.58,7.67,8.18,8.43,15.68,17.46,23.64,26.09,3.8,4.12,3.72,5.19,1.4,9.16-1.3,2.22-2.71,2.26-4.57.93-1.73-1.24-3.33-2.64-4.88-4.09-8.48-7.94-17.43-15.34-25.97-23.21-1.65-1.52-3.49-2.88-5.86-3.12-2.22-.22-4.26.11-5.64,2.13-1.38,2.03-1.54,4.2-.49,6.4.82,1.72,2.12,3.08,3.53,4.33,9.26,8.19,18.19,16.74,26.9,25.5,3.58,3.6,3.45,6.21-.35,9.67-1.09.99-2.21,1.05-3.44.45-1.81-.88-3.37-2.12-4.87-3.45-6.47-5.69-13.36-10.87-19.95-16.42-.86-.72-1.77-1.39-2.78-1.9-2.94-1.47-5.52-1.07-7.48,1.16-2,2.27-2.15,5.32.1,7.84,3.66,4.09,7.75,7.78,11.9,11.37,2.28,1.96,4.56,3.89,6.19,6.46.8,1.44,1.99,2.56,3.2,3.61,2.25,1.96,3.3,4.28,2.81,7.26-2.26,8.11-5.9,15.71-8.71,23.62-.31.87-.62,1.97-1.97,1.8-16.23-.02-32.46-.36-48.67.08-6.63.18-11.27-6.24-7.9-12.74,14.46-27.88,28.76-55.85,43.1-83.79.56-1.1,1.03-2.25,1.54-3.38Z"/>
      <path class="cls-8" d="m465.99,451.3c-6.08,1.54-12.01,3.52-17.75,6.04-1.96,1.68-4.82.95-6.8,2.56-.55.3-1.61.1-1.69.5-.15.8,1.01.91,1.38,1.53,9.53,4.5,19.05,8.99,28.58,13.5,2.24,1.06,4.3,2.5,4.23,5.2-.07,2.83-1.92,4.69-4.37,6.05-5.44,3.02-12.72,4.15-13.05,12.51-7.64,11.06-15.39,22.06-24.34,32.11-5.48,6.16-10.58,6.22-16.85.84-1.69-1.45-3.31-3-4.92-4.55-1.36-1.31-2.22-1.23-3.56.34-5.26,6.15-11.02,11.78-18.24,15.69-.34.47-.55,1.04-1.05,1.4-12.17,6.34-25.51,9.19-38.53,13.02-1.95-2.24-1.78-5.14-2.19-7.76-2.02-12.8-4.61-25.51-6.6-38.31-.21-1.35-.56-2.69-.36-4.07,2.19-4.56,6.66-6.92,10.17-10.15,8.5-7.84,17.36-15.28,25.82-23.17,3.82-3.56,7.9-6.83,11.66-10.46,8.43-9.48,19.97-12.76,31.6-15.83,3.38-.89,6.64-2.14,9.91-3.35,2.01-.6,4.05-1.12,6.01-1.9,11.89-3.47,23.88-6.65,35.63-10.59,2.11-.53,4.12-2.03,6.42-.63,2.23-.78,4.44-1.6,6.69-2.32,3.94-1.27,7.24-.23,8.83,2.7,1.54,2.84.54,6.99-2.28,9.45-2.32,2.02-5.25,2.78-7.99,3.92-2.75,1.14-5.69,1.85-8.2,3.56-2.68.86-5.2,2.33-8.16,2.19Z"/>
      <path class="cls-64" d="m540.78,676.48c7.62-2.49,15.39-4.71,22.2-9.05,6.61-4.21,12.37-9.28,17.3-15.66,6.23-8.06,8.39-17.52,11.04-26.77,1.23-4.29,3.1-8.52,3.51-13.06,1.65-1.69-.16-4.28,1.55-5.95h0c1.29-1.29.15-3.3,1.36-4.6.2-4.83,2.71-9.06,3.57-13.73,1.22-6.64,2.85-13.2,4.03-19.85.25-1.38,1.24-2.39,1.23-3.77-.54-.91-.51-1.89-.3-2.87,1.5-7.1,2.85-14.23,4.7-21.25.68-.92.92-2.09,1.56-3.03,2.25-1.11,4.22-2.59,5.81-4.52,3.2-3.88,7.77-6.09,11.35-9.5,3.94-2,7.16-4.99,10.69-7.58,4.54-1.3,8.97-2.95,13.59-4,6.92-1.58,14.05-1.71,20.74-.34,7.01,1.44,13.42,5.2,18.17,11.03,2.65,4.19,5.97,7.89,8.34,12.31,5.11,9.53,7.53,19.69,7.66,30.43.04,3.74-.08,7.47-.12,11.21-2.5,1.55-3.63-.75-4.92-1.98-1.13-1.08-.44-2.5.22-3.78.17-.32,1.81,0,.52-.95-.46-.34-1.56-.66-1.58,0-.1,2.57-2.66,3.93-2.85,6.38-.11.34-.31.62-.59.85-2.51,1.66-4.27,3.38-4.75,6.9-.44,3.28-3.01,6.19-6.08,8.11-1.03.65-2.52.73-1.45,2.69.44.81-.69,1.75-1.52,2.32-1.93,1.34-3.73,2.86-5.74,4.08-6.8,2.17-13.89,3.03-20.81,4.64-10.58,2.46-21.26,4.44-31.86,6.82-1.3.29-2.88,1.18-3.81-.2-.89-1.32.45-2.55,1.14-3.67,5.16-8.41,10.71-16.57,15.84-24.98,2.29-3.75,5.81-5.28,9.75-6.36,10.47-2.88,20.78-6.29,31.25-9.2-6.85,1.92-13.9,3.11-20.65,5.4-3.55,1.2-7.26,1.84-10.75,3.26-1.16.47-2.57.8-3.46-.37-.79-1.05.07-2.12.61-3.09,1.22-2.18,2.57-4.28,3.78-6.46,3.43-4.12,5.8-8.91,8.57-13.61-3.22.42-4.8,1.97-4.4,5.17.08.63,0,1.51-.61,1.64-5.74,1.26-6.91,6.88-10.01,10.59-3,3.59-3.1,3.79-5.5-.58-2.21-7.26-3.31-14.77-5.34-22.08,1.54,9.67,4.71,19.01,5.76,28.77-.68,3.41-3.02,5.96-4.73,8.82-12.02,20.09-25.68,39.11-38.16,58.89-6.58,10.42-13.5,20.62-20.02,31.08-.72,1.15-1.42,2.37-2.76,2.97v-.02c-6.96.7-13.92.1-20.88.31-3.11.09-6.21-.16-9.32.23-1.23.15-3.34.62-2.89-2.04Z"/>
      <path class="cls-55" d="m21.29,479.72c3.66-.78,6.91-2.69,10.71-3.37,4.93-.89,9.49-.94,14.44.07,7.51,1.54,13.79,5.2,19.94,9.39,6.58,4.49,11.74,10.44,16.86,16.4.91,1.06,1.52,1.75,2.84,1.76,1.94,1.25,1.5,3.27,1.51,5.05.05,8.68.1,17.37,0,26.04-.39,12.85-.34,25.72,0,38.57.11,4.34.61,8.69.56,13.06-.01,1.23.19,2.93-1.08,3.34-1.45.47-1.97-1.22-2.52-2.27-8.57-16.23-16.98-32.54-25.85-48.61-1.79-3.24-2.52-6.68-2.54-10.42-.04-8.37,1.14-16.66,1.04-24.03-.45,6.43-1.37,13.83-1.28,21.31.02,1.44.4,3.56-1.22,3.97-1.64.42-2.27-1.71-2.95-2.92-6.21-11.11-12.46-22.19-18.81-33.22,8.72,15.53,17.43,31.05,26.09,46.61,1.04,1.86,1.98,3.77,2.68,5.77.93,2.65-.18,3.83-2.94,3.22-1.34-.3-2.62-.85-3.86-1.42-10.79-4.94-21.98-8.9-32.96-13.39,8.38,3.48,16.76,6.98,25.23,10.26,5.24,2.03,10.25,4.6,15.59,6.37,1.5.49,2.55,1.51,3.32,2.87,7.55,13.51,14.3,27.44,21.32,41.23.87,1.72.63,3.68,1.25,5.45,1.55,12.73,3.13,25.46,6.09,37.97,2.06,8.68,6.49,15.83,13.18,21.64,2.15,1.72,4.39,3.35,6.94,4.36,5.53,2.2,6.68,7.32,8.41,12.08.31.87-.1,1.43-1.1,1.41-7.54,0-15.08-.01-22.6,0-2.7-.39-3.75-2.53-4.14-4.69-.8-4.4-3.9-7.65-5.46-11.66-.59-1.5-.98-2.96-1.42-4.48-1.55-5.4-.92-11.45-4.69-16.2-.23-.29-.54-.61-.58-.95-.64-7.21-5.93-12.26-8.85-18.39-1.64-3.44-4.16-6.81-6.45-10.08-2.07-2.96-4.8-5.7-5.99-9.37-1.29-3.96-4.28-6.94-6.66-10.24-1.5-2.09-3.9-3.54-4.22-6.43-.07-.62-.52-1.16-1.09-1.47-5.39-2.88-7.18-8.79-10.97-13.02-1.07-1.2-1.66-2.78-2.12-4.35-.14-.48-.13-1.23-.44-1.4-4.08-2.18-4.03-8.75-10.13-9.08-2.32-.13-4.95-1.68-5.83-4.64-.4-1.33-1.51-2.33-2.67-3.06-2.77-1.77-5.83-3.11-7.38-6.36-.49-1.02-1.87-.99-2.98-1.26-2.74-.66-5.59-1.32-6.91-4.32.14-2.98-.27-5.97.23-8.94.48-14.18,3.85-27.44,12.18-39.2,2.39-3.38,5.84-5.7,8.31-8.97Z"/>
      <path class="cls-31" d="m336.96,678.5c-6.11.05-12.22.14-18.33.14-49.65.01-99.31.01-148.96.02-3.14-4.7-1.72-9.86-1.33-14.86.13-1.66,2.05-2,3.46-2.5,10-3.56,20.34-6.04,30.39-9.44,13.71-4.64,27.56-8.87,41.34-13.31,16.98-5.48,34.01-10.76,50.95-16.36,12.56-4.15,25.23-7.95,37.78-12.12,1.95-.65,4.19-1.66,5.41,1.26.53,4.24.23,8.48.24,12.72.04,16.36.03,32.71,0,49.07,0,1.83.43,3.78-.94,5.39Z"/>
      <path class="cls-18" d="m551.38,461.67c-5.38-5-10.79-9.96-16.13-15-2.17-2.06-4.33-4.12-3.69-7.68.8-4.48,4.84-7.04,9.12-5.53,1.67.59,3.05,1.62,4.4,2.76,7.35,6.14,14.72,12.26,22.13,18.34,1.32,1.08,2.66,3.27,4.65,1.55,3.28-2.85,3.57-5.87,1.03-8.29-8.92-8.51-17.9-16.97-26.85-25.45-.91-.86-1.85-1.68-2.71-2.59-3.41-3.57-3.61-7.87-.56-10.97,2.36-2.39,7.37-2.27,10.51.48,7.98,6.97,15.88,14.04,23.82,21.06,2.89,2.55,5.78,5.1,8.69,7.62,1.35,1.17,1.94,1.2,3.28-.64,2.62-3.59,1-5.72-1.34-8.27-9.67-10.56-19.24-21.2-28.84-31.82-3.85-4.26-4.27-7.67-1.39-10.9,3.03-3.4,7.94-3.64,11.18-.37,10.55,10.62,20.33,21.93,30.16,33.2.64.74.93,2.25,2.51,1.55,1.22,4.36,4.85,7.03,7.38,10.47,1.76,2.39,3.99,4.45,5.72,6.86,3.69,5.12,2.77,10.49.49,15.87-4.89,11.52-9.21,23.27-13.46,35.04-.06,4.3-2.36,7.56-4.93,10.7-2.15-.07-3.26,1.63-4.53,2.86-3.13,3.05-7.45,4.97-9.11,9.43-5.46,2.12-7.06,8.22-11.65,11.3-2,1.34-3.74,3.33-5.18,5.2-2.58,3.34-6.03,5.36-9.22,7.83-1.34,1.04-2.47,1.56-4,.68-5.88-2.85-11.93-5.37-17.4-9.02,4.01-9.96,8.03-19.92,12.04-29.87,3.67-8.38,6.92-16.93,9.87-25.59,1.23-2.75.4-4.8-1.88-6.69-1.48-1.22-2.95-2.55-4.14-4.11Z"/>
      <path class="cls-55" d="m596.32,499.45c1.72-3.5,3.45-7,5.17-10.5,6.21-5.19,11.44-11.42,17.75-16.53,9.29-7.53,19.14-13.9,31.02-16.55,16.81-3.75,30.45.9,40.49,15.17,6.95,13.25,7.51,27.16,4.32,41.47-.71,3.16-1.45,6.31-2.18,9.46-1.74.06-2.52-1.38-3.59-2.33-9.67-8.57-21.31-9.4-33.22-7.81-4.17.56-8.58,1.57-12.43,3.88-.94.56-2.42.22-3.66.29-.84-1.69.69-2.49,1.43-3.48,7.1-9.36,14.98-18.06,22.37-27.19,1.32-1.64,2.29-3.58,3.33-4.35-5.87,7.87-13.25,15.59-19.89,23.92-.39.49-.75,1-1.17,1.47-.87.98-1.65,2.73-3.18,1.9-1.4-.76-.69-2.47-.42-3.8,1.84-9.18,4.36-18.21,5.89-27.46-1.92,7.59-3.57,15.25-5.31,22.88-.89,3.89-2.02,7.73-2.76,11.66-.57,3.07-2.88,5.24-4.98,7.34-1.66,1.66-3.42,3.26-5.42,4.56-4.47,4.64-10.21,7.89-14.31,12.94-.69.84-1.81.63-2.77.76-1.38-1.46-.98-3.3-.93-4.99.35-11.3-3.7-20.44-12.97-27.13-1.21-.87-2.34-1.88-3.01-3.28-.27-.85-.15-1.62.44-2.3Z"/>
      <path class="cls-19" d="m349.43,557.63c.96-1.91,3.02-1.51,4.56-1.97,10.98-3.28,22.13-6.01,32.5-11.08.4-.2.96-.06,1.44-.08.54,1.19.29,2.46.29,3.69.01,42.27.02,84.54,0,126.81,0,1.21.39,2.5-.43,3.63l-1.39-.07c-10.08-.61-20.18-.12-30.26-.27-2.39-.05-1.73-1.6-1.33-2.89,1.27-4.1.36-7.77-2.02-11.2-2.22-3.21-1.53-5.66,1.9-6.1-2.91-3.67-4.08-7.64-2.73-12.23.5-1.7-1.25-2.89-1.68-4.45-.66-2.37-1.87-4.7.74-7.16-3.25-.33-3.87-1.21-3.83-4.49.04-2.71,1.73-6.67-1.6-9.17-.8-.6-.39-1.3.26-1.84,1.78-1.48,1.63-3.43.75-5.11-1.18-2.24-.65-3.66,1.33-4.92,1.49-.95,1.1-3.03,2.34-4.17,5.67-3.26,5.71-3.26,4.37-9.95-.78-3.87-1.16-7.81-2.08-11.66-1.05-6.91-2.52-13.74-3.55-20.65-.24-1.59-.71-3.21.43-4.68Z"/>
      <path class="cls-65" d="m353.43,583.31c1.56,5.83,2.27,11.8,3.19,17.75.22,1.41-.16,2.02-1.45,2.43-1.63.52-3.21,1.19-4.81,1.8-3.5,2.52-7.69,3.23-11.66,4.53-.65.17-1.3.37-1.97.53-2.9-.73-5.4.9-7.84,1.77-16.85,5.99-34.15,10.56-50.95,16.74-8.95,3.29-18.22,5.7-27.32,8.6-17.57,5.6-35.11,11.31-52.69,16.89-8.62,2.74-17.28,5.35-25.96,7.89-2.26.66-3.25,1.68-3.09,4.16.26,4.09-.25,8.23.78,12.27-7.01,0-14.02,0-21.04,0-1.51-1.84-.94-4.04-.99-6.11-.05-2.01-.66-2.92-2.88-2.74-6.89.57-13.79,1.54-21.05-.52,1.28,4.23,2.17,7.89,7.12,7.91.69,0,1.45.44,1.38,1.43-2.84.25-5.65.21-8.39-.69-.24.28-.47.29-.69-.02-.04-.12-.09-.23-.11-.35-1.76-8.71-9.18-12.11-15.51-16.53.65-1.38,1.98-1.14,2.93-.86,4.82,1.42,9.31-.24,13.38-2.13,3.19-1.48,6.34-1.96,9.64-2.46,2.6-.4,4.97-1.52,7.4-2.53,4.75-1.98,10.01-1.65,14.95-3.1,4.29-1.26,8.02-3.71,12.36-4.87,2.2-.59,4.28-1.99,6.68-2.12,5.16-.28,9.17-3.68,13.95-4.98,1.31-.36,2.51-1.24,3.91-1.17,7.36.37,13.55-3.29,19.77-6.22,4.93-2.33,10.14-3.6,15.23-4.87,9.31-2.34,18.29-5.52,27.33-8.61,5.29-1.81,10.77-2.98,16.13-4.53,6.79-1.97,13.63-3.88,20.21-6.33,4.99-1.86,9.93-4.32,15.06-5.39,9.49-1.99,18.15-6.36,27.64-8.45,6.79-1.49,13.6-4.58,19.35-9.1Z"/>
      <path class="cls-52" d="m630.82,677.84c-.96.07-1.93.14-2.89.21-9.05.54-18.1.14-27.15.22-6.33.05-12.66.11-18.98-.05-1.86-1.42-.77-2.89.04-4.24,1.47-2.47,3.14-4.81,4.75-7.19,10.56-15.63,20.11-31.91,30.62-47.58,2.17-3.24,4.77-5.1,8.56-5.97,12.78-2.94,25.5-6.12,38.45-8.26,4.17-.2,8.39.66,12.5-1.1,1.95-.83,3.86.26,4.5,2.25.7,2.18-1.37,2.5-2.79,3.19-2.34,1.14-5.11.83-7.6,2.19,1.29.58,2.05-.48,3.01-.4,1.33.1,1.91,1.05,2.24,2.17.29.98-.08,1.61-1.07,2.03-4.08,1.71-5.4,5.78-6.9,9.26-.8,1.86-1.78,3.33-2.95,4.84-.27.35-.79.3-.94.75.5-.07.93-.36,1.42-.44.37.04.63.24.8.57.24,1.59-.44,2.81-1.91,3.22-2.38.67-2.23,2.34-2.89,4.31-1.38,4.11-2.61,8.65-6.39,11.53-2.49,1.9-3.07,4.6-2.7,7.31.75,5.45.19,7.74-4.67,9.95-1.88.85-1.94,2.13-2.37,3.33-1.35,3.72-2.18,4.35-5.86,3.57-.96-.2-2.06-.78-2.71.33-1.39,2.38-4,2.8-6.1,4.03Z"/>
      <path class="cls-19" d="m435.15,443.95c-1.86.66-3.62,1.72-5.7,1.56-4.98-2.53-6.7-7.52-8.71-12.11-2-4.56-3.24-9.43-4.24-14.34-2.02-10.04-3.49-20.16-4.2-30.38-.42-7.34-1.03-14.69-.66-22.05.27-5.35.44-10.73,1.6-15.98,2.21-10.07,6.58-18.62,16.83-22.77,1.75-.71,2.34-1.95,2.12-3.86-2.97-26-10.24-50.39-26.57-71.43-2.16-2.78-4.84-5.05-7.01-7.79-3.72-4.47-8.75-7.32-13.31-10.74-1.76-1.32-4.02-2.42-2.77-5.32,1.38-7.47,1.25-7.25,7.77-3.11,26.47,16.82,40.07,42.04,47.01,71.61,2.1,8.95,3.31,18.08,4.53,27.19.15,1.1-.02,2.41,1.59,2.49,8.2.42,14.14,4.88,19.32,10.73,8.75,13.6,10.78,29.27,13.57,44.67,2.07,11.44,2.83,23.01,2.22,34.63-.26,4.97-.95,9.91-1.44,14.86-2.01.53-4.02,1.05-6.03,1.58-1.09-1.37-.48-2.88-.29-4.32.93-7.05,1.63-14.13,1.47-21.23-.43-19.71-3.94-38.91-10.4-57.55-1.54-4.42-4.01-8.37-7.46-11.52-11.33-10.35-27.97-5.53-32.47,9.32-1.64,5.41-2.02,11.02-2.61,16.6-.69,4.85-.66,9.7,0,14.54.74,10.7,1.61,21.38,3.34,31.98,1.72,10.56,4.2,20.83,11.2,29.38.77.94,1.65,1.94,1.29,3.35Z"/>
      <path class="cls-23" d="m666.06,629.93c-1.29.75-2.53,1.07-3.66-.31-.65-.8-.47-1.5.45-1.67,3.08-.57,3.09-.52,3.48-3.14.38-2.52,7.06-10.22,9.69-10.67-1.33-.71-.64-4.5-3.55-1.3-.9.99-2.48-.33-4.15-.54,1.28-1.76,2.82-2.44,4.54-2.57,2.01-.15,3.82-.81,5.66-1.49,1.01-.38,2.63-.27,1.99-1.87-.48-1.19-1.87-2.62-3.26-1.81-4.11,2.4-8.49.96-12.72,1.36-.01-1.56,1.31-1.66,2.29-1.9,5.12-1.26,10.3-2.23,15.27-3.31-.47-.19-1.35-.08-1.81-.84,1.37-1.68,3.02-2.98,4.94-4.02.46-.25,2.88-.86.02-1.91-1.29-.47.74-2.23,1.27-2.33,4.05-.83,4.29-5.57,7.58-7.13.66-.31-.08-1.12-.1-1.71-.08-3.54,2.03-6.02,5.81-6.84.18.2.32.32.41.36-.11-.03-.25-.14-.42-.35-.37-.99-1.34-2.04.04-2.96,1.59-1.05,2.63-2.19,1.75-4.31-.31-.75.45-1.68,1.2-1.43,1.5.51,3.12,1.22,3.85,2.68.44.88-.61.96-1.39.96-2.07,0-.56,1.71-1.12,2.45,1.74.51,2.29,3.13,4.62,2.58-.32,12.05-3.02,23.56-7.33,34.8-7.27,18.97-18.41,35.27-33.32,48.97-10,9.18-21.71,15.29-35.06,18.1-.72.15-1.49.04-2.24.05,1.35-2.49,4.87-2.56,6.04-5.4.19-.46,1.9-.61,3.11-.01,2.61,1.28,2.93.3,4.18-2.26.53-1.08-.42-4.73,3.18-4,.93.19,1.52-1.07,1.5-2.22-.01-.59-.01-1.49.81-1.43,5.24.37,2.27-3.72,2.08-4.96-.42-2.73.05-7.43,2.44-8.7,3.61-1.92,3.75-5.86,5.69-8.72,1.04-1.54.44-3.2.81-4.77.31-1.31.81-2.45,2.38-2.4,2.16.07,2.77-1.27,3.01-3.04.43-.44.95-.76,1.62-1.21-.71.4-1.2.76-1.62,1.22Z"/>
      <path class="cls-55" d="m.95,537.69c3,.28,5.13,3.71,8.6,2.36.21-.08.77.27.89.54,1.86,4.29,6.23,5.79,9.44,8.58,2,1.74,2.03,5.18,5.4,5.92,1.08.24,1.67.78,3.13.46,2.22-.5,3.32,2.04,4.31,3.86.41.74.26,2.09.81,2.41,6.1,3.54,6.07,11.28,10.85,15.73,1.02.95,1.4,2.6,2.88,3.27,4.22,1.92,4.87,6.66,7.67,9.69,3.7,4.01,7.08,8.18,8.54,13.6.18.66.71,1.38,1.29,1.75,1.42.92,4.46.71,2.31,3.79-.04.06.02.31.09.34,3.87,1.73,4.33,6.16,6.94,9,1.66,1.81,3.39,4.32,4.1,7.11.73,2.86.91,6.11,4.72,7.15,1.63.44,1.5,2.29,1.03,3.55-.73,1.96.03,3.09,1.21,4.62,2.03,2.62,2.49,6.03,3.43,9.18.37,1.23-2.06,3.29,1.24,3.75.61.08-.1,1.55-.22,2.38-.25,1.8-.88,3.82,1.63,4.71.33.12.89.43.87.6-.62,4.59,4.64,7.08,4.13,11.67-.19,1.7,2.24,2.36,2.18,4.18-3.3.85-6.66.32-9.98.34-2.26.02-2.14-2.01-2.32-3.56-.08-.71.93-1.9.5-2.01-4.84-1.25-2.45-6.51-5.22-9.32-1.74-1.77-1.59-6.24-1.42-9.49-1.06,1.18-1.84,2.13-3.01-.42-2.16-4.7-3.17-9.73-4.86-14.55-.35-.99-.12-1.54,1.05-2.08-.88.11-1.22.46-1.54.77-.66.64-1.38,1.29-2.27.68-1.03-.7-.94-2-.21-2.64,2.88-2.51.81-4.32-.85-5.92-2.24-2.15-3.35-4.99-4.35-7.65-1.35-3.59-3.44-5.69-7.04-6.55-2.48-.59-1.95-2.64-1.8-4.27.39-4.47-.53-6-4.72-6.92-1.35-.3-1.79-.81-1.7-2.28.32-5.35.03-5.73-4.83-7.85-1.06-.46-2.28-.88-2.05-2.28.59-3.56-2.01-4.72-4.4-5.97-.81-.43-1.73-.8-1.86-1.66-.32-2.1-2.48-3.34-2.93-4.61-1.98-5.62-9.07-7.31-9.84-13.76-.23-1.96-2.99-1.17-4.07-.48-2.65,1.67-3.04-.01-3.34-1.86-.44-2.77-1.01-4.7-4.77-4.29-2.03.22-4.83-1.04-3.36-4.52.26-.62-.02-.81-1.09-1.06-.95-.22-2.02-.74-2.29.86-.16.98.1,2.06-.43,2.94-.59.98-1.17.59-1.58-.25-1.24-3.18-.82-6.51-.86-9.8-.97-3.24.14-6.48-.03-9.71Z"/>
      <path class="cls-55" d="m71.33,675.09c-7.18-2.04-13.26-6.12-18.97-10.69-11.36-9.1-19.47-21-26.33-33.52-8.62-15.74-15.95-32.17-20.21-49.75-.23-.95-.29-1.95-.43-2.93,3.6-.87,4.31-.33,4.17,2.72-.1,1.98-.08,4.31,3.12,2.7.72-.36,1.33-.09,1.46.59.54,2.71,1.73,5.13,3.01,7.54.34.65-.09,1.46-.68,2.13,3.09-1.71,3.45-1.56,4.93,1.98.98-.14,1.43-.83,1.83-1.63.35-.72.38-1.99,1.56-1.72,1.35.3,1.43,1.62,1.46,2.74.05,1.83-1.75,4.28,1.75,4.86-.72,3.96,2.24,2.61,4.11,2.83.5.06,1.33.1,1.37.42.3,2.56,1.97,4.12,3.53,5.96.88,1.04-.98,1.67-2.1,1.95.19.38.58.44.92.58,1.13.48,2.73-1.13,3.42.36.8,1.72-1.49,2.38-1.9,3.72-.44,1.44-3.17,1.5-2.13,4.06-.11-2.93,1.68-3.32,3.63-3.36,2.01-.04,1.84,1.04,1.71,2.72-.1,1.26.43,2.88,1.28,4.48.27-3.35,1.89-4.67,4.63-4.13.76,1.29,3.07,1.19,2.94,3.28-.15.67-.62.96-1.22,1.26-3.67,1.87-3.97,6.11-.6,8.43.95.65,2.26,1.4,2.08,2.43-.43,2.38,1.99,3.01,2.37,4.22,1.06,3.44,4.77,3.63,6.35,6.45,1.9,3.41,2.69,4.83,1.31,8.36-.14.36-.25.75-.07,1.08.29.56.29-.09.33-.1,3.72-.25,4.51.87,2.99,4.18-.16.34-.16.73-.2,1.1-.07.18-.09.28-.06.29.04.02.12-.05.14-.21.03-.25-.04-.55.08-.73.84-1.2,1.15-3.67,3.11-2.82,2.17.95,1.12,2.68.08,4.32-1.51,2.37-2.18,5.02-.66,7.74.27.18.54.35.83.5,2.14.48,3.22-.57,3.76-2.52.2-.73.63-1.38,1.54-1.28.88.1,1.17.82,1.34,1.55.65,2.84.74,5.59-1.56,7.85Z"/>
      <path class="cls-55" d="m48.93,623.17c.16-2.16-3.17-.81-2.99-2.99.86-1.15,2.67-.79,3.42-2.25-1.32.55-2.13.19-2.28-1.27-.12-1.12-.18-2.35-1.25-3-1.81-1.1-2.42-2.18-.28-3.54.29-.19.81-.56.52-.8-3.14-2.53-1.27-5.97-1.71-8.99-.05-.35-.31-.68-.11-1.06-1.3,1.35-2.58,3.51-4.03.13-.15-.35-.38-.9-.68-.81-4.49,1.29-3.81-3.48-5.89-5-1.51-1.11.86-1.67.59-2.75-1.69,1.26-7.53,1.05-8.68-.22-.86-.95-.16-2.09,2.05-3.43-2.22.73-3.5.01-3.65-2.51-.02-.36.59-1.07,0-1.03-4.06.27-1.65-2.11-1.46-3.91-2.36.89-5.18-1.22-7.02,1.81-.51.85-1.37.41-1.89-.18-.79-.89-1.26-1.94-.37-3.03.63-.77,1.66-1.13,2.33-1.86,1.63-1.75,3.56-3.51,1.34-5.67.98,2,.02,5.1-2.24,6.28-.45.24-.99.57-1.4.35-1.36-.7-1.74-2.54-3.17-3.08-1.65-.63-2.53-1.49-2.03-3.33.1-.36.16-.9-.12-1.07-2.62-1.63-2.26-5.64-5.45-6.79-.21-1.99-1.07-3.92-.63-5.98,2.06.8.82-.58.84-1.22.05-1.3.75-2.52.09-4.13,1.95.48,3.39.78,4.8,1.2.85.26,1.78.8,1.76,1.74-.03,1.51-1.08.1-1.61.4-1.17.67-.27,1.23.11,1.74,1.94,2.62,4.33,1.8,6.99.58.29,2.85,2.2,5.08,1.84,8.3.56-4.8,5.38.72,6.31-3.39-.61,4.92,3.89,7.21,4.77,11.17.05.24.77.59.85.52,3.73-3.26,3.52,1.77,3.6,2.34.31,2.22.96,3.62,3.31,3.92,1.09.14.28.76.36,1.2.25,1.45-.63,3.33,2.54,3.56,1.21.09,6.5,2.06,4.16,6.59-.26.51-.14,1.12.38,1.25,2.49.65,5.05,1.1,6.5,3.64.05.09.66-.14,1.85-.43-2.94,2.25.51,5.14-2.37,7.37,4.83-2.79,5.32,2.32,7.77,3.62,1.17.62-.19,1.99-.51,3-.8,2.59-.83,4.64,2.77,4.74,1.68.05,4.64,3.83,5.25,5.57,1.34,3.79,3.29,7.38,6.15,10.17,1.82,1.78.93,2.91.21,4.46-.38.81-1.84,1.18-.94,2.74,1.45-.62,2.79-1.29,3.12-3.14,1.21.61.91,1.45.55,2.25-.2.44-.5.82-.76,1.23,3.66-.12,1.25,2.19,1.45,3.51.3,1.96.4,4.12,1.33,5.76,1.26,2.22,3.37,3.98,2.54,6.98,2.07-.32,1.57-1.98,2.02-2.97,1.15.17,1.42.97,1.12,1.66-1.43,3.35,2.18,6.38.54,9.77-.29.6.93.54,1.41.85,1.54.98,1.85,2.68,1.07,4.67-.69,1.77,1.21,2,1.97,2.53,1.44,1.01,4.05,1.01,1.16,3.58-.51.45-.35,3.41,2.27,3.38,3-.04,6-.02,8.99-.02,8.24,0,16.47.02,24.7.03.23.02.46.02.69.02-.7.99-1.77.76-2.73.76-10.96-.02-21.92-.03-32.88-.12-1.6-.01-3.19-.44-4.79-.67-1.87-1.13-4.44-.73-5.92-2.71-.64-.91-.87-1.93-.85-3.03.2-1.16-.07-2.44-.95-2.98-3.84-2.34-1.88-4.28.24-6.29,2.3-2.01-1.08-3.65-.79-4.66-.2,1,2.72,2.66.8,4.65-2.89.58-5.02-.67-5.55-3.65-.47-2.63-.99-5.27-3.02-7.05-1.71-1.5,3.16-2.82-.25-4.33-1.77-.78-1.59-1.96-.74-4.89-1.61-1.19-4.42-.4-5.13-3.02-.59-2.14,1.63-3.89,1.02-6.12-1.66-.51-2.12,2.99-4.07,1.16-.59-.56-.84-1.26-.58-2.04.48-1.48,1.37-2.38,3.08-1.9-1.16-.58-1.97-.27-2.78.78-1.55,2.03-3.53,1.53-4.64-.18-.67-1.03-1.68-3.78,1.88-3.1.69.13.07-.63.1-.96.08-.74-.2-1.71.13-2.21,1.81-2.74.65-3.93-2.04-4.74-.64-.19-.94-1.76-1.26.25-.25,1.52-1.22,2.77-3.17,2.25Z"/>
      <path class="cls-55" d="m2.46,563.18c.84.23,1.7.72,2.5.64,2.17-.21,3.57-.29,1.18,2.07-.52.51-.23.67.79,1.86.73.86,2.8,1.21,2.39,2.01-2.28,4.43,4.3,3.59,3.94,6.89-.05.48,1.37-.29,1.7-.71.85-1.12,2.59-2.03,1.54-3.87-.69-1.21-1.25-2.36-.41-3.82.29.26.5.36.58.52,2.52,4.85,2.37,5.6-1.92,9.25q-1.44,1.23-.17,3.32c2.35-5.25,6.6-1.03,9.95-1.85-.85,1-1.7,2-2.55,3,1.81,1.6,2.06-.91,3.12-1.03.91.96.32,1.66-.19,2.37-.71,1-.23,2.11.33,2.73.42.46,1.58.49,2.38-.2.65-.56,1.49-1.99,2.21-.24.51,1.24-.86,1.56-1.7,2.03-.64.36-1.57-.19-2.04.62-.29.49-.42,1.62-.03,1.44,2.28-1.08,3.53,1.44,5.44,1.34.25-.01.56.11.73,0q2.33-1.43,4.32.14c-.52,1.28-1.83.35-2.67.99.86.58,2.08.98,2.44,1.77.33.74-.24,1.9-.42,2.85,1.8,1.28,5.97-1.82,5.38,3.14,1.91-.12,2.33-1.4,2.63-2.91.81.91.39,2.27,1.49,2.88.96.53,1.17,1.07.17,1.96-2.03,1.81-.45,5.05.13,5.46,3.66,2.65-.18,2.85-1.19,4.2,3.28.54,3.85,2.81,3.39,5.52,1.32.37,1.36-1.11,2.24-1.2.85,1.78-1.32,3.74-4.22,3.84-1.77.36-2.92,1.58-2.46,3.01.41,1.24-.58.69-.89.89-.8.51-2.11.65-2.18-.33-.15-1.92-2.54-3.82.43-6.07-2.08-.19-3.7-.83-4.8.54-1.09,1.37,1.72,1.28,1.13,2.87-1.03-.01-2.23-.03-2.9-1.25-.73-1.31.54-1.86,1.1-2.78,1.01-1.64,2.18-3.11,3.61-4.84-2.85,2.15-4.2.55-5.52-1.63,1.05-.7,2.82.39,3.05-1.12.06-.4-1.22-1.61-2.9-1.26-1.48.31-1.36-1.37-.65-2.36,1.63-2.29-.04-2.1-1.51-2.14-.92-.03-1.73.97-2.79.04-.64-.57-2.02,1.32-2.64-.44-.49-1.41,1.31-1.62,1.61-2.52-6.48-.77.08-5.88-3.06-7.79-.46,2.04-.74,4.57-3.99,3.86-.49-1.03.35-2.84-1.38-3.38-1.78-.55-1.87,1.43-3.67,3.06,2.6-5.37-2.85-8.01-1.88-12.6-1.59,2.39-2.8,1.67-4.33.21-1.86-1.78-1.43-3.26.22-4.86-1.49-.56-2.7-1.24-4.14-1.09-1.74-4.86-2.27-9.95-2.94-15.01Z"/>
      <path class="cls-55" d="m48.93,623.17c2.06-.49,2.3-2.41,3.09-3.9.35-.66.88-1.44,1.73-1.02,1.27.63-.13.93-.19,1.33-.16,1.08,1.15.87,1.79,1.08,2.61.84,2.79,1.6,1.22,3.84-.59.84-.21,2.21-.43,3.37-.38,2.04-.1,2.1-2.39,1.09.94.71-1.58,2.16,1.1,2.84,1.76.44,2.2.19,3.05-1.15,1.22-1.93,3.3.62,4.79-.61.44.77.06,1.19-.66,1.31-.86.15-1.79.01-2.58.29-.87.31-1.31,1.2-1.27,2.1.02.38.52,1.01.87,1.06,1.29.2.55-1.16.97-1.48.87-.64,1.99-1.32,3.06-.91,1.41.54.49,1.65.25,2.54-.06.24-.13.49-.13.74-.03,1.77-2.57,3.55-.76,4.95.64.49,2.57,1.85,4.59.94.93-.42,2,1.21.49,2.5-1.96,1.68-1.44,2.82.91,3.15,1.47.2,1.85,1.72,1.39,1.98-2.69,1.54-.36,3.02-.02,4.34.57,2.19,1.29,4.31,1.74,6.55.31,1.52,2.13,3.09,4.38,2.82h0c-1.15,3.27-1.23,3.34,1.49,6.72.79.98.24,1.53,0,2.29-2.16,1.6-.28,2.18.75,2.97,1.42,1.58,4.35.52,5.26,3-4.3.21-8.25-1.05-12.09-2.82-.57-2.45,2.06-4.5.85-7.06-.24-.5.04-1.22-.81-1.74-1.48.99.35,4.76-3.12,4.16-.97-.17-2.46,1.58-2.83-.78.61-.59,1.22-1.19,1.61-1.97-.46.72-.98,1.39-1.61,1.97-1.37.09-1.19-.27-1.41-1.7-.5-3.27-.21-5.9,2.17-8.19.96-.92.32-1.73-.26-2.22-1.04-.88-.94.53-1.42.87-1.75,1.23-.39,3.64-2,4.97-2.39-1.83-.42-3.85.31-5.07,1.24-2.05-.43-1.99-1.21-2.63-2.02-1.65-.95,1.27-1.71,1.29-2.53-2.42-.89-4.29,1.24-5.94-1.63-.7-1.8,1.27-3.17.6,1.04-1.56,3.31-3.31-.12-4.62-1.76-.67-.62-4.6-3.99-3.49-.28.09-.75-.64-1.17-.71-2.49-.42,1.05-2.47-.87-3.07-1.29-.41-2.57-.9-3.75-1.54-.54-.3-.1-.94.25-1.26,2.13-1.99.05-3.16-1.14-3.6-3.18-1.18-2.82-3.93-2.81-6.15.02-2.52,1.83-4.04,4.55-4.03Z"/>
      <path class="cls-13" d="m680.29,599.87c1.06.09,2.13.19,4.24.37-6.94,3.5-13.93,3.01-19.99,5.68-8.27,1.66-16.56,3.22-24.81,5-5.22,1.12-10.34,2.75-15.57,3.77-2.5.49-3.93,1.83-5.22,3.75-8.32,12.39-16.24,25.03-24.13,37.7-4.4,7.06-9.04,13.96-13.58,20.93-.28.58-.48,1.31-1.4.84-.79-.03-1.58-.07-2.38-.1-.76-2.53,1.3-3.95,2.5-5.47,5.26-6.67,9.48-14.03,13.97-21.19,4.31-6.86,9.06-13.43,13.19-20.36,4.73-7.93,9.6-15.79,15.06-23.18,5.12-6.94,9.57-14.27,13.99-21.59,3.8-6.3,8.34-12.06,12.22-18.29.67-1.07,1.12-4.15,3.6-1.51-1.65,3.04-3.3,6.08-5.37,9.91,4.72-1.37,8.77-2.56,12.82-3.72,7.17-2.04,14.34-4.08,21.53-6.03,1.1-.3,2.91-.94,3.32.45.5,1.71-1.54,1.59-2.57,1.9-11.56,3.46-23.14,6.87-34.73,10.22-1.77.51-3.3,1.33-4.27,2.82-6.4,9.87-12.72,19.79-19.22,29.93,19.21-4.01,38-7.93,56.8-11.85Z"/>
      <path class="cls-1" d="m651.98,566.23c-1.7-1.58-1.86.55-2.26,1.14-5.75,8.47-11.73,16.8-16.81,25.69-6.2,10.85-14.19,20.49-20.77,31.08-8.33,13.43-16.84,26.76-25.36,40.07-2.96,4.63-6.2,9.08-9.32,13.61-1.15,1.01-2.34,1.11-3.59.18,4.08-6.94,8.36-13.75,13.1-20.25,3.71-5.08,6.31-10.81,9.81-16.01,4.34-6.47,8.73-12.91,12.88-19.51,3.6-5.72,7.68-11.1,11.07-16.99,2.67-4.64,6.27-8.8,9.02-13.5,2.98-5.09,6.18-10.05,9.28-15.07,1.23-1.07.85-2.44.69-3.77-.13-1.03-.95-2.14.29-3.04.87.57,1.34,1.42,1.53,3.44,2.7-6.02,7.42-9.41,9.96-14.43.18-.35,1.27-2.87,1.72.16.1.7,1.53.23,1.26-.66-1.65-5.51,2.79-5.86,6.24-7.18-2.06,5.5-4.69,10.66-8.72,15.04Z"/>
      <path class="cls-38" d="m500.2,675.69c.12,1.04.22,2.08-.62,2.91-.47-.06-.93-.12-1.4-.17-.87-1.25-.43-2.67-.43-4-.03-32.79-.02-65.58-.02-98.38,0-18.68,0-37.37-.01-56.05,0-1.35.28-2.74-.3-4.06-.01-1.01-.58-2.21.56-2.9.61-.37,1.39-.23,1.74.63.56,11.38.09,22.78.24,34.16.02,1.36,0,2.73,0,4.09,0,17.73,0,35.46,0,53.19,0,22.17,0,44.34.01,66.5,0,1.36-.22,2.74.24,4.08Z"/>
      <path class="cls-35" d="m132.22,678.63c-5.8.33-8.06-3.44-9.49-8.18-.18-.58-.49-1.13-.78-1.79,1.71-1.16,3.2.09,4.61.33,6.61,1.14,13.14.23,19.66-.5,2.24-.25,2.61.49,2.56,2.32-.08,2.61-.09,5.23-.13,7.84-5.47-.01-10.95-.02-16.42-.03Z"/>
      <path class="cls-83" d="m387.78,678.63c.04-43.21.07-86.42.11-129.63,0-1.5.02-3,.04-4.49.23-.29.46-.58.69-.88-.01,43.59-.01,87.19-.06,130.79,0,1.41.63,3.03-.77,4.22Z"/>
      <path class="cls-71" d="m498,576.04c.06,34.13.12,68.26.18,102.39-1.17-.62-.77-1.75-.77-2.67-.06-33.05-.09-66.09-.11-99.14,0-.24.1-.49.15-.73.27-.26.46-.22.55.15Z"/>
      <path class="cls-19" d="m465.99,451.3c2.47-1.64,5.2-2.35,8.15-2.19-2.68,4.35-5.74,8.35-10.51,10.64-1.12.54-2.36,1.26-3.32-.08-.99-1.37.2-2.28,1.03-3.15,1.61-1.69,3.54-3.08,4.64-5.22Z"/>
      <path class="cls-85" d="m401.91,27.12c-5.66-4.04-11.32-8.07-16.99-12.11,4.13-1.87,8.44-.63,12.68-.73-1.15,1.86-3.84.91-5.42,3.02,2.31-.03,2.92,3.46,5.67,1.8.34-.21,1.33.82.96,1.26-3.14,3.76,1.36,3.39,2.54,4.76.46.53,1.56.48,1.66,1.34.07.59-.65.56-1.1.66Z"/>
      <path class="cls-74" d="m336.74,610.34c.15-.55.22-1.17.98-1.22,1.44,1.71,1.05,3.78,1.06,5.73.04,18.07.09,36.13-.05,54.2-.02,2.8,1.38,5.63-.06,8.41-.3.37-.63.72-.98,1.04l-.36.07s-.36-.07-.36-.07c-.03-21.47-.06-42.95-.1-64.42,0-1.25-.08-2.49-.12-3.74Z"/>
      <path class="cls-45" d="m498,576.04c-.18-.06-.36-.11-.55-.15-.01-19.98-.02-39.96-.03-59.94.6.57.63,1.32.63,2.08-.02,19.34-.03,38.68-.05,58.02Z"/>
      <path class="cls-53" d="m499.66,605.12c.03-17.75.06-35.49.09-53.24.16.03.32.07.47.1.08,17.45.16,34.9.24,52.36-.1.31-.2.62-.31.92-.17-.05-.33-.09-.5-.14Z"/>
      <path class="cls-49" d="m337.68,678.49c.04-.24.09-.48.15-.72,2.64-1.59,6.3-.18,8.55-2.91,2.18,2.91,5.96,1.19,8.53,2.97,9.18.04,18.36.05,27.54.13,1.32.01,2.75-.42,3.93.59-16.24-.02-32.47-.04-48.71-.06Z"/>
      <path class="cls-33" d="m579.83,677.92c.47-.28.93-.56,1.4-.84,1.31,1.41,3.04.83,4.58.84,14.04.08,28.08.1,42.12.13-.81.79-1.85.63-2.82.64-14.07.03-28.14.06-42.21.06-1.05,0-2.29.36-3.06-.82Z"/>
      <path class="cls-1" d="m540.78,676.48c.56,2.18,2.36,1.42,3.69,1.43,9.8.07,19.59.06,29.39.07-.8,1.15-2.01.75-3.08.78-9.18.26-18.38-.45-27.57.43-1.58.15-3.88.36-4.74-1.98.77-.25,1.54-.49,2.3-.74Z"/>
      <path class="cls-26" d="m500.23,551.98c-.16-.03-.32-.06-.47-.1-.01-12.74-.03-25.47-.04-38.21.2.44.57.88.57,1.32,0,12.33-.02,24.65-.05,36.98Z"/>
      <path class="cls-19" d="m440.85,459.44c2.07-2.11,4.69-2.22,7.39-2.1,1.83,2.41.97,3.65-1.79,3.82-1.56.1-3.25.49-4.58-.84-.56-.04-.97-.26-1.02-.88Z"/>
      <path class="cls-61" d="m.95,537.69c1.12,3.23-.17,6.48.03,9.71-1.57-2.35-.79-5.01-.76-7.49.04-4-.76-8.07.58-12.02.05,3.26.1,6.53.15,9.79Z"/>
      <path class="cls-15" d="m466.49,315.85c1.14.35,2.1,1.08,2.22,2.46.08.87-.73,1.51-1.4,1.32-1.23-.33-1.86-1.46-2.07-2.69-.12-.71.4-1.09,1.25-1.1Z"/>
      <path class="cls-85" d="m405.86,14.29c-2.5,1.64-5,.51-7.5,0,2.5-1.31,5-.99,7.5,0Z"/>
      <path class="cls-27" d="m440.85,459.44c.34.29.68.59,1.02.88-.25.54-.5,1.07-.74,1.61-1.47.14-3.22-.37-3.22-1.66,0-1.34,1.72-1.24,2.93-.83Z"/>
      <path class="cls-31" d="m382.53,228.74c-.55,2.81,1.87,3.48,3.45,4.66,4.45,3.32,9.33,6.1,13,10.39-.7,1.37-.91,2.9-.86,4.37.25,7.24-.6,14.44-.88,21.66-.7,17.54-.95,35.1-2.25,52.61-.32,4.34.07,8.72-.08,13.08.06.92-.06,1.82-.25,2.71-1.1,4.64-.22,9.36-.56,14.03-.98,2.53.71,5.5-1.25,7.88-1.7-.23-1.83,1.38-2.42,2.25-9.1,13.6-18.42,27.04-27.48,40.65-4.08,6.13-8.24,12.21-12.41,18.28-2.17,3.16-2.95,3.35-5.99,1.05-13.43-10.17-26.92-20.28-40.02-30.87-1.08-.87-2.08-1.78-3.49-2.06-4.55-7.89-7.98-16.33-11.77-24.57-8.28-18.02-16.44-36.09-24.87-54.04-8.11-17.27-16.25-34.52-25.55-51.19-.67-1.21-1.18-2.48-1.55-3.81.79-6.27,3.32-11.92,6.36-17.35,3.37-6.02,7.43-11.5,13.26-15.44,1.34-.91,2.63-1.9,4.33-2.05,1.13.23,1.56,1.15,2,2.05,8.66,17.83,17.15,35.74,25.79,53.59,9.62,19.86,18.64,40,27.72,60.11.67,1.49,1.43,2.9,2.57,4.09,3.57,9.87,8.23,19.26,12.41,28.86,5.33,12.24,10.96,24.35,16.56,36.47.52,1.12.95,2.3,1.98,3.51,1.57-3.81,2.16-7.68,2.78-11.52,2.58-16.02,5.63-31.96,7.79-48.04.05-.37.2-.72.33-1.07,1.06-1.55.78-3.38,1.08-5.08,4.13-23.36,7.82-46.79,12.1-70.12,2.48-13.5,4.26-27.13,6.32-40.71.19-1.23.11-2.51.96-3.56.28-.27.57-.54.85-.81Z"/>
      <path class="cls-8" d="m366.25,190.44c-4.06-1.44-8.34-.61-12.51-1.27-16.79-2.67-31.69-9.19-44.09-20.95-5.74-5.44-9.73-11.99-10.99-19.92-.31-1.93-1.31-2.37-2.92-2.74-12.09-2.75-20.57-13.37-20.51-25.59.05-12.38,7.29-19.72,19.64-19.3,14.76.5,26.78-4.7,35.99-16.22,4.03-5.04,6.65-10.79,7.64-17.22.34-2.2.58-3.49,3.36-1.56,9.76,6.75,20.12,12.42,31.49,16.08,4.77,1.53,9.69,2.3,14.61,3.09,3.69,1.01,7.55-.39,11.23.74,1.17,2.76.57,5.66.45,8.46-.65,14.9-.78,29.86-2.93,44.63-1.94,13.36-3.52,26.92-11.19,38.66-3.91,5.99-9.5,9.65-16.22,11.8-1.06.34-2.05.88-3.07,1.33Z"/>
      <path class="cls-11" d="m318.78,340.44c-2.21.99-1.86-1.39-2.18-2.05-4.33-9.06-8.58-18.17-12.63-27.37-5.9-13.42-12.23-26.63-18.59-39.84-7.87-16.35-15.64-32.73-23.47-49.1-.15-.32-.44-.57-.67-.86-1.12-.73-1.72-1.62-.89-2.94,3.11-5.56,8.15-8.95,13.49-12.01,1.99-.53,3.27.95,4.67,1.8,17.11,10.42,34.31,20.69,51.54,30.91,6.06,3.6,6.03,3.52,10.86-1.71,2.7-2.93,5.22-6.02,8.04-8.82,1.49-1.1,1.85-3.57,4.28-3.52,1.4,2.14,2.84,4.09,5.6,1.63.25-.22.85-.43,1.03-.3,3.17,2.42,5.93-.85,9.02-.64,3.65.25,6.5,1.89,9.52,3.5.9.48,2.16.3,3.26.42.62,5.55-.97,10.9-1.77,16.28-2.15,14.5-4.66,28.95-7.09,43.41-1.75,10.41-3.62,20.81-5.4,31.21-1.48,8.7-2.93,17.4-4.34,26.11-.18,1.13-.15,2.26-1.35,2.87-1.33-.82-1.49-2.24-1.78-3.56-3.82-17.17-7.56-34.36-11.3-51.55-1.03-4.73-.41-8.57,2.53-12.59,6.23-8.54,6.11-5.48.61-14.27-3.91-6.24-8.24-12.2-12.34-18.31-2.19-3.27-4.13-3.38-6.42-.24-5.29,7.26-9.99,14.93-15.14,22.29-1.16,1.66-1.01,3.18.27,4.77,1.96,2.42,3.59,5.14,5.7,7.42,2.55,2.76,3.16,5.91,2.56,9.36-2.48,14.51-3.71,29.18-5.91,43.73-.22,1.47-.35,3-1.75,3.97Z"/>
      <path class="cls-60" d="m353.25,224.93c-1.51,1.01-2.07,2.98-3.8,3.78-1.55.26-2.46-.76-2.85-1.91-1.67-4.96-6.85-6.58-9.63-10.36-2.74-3.72-6.71-6.2-9.3-9.95-2.05-2.98-4.31-5.68-6.89-8.25-2.95-2.93-5.72-6.24-7.99-9.67-1-1.5-2.97-4.62-.81-7.28,2.02-.44,3.32.65,4.44,2.1,1.98,2.57,4.32,4.82,6.38,7.32,1.94,2.36,4.7,3.66,6.82,5.92,3.63,3.86,7,8.03,11.17,11.38.51.41.95.82.93,1.52-.05,1.65.21,2.56,2.23,1.59.85-.41,1.55.52,1.55,1.58,0,2.86,1.27,4.25,4.28,4.41,2.98.16,4.58,2.4,5.73,4.93-.76.97-1.52,1.93-2.28,2.9Z"/>
      <path class="cls-58" d="m355.53,222.04c-2.44-.26-2.51-3.42-5.08-3.95-1.28-.27-3.03.65-4.4-1.45-.92-1.41-2.68-1.86-1.27-3.92.29-.43.03-1.02-.62-1.04-.32-.01-.73.15-.94.38-.42.46.57,2.07-1.2,1.45,1.24-1.78-3.27-1.02-1.38-3.15.65-.74.34-.9-.47-1.72-2.4-2.42-5.53-4.1-7.21-7.3-1.48-2.81-5.39-3.65-6.12-7.19-5.87-1.55-7.93-7.02-11.46-11-.75-.84-2.17-1.09-3.28-1.61-.29.27-.57.27-.86,0-.3-.98.17-1.67.88-2.25,6.2,3.92,11.52,8.98,17.32,13.44,1.31,2.55,3.76,3.88,5.97,5.39,4.87,3.33,9.27,7.15,13.42,11.35,2.57,2.6,6.3,3.74,9.37,5.76.7.47,1.65.54,1.89,1.55-1.52,1.75-3.03,3.5-4.55,5.25Z"/>
      <path class="cls-5" d="m360.08,216.79c-4.59-.37-7.91-3.65-11.14-6.11-1.83-1.39-5.56-2.21-5.8-6.02-.03-.53-3.15-2.54-5-3.64-3.06-1.82-6.02-3.79-8.59-6.31-.73-.72-.43-1.3-.11-1.98,7.39,4.89,14.38,10.32,21.38,15.74,3.36,2.61,6.5,5.67,10.82,6.8-.16.87-1,1.05-1.55,1.52Z"/>
      <path class="cls-57" d="m630.31,338.11c-18.86.03-37.72.05-56.58.08,1.37-.81,2.9-.61,4.38-.62,16.33-.04,32.65-.05,48.98-.05,1.09,0,2.27-.24,3.22.59Z"/>
      <path class="cls-44" d="m399.2,85.56c-3.74-.39-7.57.78-11.24-.74,3.76.03,7.52.06,11.28.09.03.22.01.44-.04.65Z"/>
      <path class="cls-55" d="m83.36,348.04c-5.62-1.75-11.19-3.79-17.25-3.21-2.64-6.98-6.05-13.63-8.6-20.67-5.53-15.33-8.82-31.13-10.86-47.23-3.02-23.86-2.54-47.86-1.95-71.8.54-21.97,3.6-43.68,11.54-64.42,7.77-20.3,18.85-38.2,36.79-51.17,28.46-20.58,66.71-19.02,93.62,3.52,19.87,16.64,30.95,38.42,37.72,62.82,6.49,23.42,7.94,47.39,7.39,71.54-.12,5.22.73,10.49-.6,15.66-.14.12-.29.25-.43.38-6.89,1.53-12.94,5.14-19.32,7.89-16.14,6.96-31.97,14.6-47.96,21.88-6.58,2.99-13.06,6.2-19.41,9.66-2.66.93-3.81-.31-3.84-2.83-.11-8.62-.16-17.24.03-25.86.03-1.28.58-2.4,1.22-3.5,10.03-17.02,21.38-33.18,32.01-49.81,4.06-6.35,8.33-12.58,12.11-19.11-9.93,14.83-19.5,29.9-29.38,44.76-4.08,6.13-8.09,12.31-11.92,18.6-.64,1.05-1.36,2.58-2.67,2.29-1.63-.36-1.39-2.18-1.42-3.5-.11-4.25-.04-8.5-.05-12.74,0-20.24-.13-40.49.04-60.73.13-14.85-.84-29.69-.51-44.54.18-5.77-.4-11.57.31-17.31-.7,5.94-.12,11.93-.31,17.89-.04,4.8.09,9.59-.07,14.38-.81,6.76-.17,13.56-.37,20.33-.11,18.09.04,36.19-.08,54.29-.05,6.73.03,13.47.03,20.2,0,1,.03,2-.06,2.99-.09.99-.05,2.2-1.05,2.65-1.26.57-2.08-.52-2.78-1.35-3.43-4.12-6.77-8.33-10.06-12.57-11.62-14.91-24.35-28.9-36.11-43.7,9.69,12.51,19.99,24.52,29.95,36.82,5.81,7.18,11.63,14.35,17.42,21.55,1.51,1.88,2.69,3.85,2.69,6.41,0,11.48.02,22.97-.02,34.45,0,.88-.09,1.75-.47,2.56-4.25,4.25-9.63,7.03-14.18,10.94-12.74,10.95-21.42,24.53-27.16,40.16-1.51,4.11-2.59,8.34-3.86,12.52-.25.83-.44,1.7-1.21,2.26-2.17,1.11-3.73-.39-5.4-1.3-1.18-.64-2.31-1.4-3.5-2.03Z"/>
      <path class="cls-51" d="m311.42,181.48c.23,0,.45.02.67.06-.71,2.44,2.09,8.48,4.85,10.43.49.35,1.34.54,1.49.98,1.99,5.87,8.52,8.27,10.65,14.2.71,1.98,3.93,2.93,5.47,4.79,3.27,3.95,6.68,7.65,10.98,10.53,2.13,1.43,1.06,5.11,3.91,6.24-3.94,4.62-7.9,9.21-11.79,13.87-1.38,1.66-2.57.79-3.88,0-12.64-7.66-25.28-15.3-37.92-22.96-7.34-4.45-14.67-8.9-22.01-13.35-1.13-1.8-.05-3.63,0-5.43.62-17.84,2.84-35.58,3.2-53.44.02-1.09.43-2.18.66-3.26,7.27,7.88,14.54,15.76,21.82,23.63,3.61,4.87,8.82,8.35,11.89,13.69Z"/>
      <path class="cls-19" d="m260.37,218.29c.3.98.59,1.96.89,2.94-13.11,7.92-19.56,20.35-23.39,34.55-.2,5.41-2.02,10.51-3.02,15.77-1.6,8.48-2.35,17.04-2.96,25.63-.77,6.86-.71,13.71-.01,20.56,1.19,16.77,3.29,33.42,6.94,49.84,1.57,7.04,3.02,14.12,5.05,21.05.66,2.26,1.41,4.52,1.41,6.92-.38,4.63.83,9.08,1.99,13.44,1.41,5.31-1.87,10.38-7.42,10.64-1.27-.73-.55-1.62-.2-2.48,2.12-2.59,1.42-5.4.23-7.97-1.03-2.22-2.71-4.15-3-6.69-.14-1.25-1.48.06-1.69-.9-2.17-4.96-2.98-10.3-4.26-15.5-3.63-14.67-6.74-29.45-8.7-44.44-3.04-23.25-3.1-46.53.38-69.74,1.37-9.15,4.11-17.99,7.23-26.7.3-.84.75-1.57,1.37-2.21,0,0-.05.09-.05.09,1.22-.77,1.7-2.02,2.31-3.26,4.49-9.15,10.16-17.35,18.78-23.18,5.18-3.5,5.14-3.55,8.12,1.64Z"/>
      <path class="cls-80" d="m251.29,64.46c-.02,4.8-.03,9.61-.05,14.41-1.01-4.81-1.08-9.61.05-14.41Z"/>
      <path class="cls-60" d="m311.42,181.48c-4.27-4.3-9.18-8.04-11.89-13.69,4.59,3.39,8.27,7.79,12.58,11.5-.23.73-.46,1.46-.69,2.2Z"/>
      <path class="cls-4" d="m612.01,539.76c-1.81,8.09-3.62,16.17-5.44,24.26-7.58-2.77-14.52-6.88-21.73-10.41-2.19-1.08-4.82-1.36-6.57-3.31-.48-4.59,1.85-8.48,3.1-12.64,1.2-1.57.99-4.24,3.63-4.7,3.34,1.47,6.82,1.92,10.47,1.78,3.77-.14,7.49.89,11.36.04,2.34-.51,3.92,1.7,5.34,3.44.27.55.35,1.07-.16,1.54Z"/>
      <path class="cls-36" d="m596.32,499.45c0,.72-.02,1.45-.03,2.17-.65,3.63-1.85,7.04-3.97,10.09-.96.85-1.66,1.93-2.07,3.09-1.87,5.16-5.31,8.95-9.84,11.9-1.8,1.17-3.37,2.69-4.07,4.77-1.67,4.92-7.06,6.51-9.49,10.89-1.04,1.88-3.25-.64-4.98-.86-3.07-1.38-6.48-2.07-8.98-4.57,1.97.53,2.6-1.61,3.87-2.03,5.11-1.7,7.72-6.3,11.29-9.61,3.91-3.62,8.41-7.08,10.44-12.43.16-.42.74-1.09.94-1.03,4.38,1.24,3.39-3.05,4.9-4.73.3-.33.33-1.21.56-1.24,4.42-.51,6.37-3.93,8.66-7.06,1.08-1.47,1.66,1.19,2.79.64Z"/>
      <path class="cls-6" d="m561.86,541.51c5.14,2.79,5.68-3.13,8.55-4.63.37-.19-2.05-1.82.09-2.42,1.03-.29.83,1.54,2,2.39,2.38-6.3,6.48-10.74,11.78-14.35,3.25-2.21,4.3-6.26,5.96-9.69.36-.75.68-1.28,1.53-1.37,1.29,2.71-.75,4.81-1.3,7.19-2.14,4.72-2.81,9.99-5.41,14.54-2.1.87-1.31,3.43-2.76,4.68-2.16-.21-1.76,4.15-4.72,2.62-.46-.24-.16.38-.2.6-.76,4.36-.75,4.29-4.98,3.73-1.46-.19-2.93.92-4.47.26-2.25-.78-4.45-1.67-6.05-3.55Z"/>
      <path class="cls-41" d="m567.92,545.06c.86-1.07,3.1.77,3.42-1.66.06-.47,1.22-.7,1.26.2.09,2.51,2.48-.38,2.82,1.3.88-.59,1.34-1.45,1.15-2.47-.22-1.22.99-2.37-.26-3.51,1.82-.42,1.49,1.1,1.84,1.68,1.85-.59,1.26-4.18,4.15-2.73-1.34,4.15-2.68,8.3-4.02,12.45-3.45-1.75-6.9-3.49-10.35-5.24Z"/>
      <path class="cls-89" d="m499.66,605.12c.17.04.33.09.5.14.01,23.48.03,46.95.04,70.43-.67-.71-.58-1.61-.58-2.47.01-22.7.03-45.4.04-68.1Z"/>
      <path class="cls-29" d="m596.37,605.98c-.64,1.95,1.37,4.59-1.55,5.95.6-1.96-1.49-4.62,1.55-5.95Z"/>
      <path class="cls-29" d="m597.74,601.38c-.28,1.58,1.22,3.7-1.36,4.6.33-1.57-1.08-3.65,1.36-4.6Z"/>
      <path class="cls-86" d="m244.49,396.01c-3.56-14.77-7.42-29.47-9.83-44.5-1.78-11.1-3.22-22.22-3.63-33.46-.42-7.05-.41-14.09,0-21.14.3-12.79,2.3-25.34,5.5-37.71.3-1.18.89-2.28,1.34-3.42,8.92,16.06,16.99,32.55,24.76,49.19,8.53,18.27,17.3,36.42,25.28,54.95,3.73,8.67,8.06,17.09,12.24,25.57.6,1.22.29,2.78,1.52,3.71,1.61.58,2.06,2.08,2.65,3.42,7.66,17.29,15.14,34.66,22.97,51.88.93,2.06,1.62,4.18,1.62,6.48.04,11.36,0,22.71.03,34.06,0,1.49-.18,3,.38,4.43.89,2.28,2.58,1.32,4.1.99,4.27-.92,5.17-.52,5.72,3.86.54,4.28,2.57,8.38,1.58,12.84,1.83,11,3.63,22,5.51,32.99,1,5.84,1.64,11.75,3.21,17.49,1.34,8.56,2.67,17.11,4.01,25.67-.22.81.07,2.16-.91,2.27-3.5.41-5.32,4.56-9.29,3.97-1.19-.18-2.3.8-3.26,1.64-3.21,2.83-7.41,2.49-11.21,3.45-4.5,1.14-9.09,2.53-13.16,4.37-5.49,2.47-11.38,3-16.89,5.14-2.97,1.15-5.33,3.85-8.7,3.77-3.7-.09-6.52,1.8-9.43,3.63-1.16.73-2.38,1.44-3.71.14-.58-.57-1.28-.46-2.03,0-3.82,2.38-8.14,3.91-12.45,4.44-3.85.48-7.52,1.77-10.82,3.09-3.69,1.48-7.67,2.16-11.26,4.09-3.77,2.02-8.3,1.93-12.42,3.07-9.48,2.62-18.42,6.7-27.51,10.36-1.38.56-2.49.89-4.08.86-5.35-.09-10.3,1.82-14.67,4.8-2.4,1.63-5.09.66-7.52,1.69-4.72,2-9.88,2.74-14.18,6.02-1.79,1.36-4.93.78-7.25,1.63-3.73,1.36-7.87.28-11.42,2.18-4.05,2.17-8.32,3.22-12.92,3.04-2.36-.09-4.06,1.94-5.96,2.8-5.07,2.3-9.88,1.47-14.86,1.27-7.26-5.67-11.49-13.14-13.63-22.03-3.02-12.57-4.92-25.3-6.04-38.16-.62-4.34-.58-8.65-.53-13.06.21-16.82-.78-33.66-.53-50.5,0-.39-.15-.73-.29-1.07-.14-10.75-.29-21.5-.43-32.25.08-9.23.12-18.46.29-27.69.04-2.42-1.57-2.77-3.26-3.3-15.81-4.91-31.61-9.83-47.41-14.74-.47-.15-1.02-.15-1.44-.38-.9-.49-2.74-.49-2.25-1.92.49-1.44,1.94-.34,2.88-.09,14.06,3.79,27.99,8.02,41.72,12.86,9.72,3.43,9.68,3.56,9.73-6.73,0-1.25-.21-2.54.04-3.74,1.5-7.2-2.38-10.7-8.32-13.64-12.14-6.01-24.02-12.53-36-18.86-.94-.5-2.54-1.09-1.79-2.34.82-1.35,2.21-.28,3.29.29,12.07,6.44,24.13,12.9,36.21,19.32,1.07.57,2.21,1.9,3.48.23.56-.48,1.13-.52,1.73-.07.21.28.43.56.64.84,2.19-.2,1.09-1.89,1.14-2.85.32-6.07-.41-12.17.42-18.23.6-20.14,1.47-40.27,3.65-60.32.15-1.36.12-2.74.17-4.11.87-2.43-.46-5.26,1.35-7.53,5.17-24.58,17.09-44.94,37.54-59.94,2.6-1.9,5.35-3.6,8.03-5.39,1.14-2.82,4.52-1.78,6.23-3.61,8.55-5.2,17.73-9.12,26.79-13.28,17.67-8.12,35.42-16.07,53.09-24.18,2.33-1.07,4.61-1.83,7.18-1.57-.33,4.92-2.72,9.25-4.05,13.88-4.49,15.7-5.9,31.73-5.9,47.95,0,7.6-.42,15.26.31,22.8.99,10.21,2.72,20.37,4.47,30.49,2.48,14.35,6.03,28.47,9.71,42.55.12.47.42.89.63,1.33,1.93,4.83,4.4,9.51,3.9,14.97-.04.86-.13,1.69-.99,2.18-.45.68-1.17.91-1.89,1.11-11.09,3.11-16.97,10.8-19.13,21.75-.55,2.81-.58,5.61.05,8.41,2.37,10.79,8.75,18.25,19.28,21.39,14.76,4.4,31.82-2.4,35.64-21.35.61-2.85.59-5.7,0-8.54-2.01-11.24-8.61-18.41-19.38-21.88-1.45-.47-2.97-.97-3.61-2.42-3.08-6.89-5.03-14.1-5.74-21.63Z"/>
      <path class="cls-76" d="m84.97,443.18c-.58.02-1.15.05-1.73.07-3.12-5.56-4.69-11.74-6.94-17.64-5.99-15.7-11.65-31.53-17.38-47.33-.4-1.09-1.28-2.21-.48-3.86,3.21,4.42,4.66,9.47,6.52,14.24,6.04,15.51,11.82,31.11,17.61,46.72.94,2.54,2.21,5.02,2.4,7.81Z"/>
      <path class="cls-59" d="m92.35,350.98c-.5,2.5-.32,5.12-1.35,7.53.69-4.08-.79-6.68-4.97-7.71-1.29-.32-2.31-1.33-2.67-2.77,1.79-.59,3.09.56,4.27,1.49,1.45,1.14,2.96,1.58,4.72,1.45Z"/>
      <path class="cls-25" d="m87.17,422.94c-.01,6.66,0,13.32-.06,19.99,0,.78.56,2.15-1.13,2.06-.14,0-.25-.63-.37-.96,1.61-3.4.42-7.01.8-10.51.38-3.51-.7-7.13.77-10.57Z"/>
      <path class="cls-66" d="m577.87,363.73c-2.39.29-3.44-1.28-3.95-3.16-1.27-4.68,4.2-11.26,9.07-11.13,2.24.06,3.43,1.19,3.86,3.3.92,4.58-4.33,11-8.97,10.99Z"/>
      <path class="cls-37" d="m551.38,461.67c2.02,1.03,3.34,2.91,5.11,4.22,2.65,1.96,2.78,4.08.9,6.57.37-2.77-.72-4.79-2.81-6.63-1.27-1.12-3.17-2-3.2-4.16Z"/>
      <path class="cls-19" d="m327.98,449.82c-1.03-5.34-3.95-9.92-6.07-14.81-6.65-15.32-13.49-30.55-20.25-45.82,1.02-1.06,1.49.06,2.11.54,14.03,10.82,28.1,21.58,42.05,32.52,2.04,1.6,2.47,1.02,3.7-.82,13.52-20.23,27.16-40.38,40.85-60.5.31-.45.53-2.65,2.1-.97,1.11,1.16,1.09,2.48.57,3.89-.79,2.39-.32,4.84-.3,7.27.16,12.22-1.68,24.33-1.77,36.54-.93,3.09-.51,6.26-.49,9.4-.04,3.42.23,6.85-.29,10.25-1.01,3.75-.4,7.57-.48,11.37.03,2.49.13,4.98-.29,7.45-.92,3.32-.45,6.7-.41,10.07-.25,2.97.81,6.15-1.35,8.83-8.08,7.39-16.1,14.84-24.25,22.15-7.5,6.74-15.13,13.33-22.7,19.99-.87-4.49-1.81-8.96-2.57-13.47-.41-2.44-1.5-3.3-3.87-2.42-1.16.43-2.4.65-3.53,1.14-2.16.94-2.24-.39-2.22-1.9-.6-11.95-.09-23.91-.27-35.86-.03-1.61.29-3.24-.26-4.82Z"/>
      <path class="cls-88" d="m418.48,364.43c.28-5.73.81-11.43,2.48-16.94,2.46-8.09,7.87-13.37,16.1-14.94,8.09-1.54,14.89,1.39,20.2,7.75,5.47,6.55,7.49,14.53,9.51,22.52,3.85,15.26,6.67,30.7,6.46,46.5-.11,8.05-.54,16.13-2.16,24.07-11.86,3.91-23.88,7.26-35.92,10.56-11.24-12.38-13.12-27.99-15-43.6-.83-6.92-1.5-13.86-1.64-20.84-.46-5.03-.39-10.05-.03-15.08Z"/>
      <path class="cls-78" d="m390.02,407.92c-.2-12.48,1.67-24.87,1.72-37.35.77-2.47-.35-5.11.66-7.56.03-1.02.05-2.04.08-3.06,1.31-2.14-.47-4.57.63-6.72.84-3.65.15-7.36.39-11.04.09-1.34-.31-2.72.33-4.01.01-.73.02-1.47.03-2.2,1-3.19,2.13-6.3.66-9.74-.52-1.23-1.07-3.22.62-4.01,1.87-.87,3.51.74,3.7,2.2.6,4.49,3.79,6.99,6.65,9.82,1.19,1.18,1.8,2.44.15,3.78-.76.61-.64,1.25.03,1.88.46.42.84.9,1.07,1.51.57,1.51-2.2,3.04-.7,3.83,1.97,1.05,2.82,2.29,2.99,4.26.15,1.75.36,3.48.83,5.17.13.48-.21.03.12.34,3.7,3.41,2.17,7.79,2.22,11.84.09,7.21-.28,14.44,1.03,21.59,1.16,12.86,2.78,25.64,6.2,38.14,1.93,7.05,5.1,13.44,10,18.91-4.97,2.93-10.62,4.05-16.06,5.47-9.46,2.48-18.09,6.12-24.72,13.59-.22.25-.67.3-1.01.44.11-2.99.22-5.98.34-8.97.73-3.28-.23-6.65.52-9.93.08-2.44.17-4.88.25-7.32.67-3.78-.22-7.62.49-11.4.08-3.44.16-6.89.24-10.33.71-3.02-.22-6.13.53-9.14Z"/>
      <path class="cls-42" d="m589.72,518.27c.68-2.28,1.36-4.55,2.04-6.83,2.09-3.01,2.08-6.98,4.53-9.82,1.93,1.57,3.85,3.15,5.78,4.73,8.32,6.83,11.08,15.93,10.76,26.3-.05,1.5-.02,3-.03,4.5-.03.94.31,2-.79,2.61-.02-.43-.05-.85-.07-1.28-1.49-2.69-.56-5.61-.8-8.42-.22-2.69-.46-4.78-4.29-4.31-3.3.41-6.27-2.09-9.66-2.28-.98-.05-1.92-.4-2.94-.42-4.2-.08-4.66-.6-4.53-4.79Z"/>
      <path class="cls-70" d="m629.88,523.45c1.52-2.82,4.1-4.73,6.36-6.8,3.83-3.51,3.69-8.35,4.84-12.68,2.32-8.78,4.09-17.71,6.15-26.56.27-1.16-.29-3.45,1.73-2.93,1.36.35.59,2.42.31,3.69-1.94,8.86-3.95,17.7-5.92,26.56-.23,1.04-.93,2.06-.14,3.34,8.62-10.11,17.19-20.17,25.76-30.22.27.22.54.45.81.67-9.1,13.14-20.36,24.6-29.79,37.49-2.66,3.44-6.04,5.91-10.11,7.45Z"/>
      <path class="cls-7" d="m640,569.85c-.32,2.13,1.94,3.93.72,6.21-.46.86-.68,1.65-1.69.6-2.2-9.79-4.41-19.58-6.57-29.39-.2-.89-.65-2.28.63-2.58,1.74-.41,1.48,1.33,1.7,2.27,1.78,7.62,3.49,15.26,5.22,22.89Z"/>
      <path class="cls-47" d="m86.5,536.21c1.1,1.16.59,2.6.65,3.92.39,8.42.14,16.85.48,25.28.38,9.31,1.19,18.72-.27,28.09-.36,2.32.91,4.84.48,7.34-2.52-9.87-8.4-18.2-12.61-27.3-2.92-6.33-6.5-12.36-9.75-18.54-.65-1.24-1.33-2.3-2.76-2.87-11.34-4.5-22.66-9.06-33.99-13.59-2.66-1.06-5.34-2.07-8-3.13-.92-.37-2.18-.78-1.71-2.01.58-1.52,1.74-.34,2.5-.03,11.9,4.81,23.78,9.68,35.66,14.52,1.34.55,2.62,1.52,4.91.5-10.51-19.09-20.97-38.1-31.43-57.11l.91-.52c8.36,12.37,15.05,25.76,23.21,39.49.02-9.72.73-18.43,1.54-27.13.1-1.04-.71-3.05,1.29-2.78,1.69.23.8,2.03.75,3.17-.43,9.34-1.07,18.68-1.27,28.02-.09,3.98,2.48,7.28,4.33,10.62,8.49,15.26,16.36,30.84,24.48,46.29.21.4.49.77,1.07,1.09-.41-17.81-.75-35.57-.48-53.32Z"/>
      <path class="cls-2" d="m354.91,677.83c-1.37.03-2.75.08-4.12.07-1.88,0-3.99.45-4.59-2.21-.37,2.78-2.49,2.17-4.26,2.17-1.37,0-2.75-.06-4.12-.1,1.04-1.61-.15-3.15-.15-4.73.05-21.31.04-42.62.05-63.92,4.22-1.28,8.43-2.56,12.65-3.84-.33,1.66.12,3.65-2.1,4.46-2.14.78-1.21,2.01-.73,3.54.71,2.27,2.07,5.08-1.71,6.45,2.03,1.22,4.26,2.36,1.9,5.28-.75.92-.49,2.22.54,3.01,1.43,1.1,1.99,1.98-.19,2.84-.64.25-.76.95-.48,1.6.41.93.98.84,1.79.4,1.26-.69,2.22.1,2.8,1.07.61,1.02-.49,1.4-1.07,2.03-2.49,2.67.4,4.79,1.04,7.04.25.89,1.55,1.69,1.01,2.86-1.91,4.12-.55,7.65,1.71,11.1.47.71.77,1.53,1.11,2.32.22.52.11,1.03-.48,1.16-.3.07-.73-.06-1-.25-.6-.42-.42-2.07-1.71-1.3-1.15.68-.03,1.82-.15,2.76-.06.46.01,1.27.28,1.4,3.86,1.87,2.17,6.05,3.69,8.92,1.09,2.06-1.74,3.69-1.7,5.86Z"/>
      <path class="cls-79" d="m413.24,388.46c-1.8-4.9-1.36-10.02-1.37-15.08,0-4.24.03-8.48.16-12.72.02-.78.26-1.63-.46-2.01-3.58-1.86-3.1-5.36-3.4-8.44-.35-3.59-.2-3.6-3.57-2.58-.28.09-.74-.05-.98-.25-.46-.36-.36-.9-.09-1.34.63-1.07,1.27-2.14,1.97-3.17.49-.74,1.28-1.6,0-2.1-5.66-2.2-1.56-2.97,1.09-4.12-2.32-1.49-2.83-4.16-5.69-4.94-1.19-.33-2.76-2.14-2.04-4.29.18-.52.18-1.42-.15-1.74-1.04-1.05-1.28-3.81-3.27-2.8-1.7.86-.7,2.73.25,4.17,2.31,3.52-.08,6.18-1.8,8.94.52-17.81.85-35.63,1.63-53.43.51-11.69,1.36-23.37,1.4-35.07,0-1.61-.28-3.41,2.09-3.69,16.73,16.47,25.42,37.11,30.82,59.44,1.7,7.01,2.69,14.15,3.56,21.31.21,1.75.15,3.05-1.81,3.81-12.78,4.96-16.79,15.67-18.19,28.03-1.22,10.69-.59,21.39-.12,32.08Z"/>
      <path class="cls-56" d="m418.48,364.43c.01,5.03.02,10.05.03,15.08-.97-5.03-1.1-10.05-.03-15.08Z"/>
      <path class="cls-52" d="m673.51,625.64c.66-2.22,2.38-1.94,3.76-2.25-.91,1.1-1.81,2.24-3.76,2.25Z"/>
      <path class="cls-52" d="m666.06,629.93c.23-1.99,2.02-1.92,3.18-2.68-.15,2.11-1.7,2.35-3.19,2.68,0,0,0,0,0,0Z"/>
      <path class="cls-64" d="m699.8,575.94c.93.24,1.84-1.15,2.73-.09.32.38.23,1.03-.3,1.27-1.23.55-2.19.38-2.42-1.19,0,0,0,0,0,0Z"/>
      <path class="cls-77" d="m75.92,662.92c.79-2.32-2.25-4.38-.23-7.6.14,2.42.65,3.91,1.63,5.27,1.17,1.63.56,2.45-1.4,2.33,0,0,0,0,0,0Z"/>
      <path class="cls-67" d="m78.15,674.91c-2.75.18-2.73-2.15-3.66-3.83,1.48-.91,1.98.68,2.91.85-.08,1.08.26,2.05.75,2.97Z"/>
      <path class="cls-77" d="m80.82,666.08c-1.73,2.42-2.79,2.43-4.15.55,1.28-.17,2.28-.3,4.15-.55Z"/>
      <path class="cls-75" d="m44.22,605.74c-.13,1.04-.63,1.21-1.54,1.22-2.14.01-2.76-2.49-4.73-2.66.55-1.39,1.97-2.36,3.05-2.21,1.82.25,2.01,2.57,3.22,3.66Z"/>
      <path class="cls-75" d="m30.81,592.95c-.54.5-.74,2.37-.42,2.82.27.38.24.71-.08.94-.59.42-1.22.85-1.96.21-.81-.71-1.12-1.42-.7-2.56.54-1.46,1.11-2.44,3.16-1.41Z"/>
      <path class="cls-67" d="m65.42,669.67c.34-1.81.97-3.39,3.38-4.46-.58,2.42-1.1,4.09-3.38,4.46,0,0,0,0,0,0Z"/>
      <path class="cls-20" d="m318.78,340.44c1.78-12.19,3.66-24.36,4.73-36.66.39-4.51,1.48-9.03,2.16-13.56.29-1.91-.22-3.31-1.4-4.77-2.67-3.29-5.11-6.77-7.78-10.05-1.05-1.29-1.1-2.21-.16-3.58,5.47-8.03,10.79-16.17,16.31-24.17,2.42-3.51,4.88-3.39,7.29.22,5.55,8.28,10.98,16.64,16.53,24.91.89,1.32,1.09,2.2-.03,3.56-2.05,2.5-3.59,5.43-5.75,7.82-2.03,2.25-2.19,4.6-1.61,7.25,4.22,19.34,8.45,38.68,12.68,58.02-.41,8.73-2.52,17.21-3.88,25.8-1.75,11.06-3.31,22.16-5.85,33.08-.31,1.32-.66,2.63-.98,3.87-1.25.14-1.35-.68-1.65-1.35-9.95-22.02-19.88-44.05-29.89-66.05-.66-1.45-.66-2.86-.71-4.34Z"/>
      <path class="cls-79" d="m393.83,338.18c-.34,5.01.94,10.1-.72,15.05.22-5.02-.67-10.09.72-15.05Z"/>
      <path class="cls-50" d="m314.63,240.75c6.78-.07,8.05,1.65,6.46,8.47-.47,2.03-1.9,1.97-3.43,2.03-6.28.24-6.53.26-6.18,6.71.19,3.52-1.38,6.52-1.8,9.83-.16,1.25-1.36,1.91-2.73,2.21-3.09.68-3.91,2.51-2.53,5.28.44.89,1.19,1.67,1.45,2.6.4,1.45.16,2.41-1.87,1.94-3.13-.72-4.21.45-3.73,3.69.15,1,1.31,2.21-.4,2.82-1.54.55-2.55-.19-3.28-1.63-1.67-3.34-3.43-6.44-4.45-10.26-.91-3.42-4.87-5.98-1.89-10.26.11-.16-.67-1.35-1-1.34-4.23.18-5.63-3.85-8.51-5.65-1.43-.9-1.02-2.59-.78-3.8.86-4.19-.96-8.3-.16-12.49.3-1.58-.82-2.78-2.56-2.09-2.04.81-2.77-.22-3.24-1.82-.25-.87-.5-1.83-1.29-2.2-4.23-1.95-4.14-6.03-4.75-9.68-.24-1.47-.51-2.58-1.92-3.32-1.91-1-1.91-2.48-1.27-4.43.69-2.12,1.85-1.98,3.42-1.4,2.09.76,2.68-2.76,5.24-1.59,3.6,1.65,7.14,3.08,10.38,5.63,3.14,2.47,7.16,3.48,7.99,8.42.26,1.53,3.21,1.25,5.12.83,5.04-1.12,5.97-.43,6.22,4.54.06,1.25-.1,2.68,1.5,3.04,1.55.35,1.66-1.17,2.24-2.04.41-.61.75-1.47,1.68-.84.71.48,1.3,1.04.98,2.16-1.4,4.9-1.36,4.91,3.98,4.67.37-.02.75,0,1.12,0Z"/>
      <path class="cls-50" d="m311.37,291.74c0,2.73.07,5.46-.02,8.19-.1,2.98-.08,5.76,3.38,7.08,1.23.47,1.21,1.78,1.09,2.93-.13,1.33-.93,2-2.24,2.02-3.19.04-2.93,1.47-1.44,3.45.53.7,1.17,1.59.09,2.19-.74.41-1.35-.44-1.79-1.01-.76-1-1.34-2.11-1.32-3.42,0-1.06-.33-1.87-1.24-2.55-4.79-3.56-5.37-9.8-1.29-14.44,1.37-1.56,3-2.88,4.78-4.44Z"/>
      <path class="cls-87" d="m144.15,282.04c-1.29,2.56-4.33,2.1-6.23,3.61.09-9.98-.59-20.05.5-29.92,1.07-9.7-4.56-15.46-9.8-21.85-13.36-16.29-26.68-32.61-40.02-48.92-.4-.48-.86-.92-1.19-1.44-.46-.74-1.05-1.65-.17-2.35,1.04-.82,1.49.28,2.02.91,8.2,9.89,16.46,19.72,24.57,29.68,7.54,9.28,14.91,18.7,22.37,28.05.36.45.88.77,2.03,1.77v-79.52c.66-5.55.11-11.13.31-16.69.05-1.48-.23-2.98.23-4.43.07-4.96.14-9.93.2-14.89.45-.47.89-.48,1.33.01,1.16,35.58.75,71.17.84,106.76.01,4.7,0,9.4.66,14.33,1.58-2.56,3.12-5.15,4.76-7.67,12.68-19.56,25.37-39.12,38.1-58.64.6-.91,1.13-2.88,2.56-1.97,1.28.82.03,2.36-.58,3.31-9.09,14.16-18.13,28.35-27.43,42.37-5.93,8.94-11.52,18.09-17.28,27.13-.67,1.05-.75,2.08-.75,3.19,0,8.37.13,16.74-.05,25.1-.06,2.79,1.04,2.79,3.01,2.07Z"/>
      <path class="cls-14" d="m140.31,126.07c-.44,0-.89,0-1.33-.01-.03-6.27-.7-12.57,1.33-18.74v18.75Z"/>
      <path class="cls-24" d="m138.77,140.94c-.03,7.04.79,14.11-.53,21.12.02-7.04-.71-14.11.53-21.12Z"/>
      <path class="cls-19" d="m217.5,441.61c1.94-12.23,10.69-21.24,21.78-22.45,6.55-1.5,7.76-4.69,6.6-10.98-.72-3.91-2.68-7.94-1.4-12.17,1.68,7.06,3.69,14.02,6.26,20.82.74,1.97,2.4,1.85,3.85,2.36,10.73,3.75,17.57,10.89,19.43,22.36.35,3.11.36,6.22,0,9.33-2.43,14.06-13.69,23.2-28.6,23.22-13.76.01-25.62-9.89-27.9-23.3-.42-3.06-.37-6.12-.03-9.19Z"/>
      <path class="cls-19" d="m240.28,416.98c-1.45-4.95-3.34-9.79-3.9-14.97.16-.33.51-1.26.66-.7,1.25,4.5,5.53,7.89,4.81,13.08-.15,1.05,1.06,3.01-1.57,2.6Z"/>
      <path class="cls-48" d="m231.02,296.91c0,7.05,0,14.09,0,21.14-1.15-7.05-1.02-14.09,0-21.14Z"/>
      <path class="cls-28" d="m589.72,518.27c.64,3.16,1.95,4.06,5.66,3.87,3.88-.2,7.83,2.57,11.85,2.95,3.92.37,4.76.44,4.83,4.44.03,1.37.02,2.74,0,4.11-.02,1.62-.08,3.24-.12,4.85-2.22-.36-2.99-3.79-5.6-2.98-5.52,1.71-10.95-.29-16.42-.06-2.01.08-3.68-.58-4.86-2.27.49-5.3,2.75-10.04,4.67-14.9Z"/>
      <path class="cls-19" d="m169.01,429.64c-.07-3.2-.14-6.4-.21-9.59-.79-4.77.27-9.61-.56-14.38l-.18-9.58c-.8-4.04.25-8.17-.55-12.21-.07-3.95-.14-7.9-.21-11.85-.78-5.02.27-10.11-.56-15.14-.07-3.68-.13-7.37-.2-11.05-.44-4.8-.4-9.6-.03-14.41,2.44-.9,2.18.94,2.21,2.28.14,5.48.21,10.95.3,16.43.7,3.77-.28,7.62.52,11.39.07,4.94.13,9.88.2,14.81.73,3.78-.22,7.64.53,11.42.08,3.46.16,6.91.24,10.37.56,4.69.08,9.4.26,14.1.05,1.35-.28,2.73.3,4.04.07,4.42.14,8.84.2,13.26.72,4.31-.26,8.68.52,12.98.08,4.45.16,8.9.24,13.36.67,4.04-.2,8.14.46,12.17.1,4.94.19,9.88.29,14.81.71,4.28-.27,8.63.52,12.9.08,4.68.16,9.37.24,14.05.66,4.79-.24,9.63.49,14.42.34,7.45.4,7.69,7.55,5.95,18.26-4.46,36.47-9.16,54.7-13.76,17.37-4.38,34.74-8.74,52.11-13.11.73-.18,1.46-.34,2.19-.48,1.15-.22,2.87-1.12,3.26.3.53,1.94-1.75,1.79-2.84,2.1-4.77,1.38-9.61,2.54-14.43,3.76-29.9,7.57-59.81,15.1-89.69,22.72-4.34,1.11-7.44,4.43-11.01,6.86-25.23,17.2-49.78,35.37-74.5,53.29-.78.57-1.77,2.08-2.76.83-.89-1.12.49-2.03,1.34-2.66,9-6.7,18.03-13.36,27.05-20.02,16.15-11.92,32.72-23.24,49.33-34.5.88-.59,1.65-1.33,2.76-2.24-7.93,2.1-15.48,4.12-23.04,6.1-1.07.28-2.63,1.49-3.04-.44-.34-1.63,1.46-1.7,2.62-2,4.35-1.11,8.68-2.33,13.07-3.21,2.54-.51,3.61-1.59,3.27-4.24-.26-1.97-.14-3.99-.19-5.99-.76-5.53.27-11.11-.54-16.63-.08-2.95-.16-5.89-.23-8.84-.69-3.55.25-7.17-.51-10.72-.08-4.93-.16-9.85-.24-14.78-.71-4.53.27-9.13-.51-13.66-.07-4.44-.13-8.87-.2-13.31-.78-5.29.23-10.65-.54-15.94Z"/>
      <path class="cls-43" d="m327.98,449.82c1.03,5.81.52,11.67.6,17.51.1,7.72-.03,15.45-.06,23.17-.16-.33-.47-.66-.47-.99-.04-13.23-.05-26.46-.06-39.69Z"/>
      <path class="cls-40" d="m171.07,416.29c-.91-6.02-.76-12.08-.55-18.13.99,6.02.83,12.08.55,18.13Z"/>
      <path class="cls-63" d="m171.25,506.89c1,5.52.72,11.08.54,16.63-1.04-5.52-.73-11.08-.54-16.63Z"/>
      <path class="cls-39" d="m169.01,429.64c1.11,5.28.74,10.61.54,15.94-1.01-5.29-.72-10.62-.54-15.94Z"/>
      <path class="cls-9" d="m166.75,356.89c1.07,5.01.7,10.08.56,15.14-1.11-5.01-.75-10.08-.56-15.14Z"/>
      <path class="cls-3" d="m168.24,405.67c1.12,4.76.67,9.57.56,14.38-1.16-4.75-.69-9.57-.56-14.38Z"/>
      <path class="cls-62" d="m174.03,524.25c-1.04-4.78-.65-9.6-.49-14.42.92,4.78.75,9.6.49,14.42Z"/>
      <path class="cls-16" d="m166.52,331.44c0,4.8.02,9.6.03,14.41-.76-4.8-1.36-9.6-.03-14.41Z"/>
      <path class="cls-34" d="m169.76,458.89c1.1,4.52.68,9.1.51,13.66-1.01-4.52-.74-9.09-.51-13.66Z"/>
      <path class="cls-81" d="m173.3,495.78c-.88-4.27-.75-8.59-.52-12.9.96,4.27.77,8.58.52,12.9Z"/>
      <path class="cls-32" d="m171.79,442.53c-1.14-4.29-.64-8.64-.52-12.98,1.09,4.29.61,8.64.52,12.98Z"/>
      <path class="cls-12" d="m167.51,383.88c1.07,4.03.77,8.12.55,12.21-.97-4.03-.76-8.12-.55-12.21Z"/>
      <path class="cls-68" d="m172.49,468.07c-1-4.03-.6-8.11-.46-12.17,1.05,4.02.7,8.1.46,12.17Z"/>
      <path class="cls-21" d="m169.55,361.54c-1.01-3.76-.7-7.58-.52-11.39,1.01,3.76.69,7.58.52,11.39Z"/>
      <path class="cls-84" d="m170.28,387.78c-1.05-3.77-.71-7.6-.53-11.42.87,3.78.75,7.6.53,11.42Z"/>
      <path class="cls-30" d="m170.51,487.33c.96,3.53.62,7.13.51,10.72-1.1-3.53-.71-7.13-.51-10.72Z"/>
      <path class="cls-73" d="m217.5,441.61c0,3.06.02,6.12.03,9.19-1.09-3.06-1.11-6.12-.03-9.19Z"/>
      <path class="cls-46" d="m274.02,450.88c0-3.11,0-6.22,0-9.33,1.04,3.11,1.02,6.22,0,9.33Z"/>
      <path class="cls-69" d="m389.25,427.39c.2,3.81.53,7.63-.49,11.4-.16-3.81-.47-7.63.49-11.4Z"/>
      <path class="cls-72" d="m388.51,446.11c.16,3.33.42,6.66-.52,9.93-.22-3.33-.48-6.66.52-9.93Z"/>
      <path class="cls-54" d="m390.02,407.92c.18,3.07.38,6.14-.53,9.14-.22-3.07-.47-6.14.53-9.14Z"/>
      <path class="cls-17" d="m392.4,363.01c-.19,2.52.45,5.12-.66,7.56.02-2.54-.83-5.15.66-7.56Z"/>
    </g>
  </g>
</svg>