<?xml version="1.0" encoding="UTF-8"?>
<svg id="Capa_1" data-name="Capa 1" xmlns="http://www.w3.org/2000/svg" viewBox="0 0 805.07 856.45">
  <defs>
    <style>
      .cls-1 {
        fill: #f7f7f7;
      }

      .cls-1, .cls-2, .cls-3 {
        stroke: #ebfffd;
        stroke-miterlimit: 10;
      }

      .cls-4 {
        fill: #1c6e8c;
      }

      .cls-2 {
        fill: #f3f8ff;
      }

      .cls-5 {
        fill: #00bfb2;
      }

      .cls-6 {
        fill: #dd3a3a;
      }

      .cls-3 {
        fill: #063f84;
      }
    </style>
  </defs>
  <path class="cls-1" d="m76.68,280.49v3.58c.28-.35.56-.69.84-1.02.47-.55,1.04-.94,1.65-1.18,0-.05-.01-.09-.02-.14-.88-.16-1.72-.57-2.47-1.24Z"/>
  <path class="cls-3" d="m344.07,275.64c-4.39-7.56-8.15-15.61-9.79-24.12-3.65-6.59-6.34-13.64-6.76-21.06-3.43-.08-6.82.43-9.6,2.15-7.84,4.86-6.05,17.83-4.54,25.37,2.13,10.65,6.25,22.48,13.03,31.13,5.55,7.07,12.04,8.99,18.53,7.31-.89-6.92-1.01-13.85-.88-20.78Z"/>
  <path class="cls-3" d="m372.01,201.45c-1.15,2.58-1.64,5.58-1.91,8.37-.18,1.89-.26,3.79-.28,5.7,1.02-3.34,1.92-6.72,2.66-10.14-.11-1.32-.25-2.63-.46-3.93Z"/>
  <path class="cls-3" d="m375.5,234.04c1.75-1.97,3.08-4.6,4.09-7.51-1.06,2.67-2.42,5.19-4.09,7.51Z"/>
  <path class="cls-3" d="m458.13,297.74c-3.06.79-6.09,1.71-9.11,2.69,1.27-.02,2.55-.06,3.82-.12,1.87-.52,3.72-1.08,5.54-1.73-.1-.27-.19-.54-.25-.84Z"/>
  <path class="cls-3" d="m427.7,201.37c1.54,4.32,3.3,8.57,5.55,12.57.46.81,1.02,1.76,1.62,2.68-.13-11.5,1.14-23.18,3.49-34.53-.54.8-1.1,1.57-1.68,2.33-1.11,1.44-2.98,2.29-4.76,2.31-3.08,3.04-8.31,1.45-8.64-3.3-.33-4.75.34-10.07.78-15.41-1.14.43-2.31.65-3.47.69.01.2.02.4.04.6.71,10.9,3.42,21.8,7.07,32.07Z"/>
  <path class="cls-3" d="m416.94,200.75c-.5-1.54-.99-3.1-1.46-4.68-.72,4.88-.96,9.87-1.79,14.73-.74,4.32-6.44,4.53-8.79,1.64-.85,2.36-1.68,4.7-2.44,7.04-.87,2.67-3.17,3.75-5.32,3.5-.02.16-.03.32-.05.49,2.23-.08,4.59,1.37,5.33,3.85,1.91-1.67,5.15-2.11,6.92.07,1,1.23,1.82,2.55,2.51,3.93,1.44.39,2.6,1.46,2.86,3.38.12.93.21,1.87.28,2.81.44-1.11.88-2.22,1.31-3.32,2.09-5.32,9.28-4.4,9.82,1.33.13,1.34.16,2.69.12,4.04.38-.23.79-.4,1.21-.52-.2-3.46,0-6.96.6-10.47.19-1.12.65-1.95,1.27-2.53-6.38-6.5-9.81-17.37-12.39-25.29Z"/>
  <path class="cls-2" d="m607.29,562.42c-.08,2.84-.32,5.73-.77,8.59,4.46-2.66,9.27-4.81,14.02-6.64,5.55-2.13,11.27-3.75,16.89-5.65.2-.07.39-.14.59-.21-1.26-.17-2.52-.36-3.77-.57-16.29-2.78-25.14-16.67-22.46-32.69.46-2.78,1.29-5.35,2.07-8.05.24-.83.42-1.7.68-2.53.06-.18.1-.32.15-.45.02-.29.06-.64.11-1.08.61-5.58,1.11-11.16,1.41-16.77.98-18.65.23-37.3-.48-55.95-1.69.74-3.47,1.2-5.29,1.3.01.69.04,1.37.07,2.06.22,4.26.77,8.51,1.05,12.77.6,9.04.62,18.11-.11,27.15-.2,2.48-.46,4.96-.76,7.43-.18,1.5-.39,3-.59,4.49-.44,3.04-.48,3.45-.12,1.24-.04.32-.07.64-.11.96-.27,4.47-1.1,8.96-1.66,13.4-1.21,9.56-2.14,19.08-1.9,28.72.18,7.49,1.2,15,.99,22.5Z"/>
  <path class="cls-2" d="m656.82,632.21c-1.46,1.23-2.96,2.44-4.5,3.6,1.73,1,3.45,2.01,5.16,3.02-.2-2.21-.43-4.42-.67-6.62Z"/>
  <path class="cls-2" d="m630.14,721.26c2.21-.67,4.35-1.55,6.5-2.39.91-.35,1.81-.73,2.72-1.08.15-.07.3-.14.45-.2-2.76.02-5.52.04-8.28.02-2.58-.01-5.16-.11-7.72-.29-.22,1.59-.68,3.2-1.32,4.74h4.55c1.03-.24,2.06-.49,3.09-.8Z"/>
  <path class="cls-2" d="m156.52,767.92c-18.55-2.98-36.53-8.65-53.32-17.14-8.84-4.47-17.52-11.36-23-20,8.25,22.66,30.04,38.95,55.45,38.95h33.57c-4.25-.54-8.49-1.13-12.71-1.81Z"/>
  <path class="cls-2" d="m227.68,769.73h49.38c-14.6-2.96-29.5-4.5-43.91-8.28-.93,3.05-3.01,6.01-5.46,8.28Z"/>
  <path class="cls-2" d="m169.71,567.14c.9-.17,1.81-.27,2.73-.31-1.07-.28-2.14-.57-3.21-.86.17.39.32.78.47,1.17Z"/>
  <path class="cls-2" d="m386.86,763.16c-.63-.32-3.37-1.3-2.95-1.26-.98-.26-2.11-.57-2.36-.65-.22-.07-.4-.12-.54-.17-.07,0-.14,0-.21-.02-4.79-.37-9.03-2.01-12.33-4.67-14.83-3.96-30.31-6.43-43.47-14.84-8.57-5.48-12.87-17.57-7-26.68,3.42-5.31,7.71-9.8,12.54-13.66-.4.21-.81.42-1.21.63-9.39,7.26-19.95,13.68-31.39,16.58-3.56,4.23-8.83,6.98-14.67,6.9-17.44-.23-36.27-4.34-52.24-11.4-6.89-3.04-13.22-7.09-19.74-10.82-1.77-1.01-3.54-2-5.35-2.92-.3-.15-1.06-.6-1.68-.97-.75-.31-1.55-.57-2.35-.78-1.3-.16-2.59-.34-3.87-.59-2.83-.55-1.56-.26.48-.09-10.92-.88-19-8.24-19.5-19.5-.02-.42-.01-.84,0-1.26-1.56.18-3.09.18-4.54-.02-7.41-1-13.51-6.17-15.86-13.01-.54.72-1.1,1.43-1.69,2.12-8.07,9.39-20.88,11.12-31.05,5.46-.6.43-1.23.83-1.86,1.23,4.46,1.67,8.61,3.42,12.15,4.89,5.55,2.3,11.07,4.66,16.58,7.07,1.7.74,3.4,1.49,5.11,2.23,14.75,4.57,28.97,11.69,42.81,18.45,7.37,3.6,14.71,7.27,22.14,10.75,2.19,1.02,4.38,2.03,6.58,3.01.82.37,1.65.74,2.48,1.09.07.03.52.19.93.34.5.16,1.16.37,1.22.39,1.17.37,2.32.79,3.49,1.15,1.73.54,3.47,1.04,5.22,1.51,15.6,4.18,31.76,5.65,47.52,9.07,10.66,2.32,15.86,14.15,13.62,23.99-1.51,6.62-6.56,11.1-12.56,13.03h107.91c-2.5-1.26-4.94-2.6-7.32-3.89-1.66-.91-3.33-1.82-5.02-2.67Z"/>
  <path class="cls-2" d="m425.49,647.72c-.09,0-.18-.01-.27-.02-5.45-.67-10.83-1.55-16.15-2.6.87,4.24.75,8.65-.49,12.84,5.56-3.53,11.26-6.84,16.91-10.21Z"/>
  <path class="cls-2" d="m730.84,136.45h-214.82c.82,3.43-3.15,7.84-7.53,5.85-.24-.11-.49-.2-.73-.31,2.6,5.51,3.98,12.05,4.82,16.89.09.53.17,1.07.26,1.61,3.33,3.84,6.27,8.06,8.72,12.68,1.61,3.03,2.94,6.17,4.05,9.39,2.82-1.3,6.16.03,7.07,3.12,3.66,12.43,6,25.58,4.99,38.57-1.01,13.08-5.58,25.94-14.44,35.26-4.37,14-11.86,27-24.24,34.72-.08,1.08-.49,2.15-1.29,3.03-5.87,6.43-13.32,10.52-21.36,13.19-.48,1.2-1.55,2.14-3.32,2.4-14.75,2.17-29.72,3.91-43.91,8.68-.83.28-1.59.34-2.27.23-.12.18-.23.36-.36.53-2.28,3.29-6.33,3.11-8.63,0-.48-.64-.89-1.33-1.25-2.03-1.83-.69-3.61-1.5-5.35-2.4-1.22-.2-2.44-.43-3.66-.69-11.18.67-22.33-.05-30.71-8.6-.06-.07-.12-.14-.19-.2-1.06.41-2.26.54-3.34.39-7.1-.97-9.15-6.64-8.72-12.61-3.54,3.26-7.42,6.05-11.7,8.11-7.56,3.64-15.93,4.2-23.54.35-9.16-4.65-14.96-14.35-18.9-23.44-8.36-19.27-16.63-57.18,12.68-60.39-2.79-14.18,1.36-30.71,5.82-43.79,5.85-17.16,20.21-29.96,36.69-36.68,1.07-.44,2.09-.39,2.98-.04.85-.65,1.72-1.28,2.61-1.89.72-.49,1.46-.97,2.2-1.44-.03-.16-.08-.32-.11-.48h-237.71c-32.44,0-58.98,26.54-58.98,58.98v480.79c4.62-6.76,11.52-9.33,19.22-9.54,0-.01-.02-.03-.03-.04-1.77-2.75-2.62-5.9-2.67-9.08-.87-2.19-1.26-4.53-1.01-6.89,2.54-24.06,12.28-45.98,17.04-69.52,2.28-11.31,4.83-22.65,8.55-33.54-.03-1.39-.05-2.78-.05-4.17-.03-6.95,3.61-12.74,8.96-16.17,1.51-2.71,3.14-5.38,4.93-7.97,5.06-7.33,13.01-10.84,21.16-9.04-.04-.83-.08-1.66-.11-2.49-.68-17.07-1.46-33.98-1.29-51.08.18-18.33.12-36.68.05-55.01-.07-15.93-4.82-31.77-.07-47.51,2.77-9.18,14.03-17.61,23.99-13.62,12.05,4.83,20.15,12.65,28.37,22.38,1.51,1.79,3.04,3.57,4.67,5.25.73.75,1.48,1.49,2.26,2.2.07.06.13.12.19.17.07.04.14.07.21.11.27,0,.85.2,1.56.72,1.11-.14,2.46,0,3.51-.12,5.89-.67,10.99,2.31,14.51,6.7.98-2,2.37-3.79,4.01-5.33,2.22-8.11,10.9-13.77,19.01-14.13,11.17-.5,18.61,9.37,19.5,19.5-.52-5.96.2.36.78,2.16.09.28.31.71.5,1.15.15.3.31.66.37.98,2.02,3.77,4.1,7.44,6.49,11.01,4.71,7.03,9.99,13.65,14.86,20.57,11.41,16.21,20.11,34.09,31.52,50.28,6.29,8.92,1.26,21.35-7,26.68-.75.48-1.51.89-2.28,1.24.55,3.68,1.09,7.37,1.57,11.07,1.51,11.65,2.55,24.05-2.12,35.13-6.83,16.19-22.65,18.46-38.26,19.48-.93.06-1.87.18-2.81.24-3.65,1.09-7.29,2.15-10.89,3.4-7.9,2.74-15.64,5.92-23.4,9.03-4.46,1.79-9.06,1.13-13.07-.93-3.46,4.43-9,7.47-14.59,7.84,6.67,1.6,13.03,4.87,19.1,7.91,2.95,1.48,5.88,3,8.87,4.41.41.2.84.43,1.28.65.1.03.22.06.39.12,1.47.46,2.88,1.04,4.37,1.45.13.04.79.15,1.39.28,4.33-4.58,7.56-9.16,13.16-12.6,7.31-4.49,17.6-5.98,25.69-2.92,3.62,1.37,6.83,3.15,9.92,5.16-.54-2.77-.52-5.74.18-8.78,2.26-9.9,14.3-16.83,23.99-13.62,37.15,12.32,77.84,21.19,109.85,44.86,5.39,3.98,8.81,9.28,9.42,15.13,1.32,2.52,2.13,5.46,2.28,8.86.12,2.78-.6,5.68-1.94,8.37,5.87-4.21,11.66-8.55,18.24-11.61,13.1-6.1,26.3-7.22,40.32-3.54-1.6-10.68,5.71-22.18,18.87-22.68.55-.02,1.1-.02,1.65-.02,5.05-5.3,10.73-9.78,17.3-13.63,7.04-4.13,14.53-7.46,21.46-11.78,1.07-.67,2.36-1.36,3.5-2.15.14-.16.4-.43.84-.86.51-.5,1.18-1.23,1.76-1.69.26-.46.53-.91.8-1.36.1-.65.38-1.4.56-2.03.05-.16.09-.29.12-.41,0-.06,0-.12,0-.18.03-.74.08-1.48.1-2.22.06-2,0-3.99-.09-5.99-.18-3.74-.55-7.47-.73-11.21-.48-9.48-.05-18.86,1.04-28.28.62-5.43,1.38-10.85,2.03-16.28.33-2.78.61-5.56.98-8.34.41-3.05.47-3.46.16-1.23.04-.31.07-.63.11-.94.08-.94.22-1.87.31-2.8.98-9.63,1.12-19.32.57-28.98-.41-7.11-1.66-14.26-1.12-21.39.72-9.37,3.24-18.09,9.77-25.12,6.71-7.22,17.38-10.23,26.97-9.21,2.33.25,4.52.77,6.55,1.53-.03-1.54-.07-3.08-.14-4.62-.14-3.2-.38-6.39-.66-9.57-.21-2.38-1.14-5.86-.78-8.28-.33-2.22-.66-4.44-.91-6.66-.2-1.73-.35-3.42-.29-5.17.19-5.55,2.14-10.92,4.96-15.66,2.73-4.61,7.36-7.96,12.52-9.27-2.31-3.21-3.62-7.01-3.21-10.88.55-5.15.77-10.49,2.5-15.4,2.59-7.35,7.36-13.6,14.44-17.12,15.88-7.9,37.43-.79,42.05,17.38,1.54,6.07.19,11.97-3.16,16.53.38,2.57.2,5.18-.67,7.63-.28.68-.49,1.38-.64,2.1.02.51.05,1.04.07,1.47,7.82-1.4,16.21,1.1,22.37,7.33,9.16,9.26,9.82,22.95,8.67,35.13-2.27,24.02-1.16,48.44-2.31,72.56-.62,12.97-1.56,25.93-3.01,38.84-.32,2.83-.67,5.66-1.05,8.49-.13.97-.23,1.66-.29,2.14,0,.02,0,.03,0,.05-.4,3.61-.79,7.24-1.35,10.83,2.79-1.3,5.79-2.06,8.54-2.18,8.66-.39,16.39,6.4,18.8,14.32,4.78,15.71,7.35,31.93,11.01,47.91.81,3.56,1.68,7.1,2.65,10.62.64,2.32,1.52,4.62,2.05,6.96.1.43.16.76.21,1.03.02.03.03.05.05.09,3.17,5.48,7.15,10.53,10.01,16.19,6.48,12.84,7.55,29.42-3.84,38.96,6.29-1.26,13.17.11,17.27,5.2,7.71,9.56,12.17,20,12.13,32.46-.03,9.06-2.18,18.3-4.92,26.91-4.52,14.21-12.22,30.37-26.48,37.09-15.17,7.15-32.54,4.52-48.7,3.67-17.57-.93-35.34-.2-52.92-.2h-21.06c-11.18,1.3-22.23.09-33.46,0-9.85-.07-17.37-7.22-19.12-16.4-4.13,1.85-8.34,3.57-12.58,5.15-30.4,11.34-63.11,12.18-94.37,19.92h261.64c32.44,0,58.98-26.54,58.98-58.98V195.43c0-32.44-26.54-58.98-58.98-58.98Z"/>
  <path class="cls-2" d="m268.37,442.44c.16,11.49.59,22.98,1.64,34.42.14,1.53.3,3.06.47,4.59.04.39.24,1.92.34,2.77.02.12.04.24.05.32.19,1.23.39,2.46.61,3.68.77,4.26,1.71,8.5,3.08,12.61.19.56.43,1.13.66,1.71.01.02.02.04.03.06.05.05.11.11.17.18,2.3.81,4.29,2.13,5.95,3.8-.2-1.4-.52-3.52-.07-.86.08.46.13.77.17.96,0,0,0,.01.01.02-.11-.74-.48-2.95-.53-3.34-1.44-9.68-3.78-19.56-3.92-29.37-.06-4.25,1.31-8.07,3.61-11.18-4.05-6.81-8.03-13.67-12.28-20.36Z"/>
  <path class="cls-2" d="m232.12,532.8c4.27-1.71,8.56-3.53,12.89-5.26-3.37-4.68-5.87-10.1-7.7-15.27-.87-2.45-1.59-4.95-2.22-7.49-.43,7.23-1.32,14.42-3.14,21.42-.75,2.87-1.72,5.55-2.9,8.07.99-.55,2.02-1.05,3.06-1.47Z"/>
  <path class="cls-2" d="m277.37,619.8c.68-.48,1.4-.92,2.18-1.29.9-.43,1.75-.81,2.58-1.15-.52-.36-1.05-.72-1.58-1.08-1.07,1.2-2.11,2.38-3.18,3.52Z"/>
  <path class="cls-2" d="m192.79,581.14c.05.14.1.28.15.42,4-3.65,9.64-5.29,15.27-5.17-7.98-2.7-16.15-4.7-24.32-6.69,4.4,2.56,7.05,6.41,8.9,11.44Z"/>
  <path class="cls-2" d="m558.41,650.4c.19.09.38.18.57.27,5.39-.07,11.01,1.25,16,3.02,3.52,1.25,6.96,2.78,10.4,4.25,1.19.51,2.37,1.02,3.55,1.54,1.82.79,1.87,1.05,1.46.98,2.09.83,6.04,1.45,6.8,1.61,3.19.63,6.37,1.25,9.57,1.81,1.42.25,2.84.47,4.26.69-1.95-.32.63.02,2.1.22,3.48.29,6.98.49,10.47.6.7.02,1.38.08,2.05.16-5.75-3.19-11.57-6.23-17.57-8.95-.71-.32-1.42-.63-2.14-.95-.2-.08-.72-.28-1.58-.64-1.7-.62-3.37-1.33-5.09-1.88-2-.64-4.04-1.15-6.09-1.59-1.94-.43-4.47-1.25-6.64-1.39-.54.03-1.15.05-1.62,0-1.42-.16-2.84-.3-4.27-.44-9.03-.86-18.52-1.27-27.94-2.21,1.88,1.01,3.78,1.99,5.7,2.91Z"/>
  <path class="cls-2" d="m641.84,678.5c1.92-.03,3.84-.05,5.77-.08-1.06-.67-2.13-1.34-3.21-1.98-1.79-1.07-3.59-2.13-5.39-3.2,1.18,1.58,2.14,3.34,2.83,5.26Z"/>
  <path class="cls-2" d="m726.24,672.27c2.41.29,4.7.76,6.81,1.51,2.69-4.1,5.58-8.06,9.02-11.61-1.24.49-2.33.84-2.91.82-.15.07-.31.14-.46.21-1.24.6-2.46,1.21-3.66,1.88-3.77,2.11-7.34,4.54-10.88,7.01.7.04,1.39.1,2.08.18Z"/>
  <path class="cls-3" d="m464.65,221.22c.02-1.15,0-2.3,0-3.44-1.4,1.77-3.01,3.56-4.79,5.23-.32,2.23-.66,4.46-1,6.68.82,1.1,1.23,2.52.81,4.1-.09.35-.2.7-.3,1.05.21.44.35.9.42,1.37,2.15-3.65,4.51-7.36,7.11-10.84-1.33-.76-2.28-2.14-2.25-4.14Z"/>
  <path class="cls-3" d="m435.96,137.22c2.44-.2,4.88-.39,7.33-.56-.34-.07-.68-.14-1.02-.2h-6.7c.15.24.29.49.4.76Z"/>
  <g>
    <path class="cls-4" d="m339.46,484.28c-5.38.75-5.8,3.75-5.66,7.46.22,6.05.06,12.11.06,19.09,5.67-2.26,10.87-4.05,15.8-6.4,3.23-1.54,5.27-.99,7.19,1.84,1.94,2.87,4.09,5.59,6.43,8.74-8.64,3.46-16.7,6.89-24.92,9.87-3.45,1.25-4.66,3.06-4.44,6.66.3,4.92.08,9.88.08,15.55,8.25-3.25,16.07-6.33,23.88-9.41,5.2-2.05,10.35-4.22,15.62-6.09,1.21-.43,3.33-.37,4.09.39,3.11,3.15,5.86,6.66,9.63,11.07-28.97,10.98-57.19,21.67-85.52,32.4,24.05,9.5,48.27,19.07,72.77,28.75-.91,1.59-1.46,2.52-1.99,3.46q-4.89,8.82-14.14,5.3c-25.97-9.85-51.91-19.77-77.96-29.41-2.58-.96-5.99-.91-8.67-.15-11.51,3.27-22.87,7.07-34.34,10.46-1.83.54-4.15.52-5.94-.1-28.34-9.86-56.62-19.9-84.95-29.79-2.54-.89-3.38-2.17-3.36-4.81.07-11.18-.06-22.36-.11-33.55,0-1.55,0-3.09,0-4.64-.39-.09-.77-.18-1.16-.27-15.28,41.9-30.56,83.8-46.02,126.21,4.91,2.13,9.68,4.24,14.47,6.28,10.57,4.5,21.11,9.08,31.78,13.33,1.53.61,3.97.14,5.54-.69,37.67-19.94,75.27-40.01,112.9-60,1.49-.79,3.35-1.79,4.81-1.5,1.87.37,5.06,2.12,4.96,2.97-.39,3.46,2.32,7.79-2.38,10.31-20.96,11.25-41.9,22.53-62.83,33.83-14.29,7.71-28.56,15.47-43.45,23.54,1.25.77,1.82,1.22,2.46,1.5,35.33,15.21,70.65,30.45,106.06,45.47,1.77.75,4.72.29,6.47-.73,22.66-13.12,45.18-26.47,67.77-39.7,35.96-21.05,71.95-42.06,107.92-63.09,1.48-.86,2.93-1.78,5.38-3.27-9.92-3.96-18.88-7.54-28.33-11.31,2.03-3.31,3.58-6.49,5.79-9.12.82-.97,3.41-1.27,4.81-.78,9.94,3.47,19.74,7.36,29.7,10.78,1.96.67,4.85.64,6.58-.35,25.59-14.75,51.02-29.75,76.58-44.56,2.86-1.66,4.16-3.47,3.89-6.8-.38-4.75,1.34-10.8-1-13.96-2.5-3.38-8.65-4.09-13.24-5.88-3.39-1.33-6.82-2.53-10.73-3.98,1.83-3.2,3.14-6.12,5.07-8.56.77-.97,3.06-1.52,4.35-1.16,4.89,1.36,9.65,3.17,14.97,4.99v-68.88h-18.81c3.04-5.12,5.28-9.32,7.98-13.19.78-1.12,2.87-1.58,4.44-1.82,1.98-.3,4.05-.07,5.84-.07.4-.74.7-1.04.67-1.28-1.89-14.06,5.09-25.26,11.86-36.47.98-1.62,2.87-2.98,4.65-3.79,8.43-3.83,16.99-7.36,25.42-11.18,1.32-.6,3.1-2.19,3.12-3.36.23-11.47.14-22.95.14-34.68-1.72-.23-3.08-.42-4.55-.62-.09-.45-.35-.94-.22-1.3,1.6-4.51,3.06-9.08,5.01-13.44.53-1.18,2.53-2.31,3.92-2.39,4.77-.28,9.58-.14,14.37-.03,2.44.06,3.45-.86,3.41-3.35-.1-6.87.04-13.74-.13-20.6-.03-1.14-.89-2.69-1.84-3.3-4.01-2.55-5.76-6.12-4.58-10.59,1.21-4.57,4.99-6.63,9.41-6.8,7.34-.28,14.69-.1,22.04-.14.62,0,1.24-.19,2.28-.36.11-2.2.32-4.4.33-6.59,0-10.7-.05-21.4-.07-32.11-.01-5.59,2.12-8.62,6.36-9.09,4.55-.5,7.46,1.89,9.08,8.03,5.35-5.63,10.74-2.59,16.23-.54,4.56,1.7,9.23,3.09,14.86,4.95-9.89,4.79-18.83,9.26-27.9,13.43-2.85,1.31-4.17,2.82-3.98,6.09.28,5.08.07,10.18.07,16.15,7.79,0,15.24-.2,22.68.09,3.38.13,7.17.47,10,2.08,5.81,3.3,5.6,10.24.21,14.23-1.14.84-2.67,2.18-2.7,3.33-.23,8.09-.12,16.19-.12,24.99,7.11,0,13.77-.12,20.43.06,2.32.06,5.27.15,6.76,1.52,2,1.83,4.01,4.96,3.9,7.44-.12,2.48-2.65,5-4.51,7.19-.81.95-2.56,1.11-4.26,1.78,0,5.24,0,10.49,0,15.74,0,28.59-.03,57.19.02,85.78,0,1.71.27,3.51.85,5.11,23.26,64.04,46.62,128.04,69.82,192.1,5.21,14.4,11,28.72,14.57,43.55,8.3,34.48-10.5,69.04-44.01,83.28-11.05,4.7-22.49,6.73-34.51,6.71-76.04-.13-152.08-.03-228.12-.17-5.51,0-10.28,1.19-14.92,4.06-10.92,6.76-22.47,12.16-35.12,14.82-19.95,4.2-39.23,1.29-56.41-9.02-13.1-7.86-26.28-10.1-41.23-9.99-72.52.54-145.05.27-217.57.28-33.75,0-62.73-18.64-74.46-48.26-6.5-16.4-6.56-33.16-.67-49.7,14.46-40.6,29.16-81.11,43.84-121.62,11.75-32.41,23.54-64.81,35.5-97.15,1.34-3.63,4.14-6.71,5.75-10.28,1.06-2.34,1.67-5.08,1.68-7.65.14-26.52.12-53.03.14-79.55.01-19.01.02-38.02.03-57.03,0-1.24.11-2.49.2-4.44,29.78,20,59.11,39.71,88.6,59.51,9.21-6.54,18.28-12.98,27.66-19.65,2.56,4.93,4.88,9.42,7.38,14.24-5.82,3.83-11.21,7.84-17.04,11.07-5.21,2.89-7.16,6.53-7.05,12.59.38,20.12.12,40.25.13,60.38.02,39.78.06,79.55.1,119.33,0,2.84,0,5.69,0,9.27,5.7-1.57,10.72-2.89,15.7-4.35,17.15-5.03,34.23-10.28,51.45-15.05,4.57-1.27,5.86-3.36,5.83-7.93-.19-24.12.14-48.24-.18-72.36-.09-6.64,5.19-5.83,8.55-7.68,3.26-1.79,3.98,1.52,5.2,3.33,3.19,4.73,6.24,9.55,9.87,15.13Zm-16.77,237.69c2,1.32,3.01,2.06,4.08,2.69,16.76,9.9,33.49,19.86,50.32,29.64,10.07,5.85,20.05,11.93,30.52,16.98,13.84,6.68,28.52,7.41,42.74,1.43,9.06-3.81,17.33-9.44,26.1-13.98,2.57-1.33,5.61-2.39,8.46-2.44,15.96-.26,31.94-.29,47.9-.13,4.65.05,8.62-1.15,12.66-3.37,35.55-19.47,71.18-38.78,106.78-58.15,1.28-.7,2.51-1.5,4.4-2.64-2.09-1.04-3.3-1.78-4.61-2.28-53.91-20.31-107.84-40.56-161.73-60.94-3.5-1.32-6.2-.92-9.36.93-44.52,25.98-89.11,51.85-133.68,77.77-7.97,4.64-15.89,9.36-24.59,14.48Zm188.9-110c7.87,2.94,15.15,5.63,22.41,8.37,48.79,18.45,97.6,36.88,146.34,55.45,3.88,1.48,7.02,1.58,10.74-.56,8.02-4.6,16.33-8.7,24.52-13.02,14.08-7.44,28.15-14.89,42.7-22.6-13.01-35.24-25.92-70.23-38.84-105.23-.4.1-.79.21-1.19.31,0,3.15-.33,6.35.08,9.44.62,4.7-1.13,6.54-5.8,7.52-31.06,6.54-62.05,13.4-93.07,20.15-5.73,1.25-11.48,2.41-18.06,3.79v-170.26c-6.68,2.65-12.29,5.42-18.21,7.09-6.88,1.94-8.54,5.82-8.49,12.76.31,47.74.06,95.48.17,143.23,0,4.28-1.14,6.84-5.04,9.07-18.44,10.51-36.68,21.37-54.98,32.13-.93.55-1.76,1.25-3.29,2.35Zm109.01-262.22v202.97c25.16-5.07,49.82-10.16,74.55-14.93,4.36-.84,3.74-3.56,3.74-6.33.09-59.42.16-118.84.21-178.25,0-1.07-.2-2.13-.34-3.46h-78.17Zm-459.01-8.43c-.17,1.87-.31,2.66-.31,3.44,0,67.22.01,134.44-.05,201.66,0,2.75,1.02,3.83,3.53,4.69,14.8,5.03,29.53,10.25,44.29,15.42,4.92,1.72,9.83,3.46,15.5,5.46,0-3.11,0-5.46,0-7.8.02-57.96-.05-115.92.22-173.88.03-5.54-1.83-8.65-6.26-11.52-14.86-9.63-29.49-19.63-44.24-29.44-3.93-2.62-7.98-5.06-12.67-8.03Zm426.55,414.5c2.35.26,3.22.45,4.09.45,44.24-.01,88.48,0,132.72-.12,4.44-.01,8.96-.41,13.3-1.34,25.26-5.41,43.13-28.22,39.31-52.16-2.08-13.04-7.24-25.58-11.34-39.48-59.84,31.13-118.32,61.56-178.08,92.65Zm-305.18.53c.07-.55.14-1.11.22-1.66-64.61-27.85-129.22-55.69-195.05-84.06-3.3,11.33-6.77,21.89-9.31,32.66-.94,4-.27,8.64.64,12.77,5.08,23.17,25.64,39.76,50.38,39.98,42.33.38,84.65.24,126.98.32,8.72.02,17.43,0,26.15,0Zm395.58-451.29h-37.9v26.82c12.01,0,23.78.05,35.54-.1.8,0,2.24-1.46,2.26-2.26.17-8.08.1-16.17.1-24.46Z"/>
    <path class="cls-5" d="m430.05,542.27c-6.03-5.79-10.37-9.77-14.49-13.96-29.17-29.67-52.79-63.54-74.73-98.7-23.78-38.1-45.92-77.1-63.98-118.27-11.01-25.1-20.03-50.87-21.65-78.55-4.13-70.34,35.38-137.08,98.8-167.89,42.94-20.86,86.79-24.47,131.77-7.66,72.42,27.06,119.02,97.12,115.43,173.82-1.26,26.98-9.88,52.24-20.26,76.92-19.68,46.81-45.13,90.51-72.28,133.27-19.12,30.1-39.56,59.2-64.55,84.86-4.78,4.91-9.03,10.34-14.07,16.15Zm-1.45-420.18c-54.74.06-98.28,43.54-98.37,98.25-.09,54.84,44.02,98.47,99.39,98.32,52.99-.15,96.89-44.02,96.83-96.76-.06-55.77-43.28-99.86-97.85-99.8Z"/>
    <path class="cls-4" d="m247.55,314.78h-53.46c6.29-5.22,11.56-9.64,16.89-13.97.55-.45,1.49-.57,2.25-.58,8.43-.11,16.87-.23,25.31-.18,1.07,0,2.67.73,3.1,1.59,2.11,4.21,3.9,8.58,5.91,13.14Z"/>
    <path class="cls-5" d="m661.93,167.3c4.88-.03,8.97,3.83,9.05,8.54.07,4.35-4.39,8.56-9.1,8.59-4.71.04-8.47-3.63-8.58-8.37-.11-4.94,3.63-8.73,8.63-8.77Z"/>
    <path class="cls-4" d="m280.46,424.74c0,.8,0,1.59,0,2.39-.02,5.89-5.42,9.32-10.9,6.77-.99-.46-2.23-1.69-2.29-2.64-.28-4.11-.3-8.26-.09-12.38.04-.82,1.45-1.68,2.37-2.3.46-.31,1.24-.15,1.87-.18q8.92-.51,9.03,8.35Z"/>
    <path class="cls-4" d="m304.06,519.69c-.85,2.7,2.02,7.25-3.74,8.45-7.21,1.51-9.37-.07-9.41-7.37,0-1.27-.01-2.54,0-3.82.09-6.13.42-6.47,6.42-6.62,6.72-.17,6.77-.1,6.73,9.36Z"/>
    <path class="cls-4" d="m280.31,519.68c.03,8.03-.17,8.37-5.33,8.83-6.61.59-7.8-.48-7.87-7.24-.02-2.23.09-4.46.06-6.69-.04-2.8,1.28-3.82,4.07-3.99,8.8-.52,9.02-.39,9.06,9.08Z"/>
    <path class="cls-4" d="m280.28,487.81c.05,7.89-2.35,10.68-9,9.13-7.36-1.72-3.32-8.08-4.03-12.42-.49-2.97.03-5.95,4.36-5.5.63.06,1.27-.03,1.91-.04q6.66-.11,6.76,6.44c.01.8,0,1.59,0,2.39Z"/>
    <path class="cls-4" d="m304.15,456.41c.02,7.89-1.81,9.77-8.7,9.01-.47-.05-1.01-.03-1.4-.24-6-3.24-2.22-8.84-3.09-13.3-.64-3.27,1.86-3.93,4.45-4.12.95-.07,1.91-.08,2.86-.18,4.46-.46,6.6,1.31,5.89,5.97-.14.93-.02,1.91-.01,2.86Z"/>
    <path class="cls-4" d="m304.06,488.3c-.71,2.5,1.74,6.46-3.35,7.86-7.16,1.97-9.8.21-9.87-7.16,0-1.12,0-2.23,0-3.35.02-6.51.21-6.71,6.64-6.77q6.58-.06,6.58,9.42Z"/>
    <path class="cls-5" d="m384.35,621.31c-.04-.91-.11-1.09-.05-1.2,6.18-11.47,3.57-10.09,14.83-5.84,2.51.95,4.95,2.08,7.91,3.33-1.97,3.3-3.79,6.37-5.94,9.97-5.71-2.13-11.38-4.25-16.76-6.26Z"/>
    <path class="cls-4" d="m280.35,456.46c.04,8.1-1.46,9.69-8.63,9.15-.16-.01-.32,0-.48-.03-7.22-1.68-3.43-7.47-4.08-11.47-.46-2.85-.64-6.02,4.18-6.2,8.89-.34,8.96-.49,9.01,8.56Z"/>
    <path class="cls-4" d="m503.22,519.71c.08-.79.05-.97.12-1.1,6.07-11.31,6.54-11.42,19.85-4.31-1.69,2.66-3.19,5.48-5.16,7.9-.72.89-2.72,1.43-3.88,1.13-3.67-.94-7.23-2.35-10.93-3.62Z"/>
    <path class="cls-5" d="m445.78,574.02c6.42-12.25,3.89-11.39,20.51-4.38-1.84,2.76-3.55,5.53-5.51,8.1-.5.65-1.99,1.16-2.74.91-4.01-1.35-7.94-2.97-12.26-4.63Z"/>
    <path class="cls-5" d="m420.99,588.61c-1.86,2.75-3.38,5.36-5.3,7.63-.67.79-2.53,1.28-3.52.95-3.89-1.3-7.65-2.98-11.37-4.49.02-.41-.02-.59.04-.72,5.05-10.3,7.29-10.7,20.15-3.37Z"/>
    <path class="cls-5" d="m370.66,581.41q4.91-10.1,14.9-6.02c1.73.71,3.47,1.4,5.25,2.11-6.5,11.32-4.37,10.49-20.15,3.91Z"/>
    <path class="cls-4" d="m289.85,424.48c1.25-2.57,1.9-6.59,3.88-7.41,4.33-1.79,4.04,3.59,6.03,5.63.65.66,1.12,1.56,1.46,2.43.94,2.36,1.76,4.77,2.64,7.16-3.33.6-6.74,1.98-9.96,1.61-3.81-.43-2.85-4.25-2.96-7-.03-.63,0-1.27,0-1.9-.36-.17-.72-.34-1.08-.51Z"/>
    <path class="cls-5" d="m231.36,669.28q-5.74,9.3-15.45,5.4c-1.15-.46-2.3-.93-3.34-1.35-.08-.55-.26-.92-.15-1.14,5.09-10.24,6.93-10.54,18.94-2.92Z"/>
    <path class="cls-5" d="m495.33,579.36c-2.1,2.71-3.67,5.14-5.67,7.13-.9.9-2.8,1.52-4,1.24-3.54-.82-6.96-2.15-11.11-3.51,2.06-3.14,3.66-6.01,5.74-8.48.7-.83,2.81-1.16,3.97-.79,3.61,1.16,7.08,2.78,11.06,4.41Z"/>
    <path class="cls-5" d="m291.9,627.25c6.02-11.4,3.69-11.71,18.77-4.12-.02.3.07.68-.08.89q-6.35,9-18.7,3.22Z"/>
    <path class="cls-5" d="m249.12,649.33c0-.15-.07-.33-.02-.44,5.06-10.16,7.16-10.58,18.37-3.69-5.29,10.41-7.08,10.81-18.36,4.13Z"/>
    <path class="cls-5" d="m334.64,632.83c-1.92,2.9-3.82,5.77-5.88,8.9-4.34-1.69-8.55-3.34-12.78-4.99,5.16-11.02,2.89-12.04,18.66-3.91Z"/>
    <path class="cls-5" d="m279.27,660.49c5.8-11.85,3.84-10.65,18.28-4.1-3.3,9.34-7.39,10.26-18.28,4.1Z"/>
    <path class="cls-5" d="m260.63,680.87c-1.81,2.63-3.25,5.1-5.11,7.21-.66.75-2.49,1.1-3.51.77-3.3-1.06-6.48-2.52-9.7-3.82,5.1-12.03,3.52-11.37,18.32-4.15Z"/>
    <path class="cls-5" d="m359.25,642.32q-6.56,9.94-18.53,3.7c.02-.31-.05-.67.07-.94,4.54-9.56,7-9.95,18.46-2.76Z"/>
    <path class="cls-5" d="m306.94,670.8c5.75-11.24,3.96-10.91,18.1-4.23-4.75,10.09-7.3,10.71-18.1,4.23Z"/>
    <path class="cls-5" d="m270.81,695.15c6.51-12.17,3.19-10.51,18.08-4.59-6.43,11.22-3.14,10.51-18.08,4.59Z"/>
    <path class="cls-4" d="m371.08,204.42c0,9.93.13,18.84-.06,27.74-.08,3.84,1.45,4.94,5.1,4.88,10.69-.17,21.39.08,32.08-.13,3.64-.07,4.68,1.22,4.62,4.7-.17,9.73.07,19.48-.11,29.21-.06,3.39.71,4.93,4.47,4.81,7.49-.25,15.01-.23,22.5-.04,3.4.09,4.4-1.21,4.36-4.46-.14-9.1-.01-18.2,0-27.3,0-6.92,0-6.94,6.67-6.94,10.22,0,20.44-.1,30.65.12,3.46.07,4.86-.82,4.76-4.51-.2-7.66-.18-15.33.11-22.98.15-3.85-1.3-5.02-4.96-4.95-10.53.19-21.07-.04-31.6.27-4.53.13-5.76-1.6-5.66-5.88.25-9.89-.01-19.79.15-29.69.06-3.48-1.07-4.86-4.67-4.76-7.34.2-14.69.26-22.02-.02-3.97-.15-4.84,1.49-4.78,5.05.18,9.57.06,19.15.08,28.73.02,6.05-.32,6.42-6.49,6.35-1.43-.02-2.87-.2-4.3-.2-10.03-.02-20.05,0-30.9,0Z"/>
    <path class="cls-5" d="m443.16,681.24c-3.51,12.59,3.76,21.73,9.75,32.07,6.71-9.9,12.06-19.58,9.24-31.8,10.28,2.8,18.57,16.9,17.18,28.93-1.42,12.25-11.19,20.31-25.65,21.15-13.69.8-25.13-6.69-27.56-18.03-2.73-12.75,4.89-27.43,17.05-32.33Z"/>
    <path class="cls-5" d="m534.37,682.03c3.96-11.03,7.21-11.72,18.27-3.88-4.44,10.05-6.99,10.59-18.27,3.88Z"/>
    <path class="cls-5" d="m491.87,656.72c-2.19,3.16-4.17,6-6.2,8.92-1.1-.28-2.03-.45-2.9-.76-3.25-1.16-6.49-2.37-9.74-3.57,5.41-12.38,4.12-11.69,18.84-4.59Z"/>
    <path class="cls-5" d="m502.11,671.01c5.61-11.44,3.55-10.83,18.29-3.89-.02.3.06.67-.08.89-6.29,9.56-6.54,9.6-18.21,3.01Z"/>
    <path class="cls-5" d="m611.86,698.91q-6.58,9.85-18.69,4.65c-.03-.3-.19-.69-.06-.9,7.36-11.76,2.22-10.15,18.74-3.76Z"/>
    <path class="cls-5" d="m564.87,692.82c4.05-10.78,6.72-11.31,18.4-3.95-7.26,10.61-2.8,10.38-18.4,3.95Z"/>
    <path class="cls-5" d="m664.78,594.18c-4.02,12.63,3.77,21.72,8.89,32.13,6.99-9.79,12.37-19.61,9.58-32.09,12.36,5.56,19.48,19.48,16.68,32.01-2.45,10.99-13.67,18.48-27.16,18.14-13.65-.34-23.25-7.2-25.42-18.16-2.66-13.42,4.34-26.57,17.42-32.03Z"/>
    <path class="cls-5" d="m606.87,623.75c6.16-12.56,4.4-11.55,19.43-4.4-1.65,2.51-3.08,5.18-5.01,7.41-.74.86-2.78,1.32-3.94.98-3.46-1.03-6.78-2.54-10.49-4Z"/>
    <path class="cls-5" d="m551.49,603.88c6.08-12.68,4.2-11.65,18.65-5.01-7.27,11.92-3.75,10.82-18.65,5.01Z"/>
    <path class="cls-5" d="m579.65,613.69c4.39-11.15,7.6-11.95,17.94-4.47-6.32,11.35-3.96,10.49-17.94,4.47Z"/>
    <path class="cls-4" d="m634.04,516.08v-18.11c16.8-2.72,33.54-5.44,50.84-8.24,0,5.88.1,10.95-.1,16-.04.9-1.22,2.38-2.06,2.53-15.7,2.79-31.42,5.42-47.15,8.06-.3.05-.62-.09-1.54-.24Z"/>
    <path class="cls-4" d="m198.59,459c12.82,1.97,13.24,2.46,13.12,14.16-.03,2.99,0,5.98,0,9.87-4.35-1.57-7.9-2.71-11.31-4.19-.85-.37-1.7-1.84-1.73-2.82-.17-5.54-.08-11.08-.08-17.01Z"/>
    <path class="cls-6" d="m371.08,204.42c10.84,0,20.87,0,30.9,0,1.43,0,2.87.19,4.3.2,6.17.07,6.51-.29,6.49-6.35-.03-9.58.09-19.16-.08-28.73-.07-3.56.81-5.2,4.78-5.05,7.33.28,14.69.22,22.02.02,3.59-.1,4.73,1.28,4.67,4.76-.17,9.89.09,19.8-.15,29.69-.11,4.27,1.12,6.01,5.66,5.88,10.53-.31,21.07-.08,31.6-.27,3.66-.07,5.1,1.1,4.96,4.95-.29,7.65-.32,15.33-.11,22.98.1,3.69-1.3,4.58-4.76,4.51-10.21-.22-20.43-.12-30.65-.12-6.68,0-6.66.02-6.67,6.94,0,9.1-.13,18.2,0,27.3.05,3.25-.95,4.54-4.36,4.46-7.5-.19-15.01-.21-22.5.04-3.75.12-4.53-1.42-4.47-4.81.18-9.73-.06-19.48.11-29.21.06-3.48-.99-4.77-4.62-4.7-10.69.21-21.39-.04-32.08.13-3.64.06-5.18-1.04-5.1-4.88.19-8.9.06-17.81.06-27.74Z"/>
    <path class="cls-5" d="m198.25,193.51c7.56-.05,13.9,5.94,14.01,13.24.11,6.74-6.8,13.26-14.1,13.31-7.3.06-13.13-5.63-13.29-12.97-.17-7.65,5.62-13.53,13.38-13.58Z"/>
    <path class="cls-5" d="m231.15,103.96c5.16-.03,9.49,4.05,9.57,9.04.07,4.6-4.64,9.05-9.63,9.09-4.99.04-8.96-3.84-9.07-8.85-.12-5.22,3.84-9.24,9.13-9.27Z"/>
    <path class="cls-5" d="m627.14,86.83c8.69-.06,15.98,6.83,16.11,15.22.13,7.75-7.82,15.25-16.21,15.31-8.4.06-15.09-6.47-15.28-14.91-.2-8.8,6.46-15.56,15.38-15.62Z"/>
  </g>
</svg>