<?xml version="1.0" encoding="UTF-8"?>
<svg xmlns="http://www.w3.org/2000/svg" viewBox="0 0 811.41 856.45">
  <defs>
    <style>
      .cls-1 {
        fill: #fff;
      }

      .cls-2 {
        fill: #1c6e8c;
      }

      .cls-3 {
        fill: #f3f8ff;
        stroke: #ebfffd;
        stroke-miterlimit: 10;
      }

      .cls-4 {
        fill: #e22d2d;
      }

      .cls-5 {
        fill: #00bfb2;
      }
    </style>
  </defs>
  <g id="Capa_4" data-name="Capa 4">
    <path class="cls-5" d="m194.86,566.19c-.12-6.01-2.82-11.5-6.01-16.66,2.82-4.47,1.99-10.25-1.59-14.27-.18-.21-.36-.42-.54-.62.25-2.95-.62-6.11-3-8.9-3.9-4.58-7.59-9.78-12.12-13.76-5.12-4.49-11.28-6.2-17.86-7.31-12-2.02-25.08-2.41-35.82,4.28-3.15,1.97-5.87,4.37-8.2,7.09-1.02,1.08-1.92,2.26-2.69,3.52-3.5,5.14-5.89,11.08-7.39,17.2-1.39,5.65-2.13,11.48-2.84,17.25-.36,2.92-.7,5.85-.65,8.8,0,.43.04.88.08,1.35-.66.13-1.32.29-1.97.46-.81-.19-1.63-.27-2.45-.17-3.22.37-6.21.84-8.96,2.72-2.84,1.94-5.1,4.61-6.2,7.78-.52.58-1.03,1.19-1.52,1.83-3.65,4.76-5.97,10.59-5.98,16.66,0,1.58.18,3.17.47,4.74-.7,1.46-1.04,3.15-.89,5.03.49,5.89,2.27,10.28,6.16,14.71.75.86,1.61,1.53,2.55,2.05.03.04.05.09.08.14,2.63,4.25,6.48,7.87,10.92,10.19,10.37,5.43,21.6,4.26,32.77,2.72,2.18-.3,3.96-1.33,5.3-2.79,2.05,2.02,4.55,3.71,7.87,4.93,5.03,1.85,12.32-1.75,13.91-7,1.79,1.32,3.97,2.28,6.61,2.77,6.32,1.16,13.43,1.58,19.84,1.19,7.49-.45,14.45-4.08,16.39-11.92,1.36-5.51,1.23-11.83,1.26-17.5.04-7.93-.79-15.91-3.22-23.39,3.58-2.92,5.82-7.16,5.7-13.11Z"/>
    <path class="cls-5" d="m803.18,623.05c-3.52-4.86-10.16-7.72-15.73-4.13-4.71,3.03-7.73,10.17-4.36,15.36-.02.54-.04,1.09-.08,1.63-.06.76-.13,1.52-.2,2.29-.22.37-.42.75-.58,1.16-.16,0-.32-.01-.48-.01-4.44.02-8.62,1.46-12.35,3.7.28-3.16-.54-6.44-2.66-9.29-2.83-3.81-7.2-5.57-11.59-5.43-.15-3.05-.54-6.13-1.26-9.28-.27-1.18-.77-2.28-1.45-3.28.05-.14.1-.28.16-.42,1.38-3.3,4.27-5.78,6.61-8.4,1.67-1.88,3.26-3.82,4.76-5.84.15-.2.29-.41.44-.61,1.53-.14,3.04-.45,4.55-1.31,3.12-1.77,5.41-4.54,6.31-8.07,1.44-5.68-.95-13.01-3.05-18.31-2.19-5.54-4.99-11.63-9.27-15.91-5.93-5.93-15.92-4.1-20.04,2.94-2.9,4.96-3.87,11.59-5.53,17.05-.95,3.1-1.74,6.25-3.64,7.38-3.06,1.82-7.11,3-10.39,5.64-3.86-6.06-9.78-10.95-16.25-12.46-8.24-1.93-11.76,4.26-17.51,8.29-.42.29-.84.56-1.27.81-.47-.48-.98-.9-1.53-1.26,4.76-3.26,8.32-8.25,9.49-14.34.73-3.81-.12-7.71-2.41-10.52,1.13-2.95-.35-7.01-4.46-7.01-2.35,0-3.84,1.33-4.47,3.02-3.35.14-6.77,1.72-8.89,4.32-.28-.06-.55-.12-.83-.16-.33-.08-.67-.16-1.02-.22-2.06-2.76-4.3-5.31-6.51-7.54-8.56-8.61-21.29.37-19.22,11.19.84,4.42,2.31,8.86,4.51,12.77-1.64.71-3.34,1.3-5.1,1.76-6.05,1.57-12.35.37-18.39,2.03-.66.18-1.28.4-1.88.62-2.13-2.53-5.25-4.2-8.66-4.04-2.56.12-8.11.81-9.94-1.33-1.25-1.47-1.26-4.73-1.65-6.63-.74-3.57-1.47-7.14-2.21-10.72-.1-.47-.24-.92-.41-1.36.17-.24.32-.5.45-.77,3.29-2.47,2.32-9.09-2.93-9.09-2.16,0-3.6,1.13-4.31,2.63-.27.2-.5.43-.71.68-2.05-.59-4.23-.68-6.24-.13-3.99,1.1-6.64,4.02-7.74,7.56-1.51,1.3-2.74,3.1-3.44,5.49-2.08,7.06-3.82,14.77-1.94,22.09.81,3.18,2.24,6.15,4.04,8.87.16.25,1.41,2.23,1.99,2.72-.18-.02-.39-.13-.45-.11-1.96.4-5.53-2.05-7.65-2.66-7.55-2.17-15.82-.45-20.81,5.86-4.08,5.17-3.65,12.1-4.87,17.16-1.7,7.06-1.8,13.6,2.27,19.97,8.81,13.77,26.02,9.68,39.81,12.66,6.07,1.31,12.44-1.81,14.15-8.03,1.58-5.74-1.93-12.83-8.03-14.15-6.5-1.41-13.14-2.38-19.79-2.7-2.09-.1-4.76.29-6.83-.19.06-1.73.98-4.46,1.58-6.91,2.27.9,4.8,1.41,7.12,1.7,12.76,1.59,25.42-7.49,26.48-20.51,1.82.39,3.67.64,5.54.79-1.32,2.63-2.77,5.18-4.66,7.38-4.04,4.72-4.63,11.63,0,16.26,1.5,1.5,3.53,2.53,5.69,3.02-2.95,3.64-3.57,9.21-1.2,13.37,5.08,8.94,16.16,8.73,25.18,7.94,4.35-.38,8.64-1.06,12.9-1.92,2.28,2.26,5.47,3.72,8.44,3.72,5.81,0,9.51-3.84,10.95-8.8,3.18-1.2,6.07-2.9,8.07-6.01,1.03-1.61,1.74-3.31,2.12-5.07,4.31.72,8.61-.34,13.31-1.61,2.43-.66,4.89-1.19,7.4-1.44.19-.02.39-.02.58-.04,1.18,3.24,3.66,5.88,7.45,6.92,4.58,1.26,10.52-.86,13.05-5.1-1.69,5.88.05,12.23,5.61,15.4,1.11.63,2.19,1.08,3.25,1.38-2.13,7.97-5.52,15.82-7.71,23.27-1.1,3.73-.02,8.55,2.96,11.19,4.81,4.26,10.77,5.23,16.48,2.06.91-.5,1.73-1.12,2.51-1.8,3.63,3.49,9.12,3.93,13.78,1.65,8.87-4.33,15.2-13.34,22.9-19.22.66.57,1.37,1.06,2.16,1.44,3.48,1.9,7.75,2.01,11.39.54,6.76-2.72,7.81-9.2,8.66-15.51.91-1.63,1.48-3.53,1.66-5.61.6-6.73,2.13-14.54-2.15-20.46Zm-135.39-24.76c-.12-.06-.25-.12-.37-.18-.98-.49-1.98-.97-2.99-1.43,1.12-.55,2.22-1.14,3.31-1.76.28.05.56.08.84.11,0,.65.06,1.33.17,2.02-.34.41-.66.82-.96,1.25Zm36.01,5.41c.24-.18.49-.36.73-.54.11.19.2.37.26.53-.33,0-.66,0-.99,0Z"/>
    <path class="cls-5" d="m625.47,301.77c-1.14-.02-2.29-.04-3.43-.06-1.11-1.42-3.13-1.97-4.92-1.82.03-2.45-1.71-4.9-4.87-5.14-11.44-.86-22.9.04-34.01,2.61-12.78-3.97-29.29-6.67-39.11,4.2-1.24,0-2.47.01-3.71.02-.66-1.65-2.13-2.98-4.42-3.06-4.95-.19-9.89-.24-14.83-.15-6.04.04-12.09.23-18.13.55-16.24-.25-32.48-.5-48.72-.75-.67-.39-1.45-.66-2.4-.71-7.76-.4-15.51-.36-23.24.11l-10.17.05c-1.71,0-2.96.71-3.76,1.74-.58.35-1.08.79-1.5,1.31-7.92-1.05-15.95-1.12-23.95-.18-4.28.5-7.6,7.01-2.52,9.32,3.4,1.55,6.85,2.93,10.36,4.16.05.14.1.28.16.42-2.05.36-4.1.69-6.17.94-5.17.63-7.28,8.37-1.33,9.82.43.1.86.19,1.28.29.12,2.31,1.69,4.46,4.79,4.46,32.28,0,64.55-.02,96.83-.02,1.98,0,3.35-.95,4.12-2.27,27.05,5.17,54.75,5.27,81.71.27,4.66.12,9.32.1,13.97-.05,1.74,0,3.48,0,5.22,0,.7,0,1.33-.12,1.88-.34,2.78-.17,5.56-.38,8.34-.65.65-.06,1.23-.23,1.75-.47.88.27,1.84.32,2.86.14,6.95-1.21,12.06-6.12,14.32-12.24,2.14-.81,4.2-1.87,6.13-3.2,3.99-2.74,2.66-9.23-2.52-9.32Zm-213.45,17.83c.31-.1.61-.22.92-.32.02.21.06.41.1.62-.31,0-.63,0-.94,0-.02-.1-.05-.2-.08-.3Zm188.25-2.51c-.72.06-1.44.12-2.17.17-.34-2.21-2-4.19-4.8-4.2-5.13-.01-10.25-.02-15.38-.03,1.97-.26,3.95-.53,5.92-.82,3.53-.52,4.14-3.72,3.07-6.35.52-.09,1.05-.16,1.57-.24-.34,2.67,1.31,5.53,4.79,5.59,3.2.06,6.4.11,9.61.17-1.43,1.72-2.32,3.68-2.61,5.71Z"/>
    <path class="cls-4" d="m642.32,637.75c-.24-3.57-1.78-6.8-4.95-8.53-.08-1.42-.81-2.78-2.48-3.67-7.08-3.77-17.51-3.13-20.41,5.73-1.24,3.78-.17,7.64,1.97,10.88,2.42,3.67,4.91,5.65,9.41,5.7,3.69.04,8.38.69,11.86-.81,3.82-1.66,4.86-5.42,4.6-9.29Z"/>
    <path class="cls-4" d="m232.11,661.2c-2.02-1.92-4.72-3.05-7.15-2.52-.74-1.25-2.11-2.08-4.11-1.86-1.95.22-3.37.18-5.26-.35-2.38-.67-4.22.31-5.25,1.88-.36.07-.72.13-1.08.2-1.14.03-2.01.17-3.18.66-2.74,1.13-3.74,3.67-3.35,5.87-1.32,3.07.8,5.86,3.44,6.65-1.21,3.03.19,7.02,2.66,9.24,4.38,3.94,11.06,1.81,16.32,1.79,4.92-.01,12.21,2.71,16.35-.67,9.26-7.54-4.7-16.43-9.4-20.9Z"/>
    <path class="cls-4" d="m101.78,663.22c.89-3.27.23-6.75-3.25-8.14-3.93-1.57-8.43,2.31-11.59,4.23-5.92,3.59-12.89,10.57-12.17,18.2.89,9.56,15.66,6.94,21.97,6.34,5.3-.51,6.22-7.57,2.64-9.53.73-1.32.88-2.8.96-4.32.14-2.53.79-4.36,1.44-6.78Z"/>
    <path class="cls-5" d="m488.72,549.1c.29-9.85.78-19.69,1.48-29.52.61-8.73,2.41-17.84,1.92-26.59-.49-8.8-4.44-17.57-13.52-20.29-4.28-1.29-8.35-.77-12.71-.51-2.1.12-4.06.16-6.1-.22-.28-.05-.41-.03-.46.06-1.63-6.96-8.4-11.72-15.55-7.69-17.29,9.74-37.66,12.99-57.09,8.79-5.54-1.2-11.35,1.65-12.92,7.33-1.14,4.15.64,9.07,4.2,11.54-.74,2.38-.57,5.12,1,7.92,1.19,2.12.37,6.68.39,9.21.03,4.63.07,9.27.1,13.9.06,8.94.13,17.87.19,26.81l.19,26.81c.06,7.75.38,15.61-.94,23.28-.73.66-1.35,1.43-1.79,2.32-.43.88-.84,1.86-1.18,2.78-.06.15-.12.31-.16.47-.14.57-.19,1.24-.26,1.78-.07.5-.21,1.21-.22,1.79,0,.13,0,.26.02.4.03.49.09,1.03.16,1.57-.38,1.08-.57,2.24-.48,3.44,1.25,15.78,1.28,31.58.11,47.37-.4,5.33,5.14,10.95,10.5,10.5,31.26-2.65,62.67-2.23,93.86,1.25,4.45.5,9.06-3.61,10.12-7.71,4.78-18.38.82-38.05-.17-56.69-1.06-20.01-1.3-40.06-.7-60.09Z"/>
  </g>
  <g id="Capa_3" data-name="Capa 3">
    <path class="cls-3" d="m112.2,637.9c-2.7-2.7-4.05-5.61-4.85-8.88-6.09,3.96-14.54,4.45-20.82.7-2.37-1.41-4.47-3.04-6.32-4.83v41.16c.42-.55.87-1.08,1.35-1.59,3.56-3.74,7.9-6.16,12.59-7.18,2.26-1.18,4.47-2.45,6.6-3.85.54-.35,1.08-.71,1.61-1.09.03-.02.04-.03.07-.05.49-.51,1.07-1.17,1.55-1.69.06-.34.11-.68.14-1.03.7-5.15,4.1-8.95,8.46-11.3-.13-.12-.26-.24-.38-.36Z"/>
    <path class="cls-3" d="m213.73,136.45h-73.01c-33.28,0-60.51,27.23-60.51,60.51v377.72c3.72-3.65,8.41-6.53,14.04-8.18,2.18-.64,4.34-.85,6.44-.7-2.49-10.01-3.84-20.28-.22-30.26,5.16-14.2,15.57-23.79,29.82-28.6,12.01-4.05,26.14-2.97,37.19,3.31,8.26,4.69,14.03,13.48,18.3,21.73,4.55,8.79,8.13,18.03,9.54,27.81,0-.16,0-.32.01-.47.26-28.11-4.43-56.04-3.33-84.15-1.33-.38-2.64-.82-3.91-1.32-.95.15-1.91.23-2.87.23-10.93,0-19.03-8.93-19.5-19.5-.11-2.51.36-4.94,1.28-7.17-.7-4.75-.51-9.74.59-14.72,2.59-11.73,10.27-21.05,19.28-28.47.4-1.89,1.04-3.73,1.93-5.44.53-1.02,1.02-2.05,1.53-3.08.42-1.27.89-2.52,1.31-3.8,1.1-3.36,2.27-6.79,4.06-9.85,1.98-3.39,4.64-6.04,7.67-8.22-4.44-4.62-7.48-10.89-8.62-18.18-1.73-11.09-.53-21.73-.44-32.83.02-2.4.48-4.65,1.26-6.73-.73-5.2-1.21-10.43-1.26-15.74-.05-4.82,1.7-9.09,4.58-12.4-3.49-6.55-6.91-13.08-9.74-19.98-3.05-7.43-4.66-15.35-6.27-23.2-1.94-9.47-4.04-19.1-4.59-28.77-1.73-30.25,11.78-60.84,35.43-79.57Z"/>
    <path class="cls-3" d="m729.31,136.45H243.68c.85.91,1.62,1.89,2.29,2.92,5.95,9.22,1.47,21.01-7,26.68-.63.41-1.25.85-1.87,1.28-.99.86-1.97,1.71-2.92,2.61-1.18,1.13-2.31,2.3-3.4,3.51-.36.39-.7.79-1.04,1.2-.44.79-2.13,2.92-2.31,3.18-1.03,1.57-2,3.18-2.91,4.82-.68,1.24-1.33,2.49-1.95,3.76-.41.85-.8,1.7-1.18,2.57.29-.68.58-1.37.87-2.05-1.69,2.24-2.37,6.67-3.1,9.4-.36,1.36-.69,2.74-.97,4.12-.19.92-.37,1.84-.53,2.76-.35,2.19-.32,1.85.08-1.02-.89,2.34-.54,5.83-.58,8.32-.02,1.51-.72,8.35.46,9.55-.46-3.13-.46-3.35,0-.64.17.94.34,1.87.51,2.81.4,2.19.81,4.37,1.23,6.55.78,4.07,1.61,8.13,2.52,12.17.87,3.86,1.73,7.76,2.92,11.53.12.39,1.19,2.99,1.35,3.5.47.97,1,2.08,1.1,2.29,4.2,8.46,9.63,16.9,13.47,25.79,9.14,7.1,14.12,18.95,12.99,30.58-.91,9.41-6.28,16.7-15.05,18.86,1.88,7.87,3.8,15.73,5.12,23.72,3.17.87,6.08,2.5,8.3,4.91,7.54,8.19,9.96,17.51,12.65,27.91.25.95.55,1.89.8,2.84.11.44.18.73.2.93.34.54.71,1.06.85,1.31.04.07.06.12.09.18.06.05.12.1.19.16.06.04.1.06.16.1,2.44,1.57,4.75,3.4,7,5.21,1.22.98,2.34,2.03,3.37,3.13,1.81-9.03,9.63-15.4,19.1-15.82.79-.04,1.56,0,2.33.07.92-.9,1.86-1.78,2.82-2.6,9.42-8.06,20.35-13.83,32.04-17.6,1.37-6.2,4.28-12.32,8.79-16.79.52-.52,1.06-1,1.61-1.47-1.62-2.91-2.59-6.2-2.74-9.51-.34-7.6,4.33-13.83,10.64-17.08-.22-1.09-.38-2.21-.43-3.35-.47-10.55,9.3-19.47,19.5-19.5,4.33-.01,8.66-.1,12.98-.25-.88-1.44-1.62-2.99-2.17-4.68-3.18-9.82,3.71-21.56,13.62-23.99,9.24-2.26,18.38-2.18,27.52-1.42.67-.24,1.36-.45,2.09-.63,15.34-3.62,31.16-2.65,46.7-1.24,15.29,1.38,30.3,2.66,45.67,2.54,17.92-.14,35.87-.49,53.78.28,3.61-3.28,8.38-5.32,13.25-5.34,12.6-.04,25.18-.89,37.79-.18,9.79.55,21.14,1.55,30.8,5.53.96-.16,1.93-.24,2.9-.24,10.93,0,19.03,8.93,19.5,19.5.07,1.52-.09,3.01-.42,4.45.82,2.13,1.33,4.41,1.44,6.79.03.67.02,1.33-.03,1.98,1.01,5.9,1.39,11.92,1.59,17.54.41,11.55-.49,23.07-.53,34.61-.02,5.24-2.08,9.82-5.37,13.23,1.03,1.05,1.95,2.22,2.71,3.49,10.61,17.68,16.05,38,27.57,55.15.94,1.4,1.62,2.87,2.08,4.39,3.21,2.45,6,5.43,8.14,8.89,5.98,9.67,1.38,20.64-7,26.68-8.54,6.16-19.25,5.8-29.25,5.73-.54,0-1.07-.05-1.59-.09,2.12,5.17.83,10.57-2.15,15,.16,2.54.39,5.07.65,7.59.79,7.61,1.9,15.2,2.13,22.85.46,16-1.67,31.97-1.97,47.96,5.67-8.27,11.9-12.78,22.34-13.85,1.07-.11,2.18-.05,3.3.12,1.79-8.68,10.31-15.44,19.17-15.44,9.3,0,16.52,6.47,18.77,14.9.24.03.47.06.71.09,8.07,1.09,16.24,2.55,23.29,6.95,8.52,5.32,14.57,14.09,16.42,23.98,1.15,6.16,1.17,11.93.52,17.82,5.88,3.58,10.12,10.44,9.83,17.04-.07.97-.09,1.93-.04,2.9.04.51.07.87.09,1.11.38,1.31.95,2.82,1.07,3.25.28.98.56,1.95.83,2.93V196.96c0-33.28-27.23-60.51-60.51-60.51Zm-374.23,114.01c-.12.55-.24,1.1-.34,1.65-.06.33-.11.6-.16.82-.16,1.43-.32,2.85-.49,4.28-.5,4.21-.94,8.48-1.98,12.6-2.69,10.58-13.85,15.93-23.99,13.62-1.65-.38-3.15-1-4.53-1.77-4.23,4.88-9.19,9.06-15.17,12.06-9.77,4.91-20.66,2.34-26.68-7-.36-.56-.67-1.15-.96-1.75-19.18-1.74-33.93-12.95-40.64-31.33-4.8-13.17-4.12-28.61-.95-42.28-.57-6.61,0-13.4.94-19.66,1.79-12.07,8.39-24.04,19.11-30.42,10.42-6.19,24.06-7.04,35.89-5.77,11.09,1.18,21.72,4.67,31.44,10.18,9.23,5.23,18.08,12.81,22.74,22.51.55,1.15,1.02,2.32,1.46,3.5,4.05,1.34,7.76,3.97,10.1,6.99,4.82,6.24,4.95,13.42,2.12,20.3,1.9,2.08,3.42,4.66,4.43,7.78,2.88,8.91-2.99,21.18-12.35,23.7Z"/>
    <path class="cls-3" d="m776.67,686.67c.06.91.07,1.84-.04,2.81-1.12,10.59-2.25,21.2-2.41,31.86-.05,3-.02,6,.11,9,.08,1.92-.18,4.79.28,6.9-.13-.75,0-1.04.32.65.29,1.53.56,3.04.91,4.56.31,1.34.68,2.67,1.08,3.98,8.06-10.28,12.9-23.2,12.9-37.2v-39.53c-3.07,6.59-7.38,12.42-13.14,16.98Z"/>
    <path class="cls-3" d="m82.26,692.49c-.72-.67-1.4-1.41-2.05-2.23v3.92c.64-.61,1.33-1.18,2.05-1.69Z"/>
    <g>
      <path class="cls-2" d="m397.24,264.59c3.26,0,5.75,0,8.24,0,80.99,0,161.98,0,242.96-.02,19.18,0,32.23,12.38,32.35,31.48.16,24.48-.23,48.97-.17,73.45,0,2.98.72,6.26,2.09,8.89,10.42,20.03,20.51,40.27,31.84,59.79,12.03,20.73-2.46,40.38-23.42,40.42-.31,0-.63.02-.94.03-9.5.26-9.47.26-9.48,9.65,0,19.78-.05,39.55-.05,59.33,0,1.21.17,2.43.28,3.89,4.85-1.55,9.41-2.93,13.91-4.5.74-.26,1.29-1.26,1.78-2.02,12.02-18.66,37.38-19.22,50.28-1.15.92,1.29,2.37,2.61,3.83,3.05,19,5.67,31.05,22.74,29.59,42.81-.34,4.63.44,6.77,5.26,8.83,25.74,11.02,33.96,44.81,16.76,69.09-3.97,5.6-9.66,10.26-15.32,14.27-3.81,2.7-5.21,5.08-5.1,9.74.39,17.1.04,34.22.38,51.32.11,5.17-1.82,8.41-5.74,11.42-13.88,10.67-29.57,17.62-45.97,23.27-31.51,10.85-64.13,14.93-97.21,14.98-140.94.22-281.89.21-422.83.02-32.8-.05-65.09-4.23-96.02-16.02-14.44-5.51-28.06-12.47-39.94-22.58-3.48-2.96-5.3-6.01-5.25-10.79.24-20.56,0-41.12.18-61.68.14-16.24,10.29-28.09,26-32.01,2.6-.65,4.42-4.46,6.25-6.44-7.77-4.71-15.45-8.38-21.96-13.53-12.8-10.12-19.21-23.57-16.49-40.14,2.37-14.45,11.48-23.45,25.33-27.28,4.44-1.23,5.55-2.9,5.18-7.29-1.79-21.21,5.44-38.43,24.2-49.38,23.95-13.98,54.2-5.87,68.59,17.82.96,1.58,1.86,3.2,3.5,6.05v-50.52c-1.14-.12-2.63-.34-4.14-.45-19.35-1.4-32.9-19.84-23.31-39.29,9.36-18.99,18.35-38.16,27.67-57.17,2.11-4.31,3.14-8.29,1.2-13-.97-2.36-.96-5.23-.96-7.86.04-25.27.22-50.53.21-75.8,0-2.42-.73-4.95-1.63-7.23-6.38-16.25-11.61-32.73-13.95-50.17-7.76-57.8,31.77-114.31,88.75-127.28,70.8-16.12,130.59,33.41,140.61,95.17,3.42,21.09.87,41.55-5.13,61.8-.62,2.08-1.29,4.15-2.19,7.02ZM75.82,689.1c0,4.68.18,8.89-.05,13.07-.19,3.53,1.05,6.06,3.31,8.81,8.4,10.21,19.26,17.09,30.83,22.71,28.17,13.66,58.27,19.3,89.38,19.33,148.14.19,296.28.19,444.42.29,25.95.02,51.23-4.19,75.84-12.2,16.97-5.53,32.86-13.25,46.17-25.53,7.78-7.18,12.68-15.38,9.45-26.49H75.82Zm370.6-226.97c-7.79,15.08-21,16.83-35.24,16.49-8.94-.22-17.89.13-26.82-.15-3.94-.12-4.97,1.12-4.97,5.02.06,60.55-.04,121.1-.09,181.65,0,1.66.17,3.31.26,4.91h107.66v-191.43c-15.89.63-31.51.69-40.79-16.48Zm329.76,251.87c-5.01,4.47-9.17,8.71-13.85,12.26-21.69,16.47-47,23.88-73.26,28.89-23.6,4.5-47.45,4.12-71.3,4.1-139.67-.07-279.34-.1-419.01-.17-21.93-.01-43.49-2.84-64.51-9.24-20.75-6.33-40.32-14.87-56.04-30.47-.56-.56-1.39-.85-2.5-1.5,0,8.1.21,15.63-.09,23.14-.15,3.87,1.26,6.47,4.08,8.88,10.02,8.59,21.51,14.64,33.62,19.54,29.05,11.75,59.55,16.33,90.64,16.86,34.36.58,68.73.38,103.1.39,107.34.04,214.68.08,322.02-.03,32.3-.03,64.19-3.32,95.09-13.48,16.76-5.51,32.93-12.17,47.37-22.57,3.2-2.3,4.84-4.85,4.72-8.97-.27-8.92-.08-17.85-.08-27.63Zm-548.5-90.04h23.69c.88-11.53,2.01-22.6,2.48-33.71.44-10.34.08-20.71.23-31.06.08-5.64,2.26-7.69,7.76-7.69,20.08.01,40.16.05,60.25.11,5.87.02,7.85,2.05,7.87,7.95.02,12.55-.02,25.1.08,37.65.01,1.8.55,3.62.98,5.4.61,2.51,1.76,4.95,1.93,7.47.32,4.62.09,9.28.09,13.79h26.35c0-2.47,0-4.49,0-6.52-.05-44.4-.33-88.8.04-133.2.07-8.41-1.69-15.14-8.43-20.84-7.2,13.51-19.81,15.65-33.62,15.34-8.94-.2-17.89-.2-26.83.06-13.24.39-24.62-2.79-31.72-16.05-6.97,12.6-18.12,16.34-31.15,16.12v145.17Zm313.74-160.87c-3.92,6.45-8.64,11.56-15.64,13.43-4.64,1.24-9.52,1.78-14.33,2.13-2.83.21-4.01,1.1-3.8,3.91.09,1.25-.06,2.51-.06,3.76-.11,44.41-.21,88.82-.3,133.24,0,1.5.16,3.01.25,4.52h34.69c1.93-19.16,8.43-34.27,30.14-36.94-.19-1.94-.28-3.5-.51-5.03-1.26-8.28.46-15.89,5.01-22.89,6.65-10.24,16.56-14.83,28.23-16.71,2.55-.41,5.33-1.64,7.23-3.35,9.14-8.2,19.32-9.66,30.6-5.55,1.36.5,2.7,1.04,4.42,1.7,0-19.28.02-37.78-.05-56.29,0-.96-.45-2.25-1.15-2.83-4.84-3.99-9.81-7.83-14.93-11.88-6.74,11.85-18.39,14.59-31.47,14.38-9.26-.15-18.52-.35-27.77-.08-12.87.37-23.4-3.61-30.53-15.52Zm-194.78-95.89c2.98,0,4.83,0,6.68,0,102.81.01,205.62.04,308.43.01,4.17,0,9.93,1.11,12.08-1.1,2.19-2.24.97-7.95.98-12.14.04-19.46.12-38.93-.07-58.39-.14-14.03-9.63-23.92-23.58-24.97-3.28-.25-6.59-.17-9.88-.17-61.37,0-122.74-.01-184.12.01-19.46,0-38.92.07-58.39.23-1.51.01-3.88.6-4.37,1.62-1.98,4.16-3.38,8.6-5.12,13.27,4.67,0,8.72,0,12.76,0,58.08-.02,116.15-.04,174.23-.06,19.15,0,38.3-.1,57.45,0,8.95.05,16.11,6.13,16.35,14.29.35,11.76.35,23.55,0,35.31-.24,8-6.07,13.27-14.08,13.51-4.86.15-9.73-.03-14.6-.03-86.95-.11-173.91-.23-260.86-.28-1.23,0-3.04.46-3.58,1.32-3.4,5.42-6.51,11.01-10.31,17.57Zm-202.09,221.07c4.48-5.34,8.54-10.09,12.49-14.93,1.83-2.25,3.79-4.19,6.66-2,3.05,2.33.76,4.38-.81,6.31-3.36,4.13-6.29,8.74-10.2,12.26-7.14,6.43-9.37,14.03-8.35,23.34.65,5.93.12,11.99.12,17.98.38.16.76.31,1.14.47,6.14-7.27,12.29-14.52,18.4-21.81,8.06-9.59,16.12-19.19,24.1-28.85.83-1.01,1.63-2.51,1.57-3.73-.62-11.86-.03-24.01-2.47-35.5-5.15-24.16-26.02-40.92-54.41-35.7-17.74,3.26-29.99,16.49-31.94,35.59-.63,6.12.2,12.48,1.07,18.63.87,6.09-.98,8.15-6.97,6.62-1.01-.26-2.24-.31-3.21.01-9.46,3.15-17.02,8.37-20.8,18.19-5.6,14.54,2.79,32.7,15.29,41.03,1.95,1.3,4.74,1.77,7.17,1.84,8.15.23,16.31.13,24.47.08,1.16,0,2.32-.4,4.29-.76-1.48-1.89-2.41-3.27-3.52-4.48-8.06-8.78-16.14-17.54-24.26-26.26-1.98-2.13-3.64-4.43-1.07-6.88,2.58-2.45,4.7-.15,6.35,1.67,10.01,11.03,19.91,22.16,29.87,33.24,2.13,2.37,4.31,4.69,7.4,8.04,0-24.56,0-47.6,0-70.64,0-1.57-.3-3.28.24-4.66.47-1.22,1.95-2.92,2.92-2.88,1.37.05,3.13,1.24,3.89,2.46.74,1.19.56,3.03.57,4.59.04,8.6.02,17.2.02,26.7Zm304.83-214.66c0,11.42-.03,22.37,0,33.31.05,14.27-.13,28.54.35,42.8.4,11.76,8.84,21.52,19.37,21.92,15.96.61,31.98.87,47.93.21,14.28-.59,22.44-11.54,20.6-25.74-2.85-21.91-5.7-43.83-8.53-65.74-.91-7.02-.87-7.02-8.05-7.03-22.42,0-44.84-.02-67.26,0-1.23,0-2.46.15-4.42.27Zm-7.09,38.63h.91c0-11.46-.08-22.91.05-34.36.04-3.17-.81-4.41-4.22-4.4-21.96.1-43.93.06-65.9-.11-3.3-.02-4.67,1-5.24,4.3-2.75,16.08-5.92,32.09-8.56,48.18-1.42,8.64-2.73,17.39-2.9,26.11-.2,10.06,8.26,18.94,18.26,19.29,15.83.56,31.69.74,47.52.29,11.09-.32,19.27-7.97,19.9-18.89.77-13.43.18-26.94.18-40.42Zm92.19-38.78c2.05,15.8,3.9,30.87,5.99,45.92,1.66,11.95,3.19,23.94,5.57,35.75,2.06,10.25,10.13,16.41,20.61,16.59,12.86.22,25.73.37,38.58.07,17.2-.4,26.05-12.14,21.92-28.69-5.51-22.05-11.18-44.06-16.59-66.14-.82-3.33-2.63-3.57-5.38-3.56-20.08.08-40.15.05-60.23.05-3.26,0-6.52,0-10.47,0Zm-324.45,98.15v.22c7.06,0,14.11.09,21.17-.02,13.52-.21,21.16-6.66,24.3-19.76,2.55-10.66,5.31-21.28,8.43-31.78,1.14-3.84.87-6.91-1.24-10.17-7.39-11.45-14.62-23.01-22.1-34.4-.84-1.28-2.93-2.45-4.44-2.46-10.97-.11-21.95,0-32.91.3-1.3.04-3.18,1.29-3.75,2.48-9.64,20.05-19.15,40.16-28.57,60.32-1.78,3.81-3.62,7.76-4.42,11.84-2.43,12.34,6.21,22.66,19.57,23.35,7.98.41,15.99.08,23.99.08Zm149.02,159.21h-162.29c-1.72,14.1-.73,24.25,2.48,27.06,8.83-7.54,21.28-8.89,31.5-3.26,10.94,6.02,16.05,15.82,17.13,27.77h111.17v-51.57Zm257.41-257.2c0,.69-.09,1.17.01,1.6,6.63,26.91,13.19,53.83,19.98,80.7,2.11,8.37,10.21,15.43,18.55,15.77,12.51.51,25.1,1,37.58.27,17.39-1.02,24.59-14.99,16.45-30.34-11.38-21.45-22.78-42.89-33.93-64.46-1.46-2.83-2.93-3.82-6-3.8-16.46.11-32.92.02-49.37.01-1.06,0-2.12.15-3.27.24Zm-253.82-.17c-5.71,0-10.85.14-15.98-.06-2.74-.1-4.01,1.04-5.46,3.31-10.55,16.5-20.97,33.1-32.13,49.18-10.23,14.74-23.67,14.6-34.61.41-1.18-1.54-2.41-3.04-4.37-5.51-2.55,9.21-5.19,17.23-6.95,25.44-2.82,13.13,5.91,24.91,19.4,25.57,13.92.68,27.92.69,41.85.22,14.61-.5,22.11-7.95,24.48-22.33,2.53-15.3,5.32-30.56,8.07-45.83,1.8-9.97,3.72-19.91,5.69-30.41Zm-71.79-108.6c31.31.02,54.29-22.69,54.39-53.75.1-29.65-23.26-53.35-52.28-53.58-35.52-.28-55.92,29.11-55.65,55.76.29,28.62,23.79,51.56,53.55,51.58Zm-94.34,359.54c6.99,0,13.56-.26,20.1.09,4.29.24,5.17-1.28,5.15-5.34-.2-36.4-.17-72.8-.2-109.2,0-10.31,0-20.62,0-31.04h-25.04v145.49Zm537.8,58.19c2.24-1.63,3.35-2.22,4.19-3.07,10.69-10.87,20.67-22.22,26.84-36.48,1.46-3.37.97-4.77-1.97-6.69-5.71-3.74-9.61-9.01-10.41-16.01-1.25-10.87,4.82-19.84,15.32-23.55,1.91-.67,4.49-2.38,4.85-4.02,3.1-14.11-5.09-30.64-18.05-37.18-.61-.31-1.4-.25-2.31-.39-.16,1.24-.4,2.16-.38,3.06.4,15.71-5.18,27.12-21.71,31.15-1.32.32-2.84,3.13-2.89,4.82-.28,9.71-.1,19.44-.16,29.15-.02,2.6.39,4.37,3.48,5.11,1.16.28,2.2,2.69,2.56,4.3.62,2.8.66,5.72,1.02,9.39,1.43-1.28,2.13-1.84,2.75-2.48,3.18-3.25,6.16-6.72,9.6-9.67,1.4-1.2,3.76-1.29,5.68-1.89-.23,2.11.12,4.53-.82,6.24-1.33,2.4-3.56,4.33-5.51,6.36q-13.62,14.22-13.17,34.02c.05,2.22.59,4.42,1.08,7.83Zm-74.88-132.37c.61,10.06,1.59,19.48-5.98,27.37-7.43,7.74-16.1,10.98-26.31,9-14.57-2.82-26.67-15.36-22.62-37-18.83.95-30.46,17.81-24.22,37.26,1.66,5.17,5.8,6.27,11.09,4.46,6.99-2.39,13.62-1.61,19.33,3.46,4.89,4.35,7.62,9.68,8.18,16.38.16,1.86,2.74,3.52,4.22,5.27,1.14-1.4,2.71-2.64,3.35-4.24,3.41-8.56,8.88-15.56,16.31-20.81,8.22-5.81,16.97-6.93,25.9-1.1,3.33,2.17,8.82-.29,9.9-4.25,3.28-12.09-6.32-30.83-19.12-35.81Zm-103.97,132.51c-2.93-9.11-5.43-17.49-8.34-25.72-1.76-4.99-1.46-8.89,3.49-11.06-2.02-4.12-4.2-7.9-5.72-11.93-1.1-2.91-2.79-3.65-5.63-3.6-8.93.15-17.86.09-26.79.15-1.64.01-3.28.22-5.17.35,0,16.51.03,32.47-.03,48.43,0,2.34.72,3.42,3.21,3.41,14.71-.06,29.43-.03,44.98-.03ZM346.85,121.35c.14-.26.29-.52.43-.77-1.73-1.16-3.4-2.45-5.21-3.46-25.89-14.45-53.34-16.94-81.52-9.06-55.19,15.44-88.67,70.78-77.97,127.6,4.82,25.6,15.72,48.85,27.15,71.92,3.02,6.1,6.34,12.04,9.57,18.15,4.97-2.5,3.7-5.49,2.3-8.68-8.48-19.38-17.6-38.52-25.15-58.26-9.83-25.71-12.44-52.09-2.68-78.66,12.17-33.14,34.58-55.78,68.49-66.56,23.87-7.59,47.38-5.25,70.65,2.71,4.68,1.6,9.29,3.38,13.93,5.08Zm22.94,561.14c1.31-6,3.51-11.4,3.53-16.8.22-61.05.11-122.1.08-183.14,0-1.35-.2-2.7-.32-4.1-2.51-.46-4.64-.85-7.25-1.33-.11,1.97-.24,3.49-.26,5.02-.13,10.67-.31,21.34-.32,32.01-.09,54.61-.1,109.23-.26,163.84-.01,4.05,1.17,5.58,4.8,4.51Zm131.69-204.31c-3.44,1.24-7.79-2.07-7.79,4.47,0,61-.11,122-.15,183,0,1.37.34,2.77.71,4.1.67,2.42,1.69,4.77,2.17,7.22.35,1.75.07,3.62.07,5.22,5.33,1.67,5.01-1.41,5.01-4.38-.02-49.87-.02-99.73-.02-149.6,0-16.29,0-32.58,0-50.03Zm151.73.65c0,19.74-.06,39.02.13,58.3.01,1.32,1.69,2.99,3.01,3.85,4.06,2.62,8.39,4.81,12.48,7.38,1.99,1.25,3.66,3,5.83,4.81v-74.33h-21.45Zm-417.97-111.65c-12.95-23.55-25.61-46.58-38.86-70.68,0,8.82-.01,16.46,0,24.1.03,13.96,0,27.92.22,41.87.03,1.58,1.52,4.48,2.38,4.51,12,.3,24,.2,36.25.2Zm23.32,241.84v14.98h67.92v-14.98h-67.92Zm538.49,53.08c8.38-14.59,9.1-35.16,1.6-42.28-.23.42-.58.8-.66,1.23-2.28,12.08-9.5,18.58-21.78,19.64-1.03.09-2.4,1.44-2.82,2.52-4.89,12.59-12.51,23.34-21.82,32.99-1.31,1.35-2.27,3.03-3.64,4.89,5.83,1.41,10.04.97,13.98-3.22,9.54-10.15,19.53-19.87,29.29-29.81,1.83-1.86,4.11-3.43,5.91-1.09,1,1.3.62,4.36-.18,6.17-.95,2.14-3.02,3.78-4.52,5.54,1.74,1.29,3.05,2.26,4.63,3.43ZM352.03,211.3c-.35,2.59-.6,4.55-.87,6.5-3.49,24.92-16.8,42.17-40.66,50.41-6.68,2.31-14.09,2.72-21.22,3.47-3.25.34-5.42,1.64-5.14,4.55.11,1.2,3.23,2.87,5.09,3.04,33.05,2.91,62.52-19.81,67.99-52.32.95-5.64,1.25-11.33-5.2-15.64Zm25.28,471.07c1.15.16,1.75.32,2.36.32,35.9,0,71.79-.04,107.69,0,2.56,0,3.7-.75,3.64-3.47-.08-3.58-2.56-2.9-4.66-2.9-34.95-.05-69.91-.08-104.86-.09-1.34,0-2.68.17-4.17.27v5.89Zm267.76-39.01c.2.49.41.98.61,1.47,4.62,0,9.24.09,13.84-.08.92-.03,1.99-.89,2.69-1.65,3.17-3.46,6.15-7.1,9.37-10.52,1.86-1.98,2.14-3.84.11-5.64-5.17-4.59-4.88-10.16-2.95-15.96,1.37-4.12.32-7.59-1.9-11.1-1.76-2.79-3.34-2.48-4.99-.21-5.51,7.58-10.95,15.2-16.39,22.82-2.3,3.23-1.03,6.03,1.03,9.02,4.13-4.09,7.85-8.09,11.95-11.65,1.3-1.13,4.36-2.1,5.3-1.4,2.42,1.82,1.59,4.42-.43,6.47-2.42,2.45-4.88,4.86-7.3,7.31-3.66,3.7-7.3,7.41-10.94,11.11Zm-417.24,38.9c0-.1,0-.21,0-.31,2.81.13,5.63.23,8.44.4,3.52.21,4.85-1.69,3.54-4.63-2.01-4.52-3.98-9.3-7.09-13.03-6.68-8.01-17.87-9.58-26.41-4.63-2.67,1.55-3.25,2.96-1.55,5.96,2.11,3.72,3.72,7.86,4.71,12.03.71,2.99,1.62,4.38,4.79,4.26,4.52-.18,9.06-.04,13.59-.04Zm383.66-30.66v-.06c-17.26,0-34.52-.08-51.78.1-2.17.02-4.32,1.42-6.47,2.19,2.07.81,4.14,2.31,6.21,2.32,34.05.13,68.1.08,102.16.04,1.87,0,3.79-.15,5.6-.58.82-.2,1.42-1.27,2.13-1.94-.76-.65-1.44-1.67-2.3-1.86-1.5-.34-3.12-.19-4.69-.2-16.95,0-33.9,0-50.84,0Zm-98.43-339.53c-.48-.01-.96-.03-1.45-.04-1.59-3.15-2.92-6.48-4.89-9.38-.85-1.25-3.01-2.1-4.61-2.14-.78-.02-2.28,2.15-2.35,3.4-.39,6.72-.58,13.47-.47,20.2.02,1.2,1.72,2.38,2.64,3.56,1.12-1.04,2.88-1.91,3.21-3.16.64-2.46.47-5.13.74-9.22,1.91,2.97,3.06,4.73,4.19,6.5,1.87,2.9,3.66,2.54,5.27-.19,1.19-2.02,2.26-4.12,3.38-6.18,1.08,2.95.93,5.68,1.62,8.19.44,1.58,2.13,2.82,3.26,4.21.86-1.45,2.46-2.9,2.47-4.35.03-6.1-.22-12.23-.8-18.31-.16-1.72-1.75-3.31-2.69-4.96-1.72,1.08-3.94,1.79-5.04,3.32-1.87,2.57-3.03,5.66-4.48,8.53ZM110.85,682.61c0-8.7,0-16.84,0-24.98,0-7.34,1.17-8.57,8.38-8.59,14.75-.05,29.49.01,44.24-.17,1.42-.02,3.89-1.28,4.03-2.24.46-3.16-2.27-2.58-4.21-2.58-16.63-.03-33.26-.05-49.89-.03-5.79,0-8.64,2.23-8.82,7.97-.32,10.15-.09,20.32-.09,30.63h6.35Zm-12.61-27.16c-13.34,2.21-21.17,11.34-21.21,23.22,0,3.14,1.14,3.78,3.79,3.72,4.22-.08,8.46-.2,12.67.04,3.81.21,4.88-1.49,4.8-5.01-.17-7.17-.05-14.35-.05-21.97Zm60.48-27.76c10.33.67,19.59,1.08,28.72-1.37.95-.25,2.04-1.94,2.13-3.03.25-3.1.21-6.26-.15-9.34-.12-1.02-1.4-2.45-2.41-2.72-3.76-.99-7.61-1.65-11.46-2.25-.73-.11-1.87.39-2.36.99-4.57,5.48-9.04,11.05-14.47,17.72Zm328.61-309.04c.41-.77.55-1.23.84-1.56,3.68-4.16,4.44-9.18,1.9-12.7-2.71-3.76-10.47-5.93-14.53-3.82-1.08.56-2.34,2.04-2.38,3.14-.25,7.17-.29,14.35-.11,21.52.02.86,1.78,2.35,2.73,2.34.97-.01,2.29-1.32,2.8-2.38.62-1.29.54-2.91.9-5.27,2.44,2.69,4.17,5.12,6.42,6.86,1.15.88,3.26.5,4.93.69-.03-1.74.37-3.66-.22-5.18-.56-1.44-2.17-2.47-3.28-3.64Zm45.16,5.56c.98,1.58,1.55,3.45,2.37,3.58,1.21.18,2.74-.7,3.88-1.48,1.21-.83,2.14-3.02,3.16-2.99,4.42.09,9.56-1.95,12.68,3.47.47.81,2.65,1.45,3.47,1.04.91-.46,1.91-2.53,1.57-3.37-3.07-7.51-6.23-14.99-9.8-22.27-1.23-2.51-4.47-3.55-6.08-.66-4.08,7.33-7.51,15.01-11.26,22.68Zm-64.06.3c-3.63-7.67-7.01-15.37-10.94-22.78-1.37-2.57-4.33-2.35-5.58.43-3.21,7.1-6.15,14.33-8.85,21.63-.38,1.04.91,3.17,2.02,4.06.49.39,2.9-.72,3.68-1.73,3.37-4.36,9.36-4.35,12.93-.04.88,1.06,2.83,1.55,4.32,1.65.59.04,1.31-1.69,2.42-3.24Zm158.14,320.94c2.85-.57,6.11-.44,8.45-1.86,4-2.42,4.43-9.05,1.62-14.03-2.66-4.72-7.19-6.67-11.77-5.06-5.64,1.98-8.66,8.04-7.42,14.88,1.01,5.62,1.08,5.66,9.12,6.07Zm-202.95-327.54q7.54-.62,8.51,5.99c.05.31-.03.74.14.91.97.98,2.01,2.63,3.02,2.63,1.05,0,2.97-1.59,3.01-2.54.25-7.04.24-14.09-.02-21.13-.04-.95-1.91-2.49-3-2.55-.91-.05-2.27,1.51-2.78,2.65-.55,1.21-.41,2.76-.45,4.17-.07,2.68-1.5,3.29-3.99,3.29-4.88-.02-4.19-3.33-4.48-6.47-.12-1.31-1.53-2.5-2.36-3.75-1.09.88-3.09,1.72-3.13,2.65-.31,7.03-.39,14.09-.13,21.12.04.98,2.3,1.89,3.53,2.83.71-1.01,1.86-1.96,2.03-3.06.33-2.11.1-4.3.1-6.74Zm156.22-18.29c-9.21.34-15.57,7.79-14.2,16.92,1.63,10.91,13.42,14.63,22.11,9.73,1.07-.61,1.26-2.79,1.86-4.24-1.54-.62-3.06-1.66-4.62-1.73-1.45-.07-2.92.98-4.43,1.39-3.39.91-6.3-.58-7.43-3.41-.97-2.43-1.31-6.07-.11-8.1,1.05-1.78,4.58-2.34,7.13-2.87,1.38-.29,3.03.92,4.53.87,1.5-.05,2.98-.82,4.47-1.27-.75-1.71-1.04-4.09-2.34-4.97-1.95-1.32-4.61-1.59-6.97-2.31Zm-182.06,19.6c1.22,0,2.29.06,3.36-.01,4.69-.3,7.95-2.63,9.35-7.14,1.27-4.09-.09-7.4-3.64-9.72-3.91-2.56-10.81-3.01-13.37-.86-.78.66-1.66,1.74-1.69,2.66-.19,7-.31,14.01-.1,21,.03.91,1.99,2.12,3.26,2.45.51.14,1.92-1.58,2.25-2.66.49-1.6.38-3.37.58-5.71Zm159.28,323.05c.39-2,.34-3.66,1.07-4.85.71-1.16,2.9-2.81,3.27-2.56,3.34,2.3,6.45,4.93,9.55,7.56,1.18,1,2.13,2.25,3.19,3.39.72-.41,1.43-.83,2.15-1.24-.98-3.96-2.01-7.9-2.91-11.87-.58-2.58-2.06-3.31-4.66-3.48-5.62-.37-10.66-2.46-14.57-6.68-1.4-1.51-2.55-3.26-4.26-5.49-1.53,10.05,1.53,17.74,7.17,25.24Zm144.46-59.31c-.48.16-.96.32-1.44.49,6.33,10.96,12.66,21.91,18.99,32.87.85-8.16.91-16.12.76-24.07-.02-.91-1.08-2.24-1.98-2.63-5.39-2.34-10.88-4.45-16.33-6.65Zm-92.26-273.83c-1.39-1.86-2.06-2.92-2.89-3.83-2.04-2.27-3.72-7.05-7.41-4.05-3.36,2.73.85,5.58,2.47,7.82,3.08,4.25,5.95,8.27,5.57,13.98-.1,1.5,1.99,3.15,3.07,4.72,1-1.68,2.28-3.26,2.94-5.07,1.18-3.25,1.77-6.71,3.03-9.92.78-1.99,2.72-3.53,3.45-5.53.69-1.9,1.44-5.01.5-6.02-2.23-2.38-4.06,0-5.59,1.87-1.54,1.88-3.15,3.7-5.15,6.02Zm49.8,283.65c-3.06.61-5.06.79-6.9,1.42-8.31,2.83-13.98,8.52-17.61,16.45-2.87,6.28-2.98,6.23,3.1,9.22,6.82-8.63,13.65-17.27,21.4-27.09Zm41.55-26.29c.43-1.32.65-1.88.79-2.46,2.38-10.12,7.73-17.69,17.97-21.15.85-.29,1.89-.8,2.26-1.51.45-.86.67-2.22.28-3.03-.34-.7-1.71-1.4-2.54-1.3-16.59,1.98-23.8,17.11-18.77,29.46Zm-88.22-1.77c.23-.2.61-.36.66-.59,2.14-10.25,7.46-17.72,17.77-21.22,1.16-.39,1.71-2.56,2.54-3.91-1.35-.45-2.94-1.58-4.02-1.22-3.96,1.32-8.03,2.69-11.55,4.88-6.21,3.87-9.67,16.79-5.41,22.06Zm148.28,56.49c1.48-2.59,2.44-4.28,3.41-5.96,2.9-5,7.59-7.2,12.94-8.52,1-.25,1.77-1.41,2.65-2.15-.6-.63-1.13-1.7-1.82-1.82-5.07-.9-9.75.17-13.46,3.84-3.74,3.7-5.52,8.12-3.73,14.61Zm-581.73,20.42c4.64,3.12,2.32,12.27,11.37,10.26v-15.18c-3.79,1.64-7.16,3.1-11.37,4.92Zm401.57-12.79c.12.76.02,2.22.59,3.35,1.68,3.33,3.6,6.55,5.48,9.78,2.5,4.31,4.14,4.69,10.87,1.22-5.9-5-11.32-9.6-16.93-14.35Zm20.74-31.57c-4.28-1.88-8.12-.73-10.98,2.51-2.99,3.38-4.54,7.44-2.39,11.11,4.32-4.4,8.67-8.83,13.37-13.62Zm-412.04-3.92c-.39-.13-.78-.26-1.16-.39-2.22,2.63-4.44,5.26-7.37,8.73,3.52.82,5.81,1.35,8.53,1.99v-10.33Zm485.18,25.6c.54.54,1.08,1.08,1.63,1.61,2.02-1.7,4.79-3.03,5.87-5.2,1.25-2.5-.2-5.06-3.79-6.45-1.29,3.48-2.5,6.76-3.71,10.03Zm7.75-53.73c2.66-5.01,9.48-3.84,9.42-11.35-4.14,2.15-7.66,3.82-10.92,5.89-.36.23.73,2.76,1.5,5.46Zm-421.6,26.2c0,2.6,0,4.75,0,6.89,0,.62-.14,1.3.07,1.84.3.78.71,1.83,1.34,2.1.7.29,2.45-.08,2.48-.34.48-3.4.73-6.83,1.06-10.49h-4.96Zm4.57-27.85s.03,0,.04,0c0-1.25.36-2.66-.11-3.69-.38-.83-1.78-1.19-2.72-1.76-.62,1.99-1.66,3.96-1.73,5.97-.06,1.49,1.13,3.02,1.76,4.54.92-.59,2.2-.98,2.66-1.83.46-.84.1-2.13.1-3.22Zm.24,9.79c-2.32,1.36-4.54,2.01-4.59,2.81-.18,2.81-.13,5.87.89,8.41.42,1.04,3.63,1.09,3.69-1.93.05-2.6.01-5.2.01-9.29Zm289.99,37.21c2.31-4.28,4.74-8.79,7.17-13.31-7.07,2.82-10,8.69-7.17,13.31Zm130.86-12.56c-.1-.49-.2-.98-.3-1.46-3.7-.6-7.31-.64-10.51,1.64.07.45.14.89.21,1.34,3.53-.51,7.06-1.01,10.6-1.52Z"/>
      <path class="cls-1" d="m227.83,682.25c-4.53,0-9.07-.13-13.59.04-3.18.12-4.09-1.26-4.79-4.26-.98-4.16-2.6-8.31-4.71-12.03-1.7-3-1.11-4.42,1.55-5.96,8.54-4.95,19.73-3.38,26.41,4.63,3.11,3.73,5.08,8.51,7.09,13.03,1.31,2.94-.02,4.84-3.54,4.63-2.81-.17-5.62-.27-8.44-.4,0,.1,0,.21,0,.31Z"/>
      <path class="cls-1" d="m674.39,618.92c1.21-3.27,2.42-6.55,3.71-10.03,3.59,1.38,5.04,3.94,3.79,6.45-1.08,2.17-3.85,3.5-5.87,5.2-.54-.54-1.08-1.08-1.63-1.61Z"/>
      <path class="cls-1" d="m686.21,597.99c-3.53.51-7.06,1.01-10.6,1.52-.07-.45-.14-.89-.21-1.34,3.2-2.28,6.81-2.24,10.51-1.64.1.49.2.98.3,1.46Z"/>
      <path class="cls-2" d="m395.22,583.46c0,11.13.02,22.27-.02,33.4,0,2.48.29,5.78-3.38,5.23-1.27-.19-2.97-3.36-2.99-5.18-.15-22.42-.02-44.85.05-67.28,0-.63-.19-1.44.13-1.84,1.02-1.3,2.23-2.44,3.36-3.65.96,1.34,2.71,2.67,2.74,4.03.22,11.76.13,23.52.13,35.28h-.02Z"/>
      <path class="cls-4" d="m333.71,212.51c0,3.13.11,6.27-.02,9.4-.3,6.79-4,10.32-10.74,10.36-3.29.02-6.63-.35-9.85.08-1.26.17-3.06,1.95-3.27,3.21-.5,3.06-.09,6.25-.25,9.38-.28,5.39-3.42,8.84-8.81,9.09-6.26.3-12.54.29-18.8.03-5.64-.23-8.51-3.26-8.89-8.95-.21-3.12-.14-6.27-.02-9.4.11-2.65-1.09-3.63-3.62-3.6-3.6.05-7.21,0-10.81-.14-5.67-.23-9.29-3.16-9.55-8.9-.36-8.12-.25-16.3.26-24.41.33-5.16,3.47-7.62,8.7-8.01,3.75-.28,7.56-.08,11.25-.65,1.26-.2,3.01-1.96,3.24-3.24.67-3.67.46-7.5.99-11.21.69-4.82,3.7-7.54,8.61-7.7,5.95-.2,11.92-.37,17.87-.19,5.47.16,9,3.79,9.37,9.23.19,2.81.34,5.67.03,8.46-.46,4.14,1.4,5.22,5.13,4.9,2.8-.25,5.64-.14,8.46-.16,6.04-.05,8.91,2.33,9.85,8.33.36,2.32.54,4.67.65,7.02.11,2.35.02,4.7.02,7.05.07,0,.14,0,.21,0Zm-6.76-1.05h.04c0-3.45-.09-6.9.02-10.35.11-3.45-1.49-4.8-4.84-4.66-3.6.15-7.21.17-10.81.12-6.4-.08-7.97-1.63-8.19-8.12-.11-3.13-.07-6.27.04-9.41.11-3.39-.95-5.29-4.82-5.09-4.85.25-9.72.21-14.58.1-3.48-.08-4.78,1.62-4.8,4.85-.03,3.92-.32,7.84-.2,11.75.12,4.04-1.84,5.65-5.64,5.71-4.07.06-8.16.44-12.22.29-3.97-.15-5.72,1.18-5.54,5.38.25,5.95.22,11.92-.04,17.87-.19,4.39,1.9,5.89,5.88,5.86,2.98-.03,5.96.04,8.94.1,7.56.15,8.93,1.57,8.96,9.25.01,2.51.07,5.02-.05,7.52-.17,3.61,1.44,5.13,5.04,5.02,4.7-.14,9.41-.18,14.11-.01,3.81.14,4.88-1.65,4.72-5.15-.15-3.43-.05-6.9.26-10.32.38-4.2,2.78-6.49,7.14-6.51,3.61-.01,7.22-.18,10.81-.05,4.08.15,6.23-1.23,5.81-5.7-.26-2.8-.05-5.64-.05-8.46Z"/>
      <path class="cls-2" d="m485.01,311.77c-1.92-.08-3.92.1-5.69-.44-.45-.14-.19-2.6-.26-3.99,2.1.65,4.2,1.31,6.31,1.96-.12.82-.24,1.65-.35,2.47Z"/>
      <path class="cls-2" d="m547.17,310.06c.6,1.86,1.2,3.72,1.92,5.97h-5.69c1.01-2.33,1.83-4.22,2.64-6.11.37.05.75.1,1.12.14Z"/>
      <path class="cls-2" d="m400.19,305.45c1.78,2,2.79,3.12,3.79,4.25-1.21.94-2.32,2.29-3.68,2.64-.61.15-2.28-1.65-2.44-2.72-.14-.96,1.12-2.13,2.34-4.17Z"/>
    </g>
    <path class="cls-4" d="m329.19,203.27c-.09-.46-.21-.89-.34-1.29,1.09-2.94-.4-6.95-4.48-6.95-1.1,0-2.01.3-2.74.79-3.78-.73-8.28-.16-11.98-.29-.88-.03-1.71-.18-2.56-.3-.07-.19-.14-.4-.24-.66-.5-1.39-1.43-2.56-2.6-3.44.11-.54.14-1.09.04-1.65.87-1.2,1.51-2.56,1.83-4.06.65-3.08-.4-6.43-2.75-8.3.16-3.1-2.31-6.4-6.16-5.26-2.65.79-5.41-.55-8.09-.81-1.94-.19-3.94,0-5.79.63-3.63,1.23-6.61,4.4-6.65,8.39-.02,2.13.72,4.17,1.97,6.02-.7,1.54-.8,3.23-1.06,4.92-7.76,2.48-19.4.85-23.01,9.47-1.65,3.93-1.31,8.87-1.42,13.04-.1,3.78-.9,8.54,2.34,11.3,2.98,2.54,7.91,3.51,11.62,4.46,2.22.57,4.63.72,6.8,1.4,2.98.92,3.1,2.31,3.36,5.23.17,1.94.47,3.8.97,5.52-1.36,3.04,0,7.11,4.29,7,.03,0,.07,0,.1,0,1.79,1.35,4.12,2.17,7.16,2.2,3.43.04,8.47.56,11.57-1.2,3.58-2.04,3.32-6.06,3.39-9.67.05-2.52-.09-5.18.17-7.69.26-2.53,1.17-2.73,3.57-3.2,4.5-.89,9.57-.52,13.94-1.93,3.66-1.18,5-4.09,5.49-7.64.69-4.94,2.27-11.07,1.28-16.02Z"/>
  </g>
</svg>