<?xml version="1.0" encoding="UTF-8"?>
<svg id="Capa_1" data-name="Capa 1" xmlns="http://www.w3.org/2000/svg" viewBox="0 0 978.33 1018.37">
  <defs>
    <style>
      .cls-1 {
        fill: #fff;
      }

      .cls-2 {
        fill: #1c6e8c;
      }

      .cls-3 {
        fill: #00bfb2;
      }
    </style>
  </defs>
  <path class="cls-3" d="m2.11,467.95c1.55-103.86,33.34-197.63,94.77-281.23C162.78,97.03,250.1,37.64,356.23,5.35c6.15-1.87,12.43-3.35,18.7-4.82,8.5-2,16.04,1.88,17.98,9.06,2.23,8.24-1.84,16.21-10.32,18.93-13.25,4.25-26.83,7.49-39.92,12.15-87,30.98-159.47,82.14-215.84,155.71-36.2,47.25-63.09,99.19-78.78,156.64-12.19,44.65-18.16,90.26-15.98,136.56,4.44,93.96,34.36,178.8,92.41,253.3,64.02,82.17,147.54,134.79,247,163.35,4.97,1.43,10.01,3.06,14.55,5.48,6.62,3.52,9.18,11.37,6.69,18.02-2.31,6.17-8.91,9.75-16.42,7.98-34.55-8.14-67.71-20.35-99.71-35.61-61.58-29.37-115.1-69.54-159.64-121.32-55.46-64.47-92.26-138.22-106.81-222.22-5.16-29.8-6.86-60.2-10.14-90.33.7-.09,1.4-.19,2.11-.28Z"/>
  <path class="cls-3" d="m978.28,462.67c1.31,92.74-21.88,178.92-70.48,257.87-35.66,57.94-82.87,105.09-138.82,143.58-48.5,33.36-101.4,57.2-158.1,72.7-10.87,2.97-17.05,1.34-20.64-4.66-5.47-9.16-1.16-19.3,9.9-22.81,9.47-3,19.1-5.49,28.52-8.6,87.37-28.86,161.1-78.28,220.14-148.78,42.42-50.65,71.73-108.47,86.02-173.12,5.92-26.79,10.02-54.24,12.05-81.6,6.96-93.71-17.38-179.91-65.58-259.87-40.25-66.78-94.6-119.12-161.61-158.77-36.72-21.72-75.48-38.07-116.7-48.99-4.98-1.32-10.03-5.37-13.25-9.54-3.53-4.57-3.05-11.34,1.66-14.96,3.64-2.81,9.63-4.97,13.94-4.13,36.16,7.04,70.24,20.34,102.79,37.26,134.79,70.04,219.89,179.7,257.74,326.28,8.27,32.03,11.65,65,12.42,98.15Z"/>
  <path class="cls-2" d="m723.34,326.66c-13.58,3.5-20.81-5.38-29.04-12.97-21.09-19.44-42.41-38.62-63.86-57.66-12.04-10.68-25.63-11.32-39.7-2.6-13.45,8.33-19.44,21.55-14.79,36.34,1.82,5.79,6.38,11.12,10.76,15.62,6.24,6.4,13.5,11.8,20.25,17.72,2.92,2.56,5.66,5.33,9.94,9.39-14.28,0-26.61,0-38.94,0s-24.85,0-38.82,0c0-13.72-.08-26.84.03-39.95.07-9.23.88-18.48.49-27.68-.99-23.42,19.32-46.89,48.09-48.78,18.39-1.2,36.92-.79,55.36-.18,4.78.16,10,3.04,14.04,6,7.81,5.74,15.54,11.85,22.19,18.87,9.19,9.69,20.56,11.86,32.93,12.53,31.94,1.73,62.61,9.86,93.01,19.09,9.16,2.78,11.31,6.98,11.25,16.91-.1,17.17-2.37,21.22-19.16,24.84-12.85,2.77-22.68,8.73-31.01,18.6-5.93,7.02-12.51,13.68-19.69,19.38-3.94,3.13-9.68,5.35-14.69,5.52-18.94.65-37.92.06-56.87.43-6.46.13-11.57-1.84-16.27-5.95-19.91-17.39-39.96-34.61-59.77-52.11-8.94-7.89-10.18-16.53-4.08-23.43,6.46-7.3,18.07-7.58,26.06-.06,17.61,16.58,35.11,33.29,52.36,50.25,4.18,4.11,8.27,6.64,14.28,6.12,9.64-.83,19.33-1.14,28.98-1.95,2.21-.18,4.32-1.49,6.47-2.28.07-.67.14-1.35.21-2.02Zm14.75-34.06c.06-8.3-6.25-14.49-14.75-14.44-8.36.05-14.26,5.8-14.25,13.91,0,7.48,6.71,14.16,14.34,14.29,8.03.13,14.61-6.03,14.67-13.75Z"/>
  <path class="cls-2" d="m440.98,332.21h-76.39c7.42-6.64,13.6-12.18,19.77-17.71,4.27-3.83,8.55-7.64,12.79-11.5,18.36-16.74,8.36-43.07-10.66-51.67-15.09-6.82-28.02-3.6-39.79,6.98-15.94,14.34-31.8,28.77-47.68,43.18-5.9,5.36-12,10.54-17.55,16.25-6.23,6.42-12.91,11.04-22.58,8.86-.11.66-.22,1.33-.32,1.99,4.62,1.36,9.18,3.55,13.88,3.9,8.68.65,17.45.42,26.16.09,2.15-.08,4.64-1.57,6.29-3.13,18.26-17.33,36.12-35.1,54.75-52.02,3.97-3.6,10.55-5.71,16.03-5.95,11.93-.52,18.45,11.68,11.34,21.23-4.99,6.69-11.63,12.23-17.92,17.86-15.6,13.96-31.4,27.69-47.15,41.46-5.08,4.44-10.86,6.22-17.82,6.06-17.7-.43-35.43-.56-53.12.03-8.82.3-15.35-2.88-21.17-8.87-7.99-8.22-15.89-16.57-24.23-24.43-3.09-2.91-7.17-4.93-11.09-6.74-2.88-1.33-6.25-1.54-9.36-2.42-18.07-5.09-22.93-12.16-20.8-30.87.89-7.84,6.8-11.45,13.5-13.28,16.01-4.39,31.98-9.18,48.28-12.17,18.74-3.43,37.87-4.74,56.7-7.76,5.04-.81,10.11-3.86,14.29-7.02,7.73-5.85,15.05-12.32,22.12-18.97,7.88-7.4,16.53-10.86,27.67-10.15,14.66.94,29.44-.25,44.13.44,20.65.96,36.79,10.02,45.7,29.35,2.34,5.07,3.93,10.95,4.04,16.5.44,23.18.19,46.37.19,70.49Zm-183.91-54.13c-8.67.11-14.54,6.05-14.38,14.55.14,7.39,7.12,13.99,14.69,13.89,7.66-.09,14.42-6.7,14.42-14.11,0-8.29-6.32-14.44-14.73-14.34Z"/>
  <path class="cls-2" d="m451.64,919.53c-38.26-18.01-50.5-65.03-29.24-94.23,6.83-9.38,18.32-15.85,28.58-22.18,35.82-22.1,72.16-43.35,108.05-65.34,14.45-8.86,20.46-22.86,19.58-39.47-.82-15.58-9.28-26.38-23.18-33.07-2.25-1.08-4.45-2.4-6.83-3.03-10.53-2.77-15.23-8.89-14.11-20.26.49-4.98,1.7-7.74,5.72-10.79,8.42-6.37,15.88-6.92,25.94-2.57,26.22,11.33,44.53,28.65,50.21,57.49,6.5,32.99-7.85,64.58-37.17,82.08-36.16,21.58-72.28,43.21-108.4,64.86-2.99,1.79-5.8,3.88-8.73,5.77-7.31,4.73-10.56,11.4-10.49,20.12.17,19.94.06,39.89.06,60.62Z"/>
  <path class="cls-3" d="m509.94,158.29h-36.82v-26.31c-20.19-7.11-33.54-19.84-39.59-39.58-9.73-31.77,9.2-65.36,41.63-74.08,32.48-8.73,66.29,11.24,73.67,43.53,6.64,29.06-7.44,55.97-34.91,67.32-1.81.75-3.68,3.73-3.8,5.77-.45,7.63-.18,15.3-.18,23.35Z"/>
  <path class="cls-2" d="m473.79,562.96c0-13.3-.45-25.29.32-37.2.19-2.95,3.84-6.56,6.81-8.3,31.16-18.28,62.5-36.24,93.79-54.29,7.55-4.36,15.34-8.35,22.64-13.09,15.19-9.86,17.61-29.75,5.87-43.54-9.46-11.11-21.77-15.23-35.81-15.38-10.4-.11-20.81-.02-31.69-.02v-31.65c6.48,0,13.1-.15,19.7.03,13.16.37,26.63-.73,39.4,1.74,27.05,5.22,44.91,22.43,51.94,48.86,7.04,26.46-1.31,49.18-22.02,66.98-5.43,4.67-11.68,8.52-17.95,12.03-40.87,22.88-81.85,45.57-122.8,68.32-3,1.67-6.03,3.26-10.21,5.52Z"/>
  <path class="cls-2" d="m508.16,574.16c0,14.34.25,27.26-.24,40.14-.08,2.23-2.82,5.09-5.07,6.4-23.93,13.88-47.94,27.64-72.08,41.14-13.03,7.29-23.97,15.97-27.3,31.65-3.42,16.11,3.3,33.3,17.36,42.06,7.18,4.47,14.72,8.37,22.15,12.42,4.03,2.2,6.66,4.89,5.73,10.03-.48,2.66-.4,5.51-.06,8.21.62,4.82-1.59,7.19-5.38,10.15-8.63,6.74-15.87,5.89-25.38,1.02-19.59-10.04-36.73-21.96-46.31-42.63-17.08-36.84-4.38-78.79,30.57-99.37,32.42-19.09,65.05-37.81,97.6-56.68,2.33-1.35,4.75-2.57,8.4-4.52Z"/>
  <path class="cls-3" d="m473.95,490.67V216.26h34.36c0,2.24,0,4.6,0,6.96,0,79.87-.06,159.75.1,239.62.01,5.36-1.32,8.68-6.22,11.3-9.17,4.9-17.99,10.47-28.24,16.53Z"/>
  <path class="cls-2" d="m446.62,358.75v32.34c-10.65,0-21,0-31.35,0-10.74,0-20.73,2.73-29.61,8.8-20.82,14.22-19.9,41.73,2.22,53.76,12.66,6.88,26.1,12.32,39.18,18.42,3.16,1.47,6.19,3.29,9.46,4.44,9.43,3.31,13.39,9.19,12.18,19.64-.69,5.92-2.8,8.74-7.52,12.13-8.13,5.83-14.63,4.59-22.93.37-13.72-6.97-28.17-12.52-42.4-18.47-25.51-10.67-43.89-36.34-43.91-61.58-.03-32.28,22.26-61.71,54.04-67.06,19.63-3.3,40.03-2,60.64-2.79Z"/>
  <path class="cls-2" d="m750.25,706.79c-12.05-12.69-24.45-26.01-37.25-38.93-1.92-1.94-5.71-2.81-8.65-2.85-16.72-.25-33.44-.1-50.16-.08-1.5,0-3,.05-4.49-.02-5.61-.26-9.11-3.37-9.2-8.8-.08-5.24,3.42-8.08,8.72-8.14,15.97-.16,31.93-.33,47.9-.33,22.02,0,21.89.19,36.68,16.37,10.77,11.78,21.87,23.27,33.06,34.66,2.14,2.18,5.25,3.67,8.18,4.78,12.87,4.88,19.93,16.95,17.79,30.92-1.84,11.96-12.13,21.43-24.97,21.64-10.54.17-18.82-5.18-23.35-14.65-2.03-4.24-4.29-5.2-8.45-5.17-26.7.23-53.4.27-80.1.35-2.49,0-4.99,0-7.48-.13-5.69-.29-9.86-2.73-9.74-8.93.12-6.14,4.06-8.53,9.98-8.48,11.48.1,22.96-.01,34.44-.02,14.97-.01,29.97-.48,44.91.16,9.85.42,18.27-.36,22.19-12.35Zm7.57,22.42c.11,5.14,5.34,10.4,10.03,10.09,5.13-.33,10.08-5.6,9.81-10.46-.25-4.53-6.17-9.97-10.68-9.83-4.38.14-9.26,5.57-9.16,10.19Z"/>
  <path class="cls-2" d="m229.52,704.07c5.96,16.15,16.69,15.1,27.56,14.94,24.94-.37,49.9-.18,74.85-.18,7.13,0,11.71,3.46,11.61,8.66-.1,5.28-4.61,8.64-11.82,8.68-28.69.15-57.38.28-86.07.4-3.81.02-6.73.25-8.78,4.82-4.98,11.04-15.13,15.67-26.3,14.04-13.24-1.94-21.25-11.35-22.5-24.28-1.03-10.63,5.55-23.26,15.61-26.56,7.42-2.43,12-7.34,16.92-12.57,12.64-13.44,25.35-26.82,38.32-39.95,2-2.03,5.48-3.54,8.33-3.63,21.19-.64,42.4-.92,63.6-1.17,7.25-.08,11.79,3.53,11.25,8.99-.64,6.48-5.29,8.61-11.09,8.65-17.71.11-35.43-.17-53.14.31-3.74.1-8.17,1.91-10.99,4.4-13.08,11.55-25.71,23.62-37.36,34.45Zm-5.52,24.99c.14-4.37-5.69-9.98-10.31-9.93-4.28.05-9.54,5.51-9.35,9.99.25,5.74,3.45,9.33,9.01,10.22,5,.79,10.46-4.78,10.64-10.28Z"/>
  <path class="cls-2" d="m83.84,529.46c.71-14.54,7.28-22.45,21.35-25.67,10.67-2.44,20.76,3.13,27.75,14.4,1.25,2.02,5.13,3.38,7.81,3.4,41.13.26,82.26.26,123.39.27,18.2,0,36.4.04,54.59-.3,6.41-.12,11.43,1.59,15.95,6.29,7.77,8.08,16,15.71,24.1,23.47,4.19,4.02,6.77,8.33,2.14,13.53-3.78,4.25-10.27,3.86-15.23-.81-7.43-7-14.52-14.39-22.2-21.11-2.34-2.05-6.13-3.45-9.26-3.46-57.08-.11-114.17.09-171.25.03-5.86,0-10.03,1.22-13.91,6.24-6.72,8.71-19,11.07-29.04,6.89-9.34-3.89-16.6-14.3-16.17-23.18Zm24.36-9.71c-4.53.13-7.51,3.5-8.24,8.69-.7,4.95,4.68,10.86,9.45,10.46,5.27-.44,8.81-3.52,9.5-8.87.69-5.32-3.96-10.04-10.71-10.27Z"/>
  <path class="cls-2" d="m751.11,521.7c29.94,0,59.89,0,89.83,0,4.42,0,7.32-.8,9.58-5.84,4.77-10.62,19.05-15.05,30.92-10.86,11.46,4.04,18.85,17.55,16.18,29.58-2.7,12.2-14.08,20.57-27.19,20.04-8.59-.35-14.95-4.47-20.3-11.02-1.7-2.08-4.96-4.09-7.51-4.1-58.39-.08-116.78.07-175.17.39-2.66.01-5.82,1.38-7.88,3.13-6.46,5.49-12.42,11.55-18.74,17.2-2.77,2.48-5.71,5.83-8.99,6.39-3.51.61-8.49-.51-11.06-2.83-3.46-3.13-2.41-7.6,1.35-11.06,9.36-8.61,18.38-17.6,27.97-25.95,2.71-2.35,6.88-4.2,10.41-4.24,30.19-.33,60.38-.19,90.57-.19v-.66Zm132.18,9.28c-1.17-6.27-6.23-11.52-10.89-11.12-5.49.47-8.41,4.11-8.93,9.3-.45,4.46,5.61,10.97,9.41,9.55,3.89-1.45,6.98-5.06,10.41-7.73Z"/>
  <path class="cls-2" d="m262.07,491.49c-14.72,0-29.44.23-44.15-.18-3.33-.09-7.23-1.66-9.78-3.83-7.58-6.47-14.3-13.95-22-20.25-3.29-2.69-8.14-4.77-12.32-4.84-19.7-.33-39.41-.02-59.1.5-2.53.07-5.84,2.04-7.33,4.16-6.15,8.78-18.35,14.12-27.98,11.55-12.42-3.31-19.84-11.64-20.21-22.66-.48-14.17,5.31-24.11,16.37-28.11,11.39-4.13,24.21-.93,30.41,9.21,3.91,6.41,8.67,7.55,15.21,7.49,19.7-.2,39.41.12,59.12-.18,5.7-.09,9.95,1.62,13.89,5.59,7.02,7.08,14.11,14.14,21.69,20.61,2.7,2.31,6.87,4.03,10.39,4.08,26.69.34,53.38.19,80.07.2,7.15,0,12.45,3.44,11.78,8.32-.92,6.6-5.53,8.45-11.9,8.32-14.71-.3-29.43-.1-44.15-.1,0,.05,0,.09,0,.14Zm-177.18-28.36c4.94,0,10.11-5.1,10.17-10.02.06-5.29-5.37-10.91-10.6-10.32-5.64.63-8.87,4.08-8.97,9.94-.1,5.64,4.27,10.4,9.4,10.4Z"/>
  <path class="cls-3" d="m508.1,840.29c0,37.2,0,72.88,0,108.56,0,15.98.07,31.95-.06,47.93-.07,8.52-3.08,15.95-10.93,19.91-10.97,5.53-22.91-3.18-23.19-16.89-.31-14.72-.05-29.45-.03-44.18.04-29.7.17-59.41.04-89.11-.02-4.18.94-6.73,4.83-8.86,9.56-5.24,18.79-11.06,29.34-17.35Z"/>
  <path class="cls-2" d="m715.53,474.74c13.47,0,26.95.26,40.4-.18,3.33-.11,7.23-1.75,9.75-3.96,8.06-7.05,15.38-14.95,23.45-21.98,2.54-2.21,6.53-3.77,9.89-3.83,21.69-.41,43.39-.32,65.09-.4,5.1-.02,8.83-1.01,11.85-6.47,6.33-11.44,22.68-14.93,34.15-8.45,12.32,6.97,17.12,23.23,10.52,35.63-6.6,12.39-20.46,17.36-32.99,11.31-4.15-2-8.95-4.63-11.09-8.34-3.1-5.38-6.98-5.85-12.12-5.79-19.7.24-39.41.1-59.11.51-3.07.06-6.69,1.56-9.02,3.58-9.22,7.98-16.76,19.62-27.33,23.81-10.6,4.2-24.07,1.22-36.28,1.25-18.96.06-37.91-.1-56.87.08-6.02.06-10.52-1.67-11.27-8.11-.64-5.5,3.62-8.5,11.31-8.53,13.22-.04,26.44-.01,39.66-.01v-.12Zm182.82-31.95c-4.92-.31-9.6,3.86-10.03,8.94-.49,5.77,3.92,11.11,9.3,11.27,4.79.14,9.98-4.74,10.38-9.75.37-4.7-4.65-10.14-9.64-10.46Z"/>
  <path class="cls-2" d="m165.01,648.37c-4,16.94-16.41,24.4-30.48,19.07-9.97-3.78-15-14.88-11.75-25.91,2.77-9.38,13.87-16.85,23.11-14.55,10.39,2.58,20.71,5.08,31.44,3.55,2.8-.4,5.88-2.03,7.9-4.03,8.68-8.58,16.89-17.63,25.58-26.2,1.7-1.68,4.77-2.78,7.22-2.79,45.86-.19,91.72-.2,137.59-.16,6.54,0,11.2,3.86,10.57,8.79-.8,6.27-4.76,8.33-11.03,8.3-41.13-.21-82.25.02-123.38-.26-7.57-.05-13.3,2.05-18.19,7.85-5.13,6.08-11.48,11.19-16.24,17.52-5.25,6.98-11.75,9.32-19.97,8.86-3.96-.22-7.94-.04-12.36-.04Zm-13.15-.85c-4.17-3-6.7-6.21-8.75-5.92-2.22.31-5.21,3.67-5.58,6.05-.29,1.86,3.25,6.22,4.52,6.01,2.82-.47,5.28-3.1,9.81-6.14Z"/>
  <path class="cls-2" d="m816.09,648.76c-2.65-.19-4.94-.82-7.04-.43-12.22,2.26-21.25-2.49-27.94-12.4-12.17-18.01-28.59-23.37-50.35-22.13-34.3,1.96-68.79.55-103.2.48-8.02-.02-11.63-4.25-9.89-10.86,1.37-5.22,5.04-6.03,9.68-6.03,29.67.02,59.34-.08,89.02-.16,15.21-.04,30.43-.44,45.62.04,3.74.12,8.15,2.25,10.94,4.86,8.54,8,16.31,16.82,24.69,25,1.88,1.83,5.11,3.45,7.6,3.29,9.78-.62,19.51-1.96,29.26-3.07,11.97-1.36,22.42,5.98,24.19,17.01,1.91,11.92-5.56,21.94-17.95,24.1-11.83,2.06-21.6-4.72-24.09-16.73-.19-.91-.32-1.83-.51-2.97Zm22.61-8.41c-.95-.03-1.9-.06-2.84-.09-1.46,2.37-4.25,4.9-4.01,7.08.27,2.43,3.3,4.56,5.13,6.82,1.93-2.19,5.04-4.18,5.42-6.62.34-2.15-2.35-4.78-3.7-7.2Z"/>
  <path class="cls-2" d="m251.45,160.46c.89,17.73-7.13,28.82-22.79,31.54-10.28,1.78-18.61-1.67-24.6-10.19-6.78-9.64-7.02-22.25-.92-31.64,6.04-9.3,15.27-14.5,25.46-11.58,14.76,4.24,29.45,3.43,44.29,3.9,3.36.11,7.15,1.95,9.86,4.1,9.54,7.57,17.58,18.57,28.32,22.65,10.5,3.99,23.6,1.24,35.56,1.2,13.46-.05,26.93-.38,40.39-.57,1.74-.02,4.12-.6,5.09.29,3.03,2.78,7.41,5.93,7.78,9.32.5,4.59-3.63,7.78-9,7.77-28.93-.01-57.87.06-86.8-.1-1.92-.01-4.15-1.32-5.68-2.65-6.02-5.22-12.41-10.2-17.58-16.19-8.06-9.33-17.61-11.16-29.38-7.85Zm-15.93,5.28c.09-4.89-5.41-10.55-10.53-10.84-4.87-.28-10.14,5.23-10.29,10.76-.15,5.35,5.05,10.82,10.19,10.73,5.13-.09,10.53-5.5,10.63-10.64Z"/>
  <path class="cls-2" d="m730.04,160.16c-6.53,0-12.24-.26-17.9.14-1.91.13-3.95,1.65-5.49,3.03-8.57,7.6-15.85,18.22-25.82,22.24-9.91,3.99-22.47,1.56-33.88,1.65-17.94.15-35.89.07-53.83.04-7.23-.01-11.6-3.36-11.21-8.83.5-7,5.52-7.87,11.23-7.9,24.92-.11,49.84-.22,74.76-.63,2.89-.05,6.3-1.34,8.53-3.18,8.06-6.65,15.52-14.04,23.65-20.61,2.61-2.11,6.52-3.27,9.95-3.58,6.18-.56,12.48.21,18.67-.28,5.83-.45,11.72-1.35,17.36-2.86,10.68-2.87,20.53-1.84,28.27,6.35,7.74,8.18,11.44,17.8,7.06,29.3-4.2,11.03-12.51,16.37-23.67,17.74-12.87,1.58-27.07-10.78-27.67-23.82-.13-2.7-.02-5.41-.02-8.8Zm26.66,16.64c5.52-.09,10.37-5.11,10.37-10.72,0-6.02-5.11-11.09-11.01-10.91-5.19.16-10.04,5.13-9.92,10.18.14,6.07,5.19,11.54,10.56,11.45Z"/>
  <path class="cls-2" d="m827.88,355.08c-.09-7.51,2.42-16.17,13.31-19.8,8.49-2.84,16.4-2.08,22.84,4.23,6.04,5.91,8.5,13.19,5.7,21.77-3.01,9.22-9.63,13.77-18.82,14.43-7.19.52-14.47-.3-21.66.21-3.1.22-6.76,1.57-8.99,3.65-14.39,13.42-28.28,27.38-42.78,40.68-2.94,2.7-7.75,4.65-11.73,4.72-24.92.39-49.86.18-74.79.11-7.42-.02-11.54-3.2-11.53-8.68.01-5.71,3.89-8.87,11.37-8.9,22.69-.09,45.38.16,68.05-.36,4.17-.1,9.19-2.24,12.24-5.11,13.06-12.3,25.18-25.6,38.4-37.7,4.47-4.09,11.17-5.74,18.39-9.25Zm20.35-9.17c-2.42,4.58-5.01,7.26-4.5,9.06.67,2.35,3.79,4.01,5.85,5.97,1.75-2.05,4.93-4.14,4.88-6.13-.07-2.31-2.98-4.53-6.23-8.9Z"/>
  <path class="cls-2" d="m153.4,358.5c11.13-3.31,16.98,3.61,23.37,10.16,11.3,11.59,22.79,23.02,34.7,33.99,2.91,2.68,7.71,4.57,11.67,4.64,22.17.41,44.35.18,66.52.09,5.7-.02,9.85,1.94,10.68,8.01.77,5.63-3.28,9.42-10.57,9.52-18.44.25-36.98-1-55.28.63-18.29,1.63-31.92-3.72-43.5-17.91-8.14-9.98-18-18.63-27.64-27.25-2.96-2.65-7.66-4.17-11.72-4.58-8.36-.84-17.01.4-25.22-1.01-11.15-1.91-17.56-11.84-16.03-22.31,1.64-11.26,11.17-19.61,22.09-19.34,11.25.28,19.24,7.49,20.63,18.69.21,1.72.18,3.47.33,6.68Zm-12.68-3.73c-4.11-2.64-6.71-5.63-9-5.41-2.12.2-3.91,3.84-5.85,5.96,2.15,1.94,4.22,5.31,6.46,5.43,2.2.11,4.57-3.08,8.38-5.98Z"/>
  <path class="cls-2" d="m519.64,830.25c9.69-6.06,18.45-11.26,26.87-16.95,3.64-2.46,5.19-.67,7.3,1.8,18.79,22.05,20.05,58.51,1.91,81.01-6.57,8.15-14.99,14.8-22.56,22.13-.71-.46-1.42-.92-2.13-1.38-.23-1.79-.67-3.57-.66-5.36.06-17.21-.29-34.43.46-51.61.5-11.37-1.42-21.3-11.19-29.65Z"/>
  <path class="cls-3" d="m508.4,649.01c0,5.89,0,10.27,0,14.64,0,22.94.2,45.89-.19,68.82-.05,2.99-2.29,7.04-4.78,8.7-9.25,6.16-19.03,11.52-29.56,17.74,0-12.7.01-24.33,0-35.96-.02-15.71-.16-31.42,0-47.13.03-2.48.58-6.14,2.23-7.21,10.12-6.6,20.63-12.61,32.31-19.6Z"/>
  <path class="cls-2" d="m533.73,611.86c0-17.24-.09-34.09.14-50.94.02-1.76,1.59-4.2,3.16-5.12,11.58-6.76,23.32-13.27,35.09-19.7,1.33-.73,3.47-1.23,4.72-.68,12.5,5.57,21.9,25.88,16.19,37.84-2.73,5.71-8.72,10.64-14.37,14.03-14.25,8.55-29.13,16.04-44.92,24.57Z"/>
  <path class="cls-2" d="m358.25,814.75c-3.24,0-6.49.22-9.7-.04-9.36-.78-16.49.27-22.81,9.76-8.79,13.23-28.37,12.86-39.26,1.42-10.55-11.08-9.72-30.63,1.72-40.1,12.67-10.49,31.72-7.69,40.79,6.71,2.98,4.72,5.94,6.14,11.21,5.97,13.18-.41,26.38-.09,39.58-.26,5.97-.07,11.3,1.93,11.17,8.14-.12,5.66-4.67,8.79-11.04,8.49-7.2-.34-14.43-.08-21.65-.09Zm-62.67-7.56c-.07,5.34,5.1,10.67,10.24,10.59,4.86-.08,10.29-5.18,10.52-9.88.25-5.05-5.56-11.22-10.7-11.35-5.38-.13-9.99,4.74-10.06,10.64Z"/>
  <path class="cls-2" d="m622.29,798.33c3.74,0,7.48-.13,11.21.03,8.61.35,15.97.72,21.22-9.4,4.85-9.35,20.13-11.73,30.15-7.56,10.75,4.48,18.27,16.22,17.37,27.14-1.04,12.74-9.48,22.07-22.75,25.17-10.13,2.37-22.81-2.94-27.82-12.91-2.59-5.15-5.53-6.41-10.84-6.25-12.94.4-25.91.23-38.86.19-6.4-.02-11.21-3.88-10.63-8.8.74-6.22,5.05-7.83,10.76-7.63,6.72.24,13.45.06,20.18.06v-.03Zm62.9,9.44c.16-6.51-4.17-11.12-10.44-11.1-5.38.02-10.08,4.85-10.39,10.68-.26,4.81,4.78,10.11,9.88,10.39,5.46.3,10.81-4.57,10.95-9.97Z"/>
  <path class="cls-2" d="m448.4,525.79c0,17.22.17,32.16-.18,47.08-.05,2.36-1.86,5.66-3.85,6.84-13.03,7.74-26.34,15.01-41.12,23.31-4.74-7.32-10.24-13.85-13.52-21.36-4.43-10.13-1.82-20.24,6.97-25.79,16.3-10.3,33.31-19.47,51.69-30.08Z"/>
  <path class="cls-3" d="m490.76,200.68c-8.96,0-17.92.08-26.87-.03-7.44-.09-13.48-6.07-13.38-13,.1-7.01,5.39-12.37,13.08-12.46,18.16-.21,36.33-.25,54.49-.1,7.63.06,12.88,5.52,12.81,12.53-.07,7.34-5.66,12.91-13.25,13-8.96.09-17.92.02-26.87.02v.04Z"/>
  <path class="cls-2" d="m534.02,455.22v-37.16c13.6,0,26.93-.18,40.25.16,2.46.06,5.18,1.86,7.25,3.52,4.07,3.25,5.1,6.58-.7,9.51-15.27,7.71-30.47,15.59-46.79,23.97Z"/>
  <path class="cls-2" d="m443.23,417.85v33.8c-15.39-7.08-29.94-13.66-44.36-20.5-3.62-1.72-3.68-4.95-.4-6.98,4.06-2.52,8.5-5.64,13-6.03,10.31-.89,20.75-.28,31.77-.28Z"/>
  <path class="cls-2" d="m533.66,722.07v-39.42c9.54,1.14,18.65,8.01,19.49,15.91,1.42,13.37-8.52,18.22-19.49,23.51Z"/>
  <path class="cls-2" d="m447.31,717.82c-11.88-1.44-18.89-6.85-19.64-14.64-.79-8.24,6.53-16.28,19.64-21.08v35.72Z"/>
  <path class="cls-2" d="m617.55,110.57c-6.23.17-11.44-4.89-11.46-11.13-.02-6.34,4.67-10.94,11.32-11.12,6.02-.16,11.83,5.17,11.81,10.83-.01,5.56-5.84,11.26-11.68,11.42Z"/>
  <path class="cls-2" d="m375.84,99.2c-.04,5.73-5.85,11.31-11.7,11.22-6.24-.09-11.37-5.38-11.16-11.52.21-6.22,5.17-10.57,11.94-10.5,5.75.07,10.96,5.21,10.92,10.79Z"/>
  <path class="cls-2" d="m833.37,216.73c-.12,5.64-5.62,11-11.06,10.77-5.81-.24-10.69-5.28-10.77-11.12-.08-5.83,5.33-10.97,11.61-11.02,5.5-.04,10.35,5.34,10.22,11.37Z"/>
  <path class="cls-2" d="m147.56,215.67c.09-6.25,4.07-10.35,10.07-10.35,6.32,0,10.98,4.5,11.01,10.65.04,6.16-5.49,11.81-11.26,11.49-5.48-.3-9.91-5.62-9.82-11.79Z"/>
  <path class="cls-2" d="m873.79,610.04c.91-5.08,3.46-8.75,9.1-9.03,5.46-.27,10.39,4.58,10.22,9.67-.16,4.81-5.08,8.98-10.35,8.56-5.5-.44-8.55-3.47-8.97-9.2Z"/>
  <path class="cls-2" d="m95.98,619.02c-4.64-.79-8.45-2.86-8.33-8.94.13-6.31,3.93-8.87,9.58-9.06,5.13-.17,9.56,4.64,9.01,9.79-.59,5.63-4.27,8.11-10.27,8.21Z"/>
  <path class="cls-1" d="m738.09,292.6c-.06,7.72-6.64,13.89-14.67,13.75-7.63-.13-14.33-6.8-14.34-14.29,0-8.1,5.9-13.86,14.25-13.91,8.5-.05,14.81,6.14,14.75,14.44Z"/>
  <path class="cls-1" d="m257.07,278.08c8.41-.1,14.73,6.05,14.73,14.34,0,7.41-6.76,14.01-14.42,14.11-7.58.09-14.56-6.51-14.69-13.89-.16-8.5,5.72-14.44,14.38-14.55Z"/>
  <path class="cls-1" d="m757.82,729.2c-.1-4.62,4.78-10.04,9.16-10.19,4.51-.15,10.43,5.3,10.68,9.83.27,4.85-4.68,10.12-9.81,10.46-4.7.3-9.92-4.96-10.03-10.09Z"/>
  <path class="cls-1" d="m224,729.06c-.18,5.5-5.64,11.07-10.64,10.28-5.57-.88-8.77-4.48-9.01-10.22-.19-4.48,5.07-9.94,9.35-9.99,4.62-.06,10.45,5.56,10.31,9.93Z"/>
  <path class="cls-1" d="m108.21,519.76c6.75.23,11.4,4.95,10.71,10.27-.69,5.35-4.23,8.44-9.5,8.87-4.77.4-10.15-5.51-9.45-10.46.73-5.18,3.71-8.55,8.24-8.69Z"/>
  <path class="cls-1" d="m883.29,530.98c-3.44,2.67-6.52,6.27-10.41,7.73-3.8,1.42-9.86-5.09-9.41-9.55.53-5.19,3.45-8.82,8.93-9.3,4.66-.4,9.72,4.85,10.89,11.12Z"/>
  <path class="cls-1" d="m84.89,463.13c-5.13,0-9.51-4.76-9.4-10.4.11-5.86,3.34-9.32,8.97-9.94,5.23-.58,10.66,5.03,10.6,10.32-.05,4.92-5.23,10.02-10.17,10.02Z"/>
  <path class="cls-1" d="m898.35,442.79c5,.32,10.02,5.76,9.64,10.46-.4,5.01-5.59,9.89-10.38,9.75-5.38-.16-9.79-5.51-9.3-11.27.43-5.08,5.12-9.25,10.03-8.94Z"/>
  <path class="cls-1" d="m151.85,647.52c-4.53,3.04-6.99,5.68-9.81,6.14-1.27.21-4.81-4.16-4.52-6.01.37-2.38,3.36-5.75,5.58-6.05,2.05-.28,4.57,2.92,8.75,5.92Z"/>
  <path class="cls-1" d="m838.7,640.35c1.35,2.42,4.04,5.05,3.7,7.2-.39,2.43-3.5,4.43-5.42,6.62-1.83-2.26-4.86-4.39-5.13-6.82-.24-2.19,2.55-4.71,4.01-7.08.95.03,1.9.06,2.84.09Z"/>
  <path class="cls-1" d="m235.52,165.74c-.1,5.14-5.5,10.55-10.63,10.64-5.14.09-10.34-5.38-10.19-10.73.16-5.53,5.42-11.03,10.29-10.76,5.12.29,10.62,5.96,10.53,10.84Z"/>
  <path class="cls-1" d="m756.69,176.8c-5.37.09-10.42-5.38-10.56-11.45-.12-5.05,4.73-10.03,9.92-10.18,5.9-.18,11.01,4.89,11.01,10.91,0,5.62-4.85,10.64-10.37,10.72Z"/>
  <path class="cls-1" d="m848.24,345.91c3.24,4.36,6.16,6.59,6.23,8.9.06,2-3.13,4.08-4.88,6.13-2.06-1.96-5.18-3.62-5.85-5.97-.51-1.8,2.08-4.48,4.5-9.06Z"/>
  <path class="cls-1" d="m140.73,354.77c-3.81,2.9-6.18,6.09-8.38,5.98-2.24-.11-4.32-3.48-6.46-5.43,1.94-2.12,3.73-5.76,5.85-5.96,2.29-.22,4.89,2.76,9,5.41Z"/>
  <path class="cls-1" d="m295.58,807.19c.08-5.9,4.68-10.77,10.06-10.64,5.13.12,10.95,6.29,10.7,11.35-.23,4.7-5.66,9.8-10.52,9.88-5.15.09-10.31-5.25-10.24-10.59Z"/>
  <path class="cls-1" d="m685.19,807.77c-.14,5.4-5.49,10.27-10.95,9.97-5.1-.28-10.13-5.57-9.88-10.39.31-5.83,5.01-10.67,10.39-10.68,6.26-.02,10.6,4.59,10.44,11.1Z"/>
</svg>